<svg xmlns="http://www.w3.org/2000/svg" viewBox="0 0 500 500" width="500" height="500" style="width:100%;height:100%;transform:translate3d(0,0,0);content-visibility:visible"><defs><clipPath id="a"><path d="M0 0h500v500H0z"/></clipPath></defs><g clip-path="url(#a)"><g style="display:block"><path fill="#d1e9f4" d="M251.383 103.233a51.85 51.85 0 0 0-62.08 13.133l-83.681 98.567A51.92 51.92 0 0 0 94.41 259.29l25.94 122.627c5.93 28.033 33.45 45.989 61.497 40.056l26.859-5.682-31.012-146.603 146.39-30.967 31.012 146.603 26.859-5.681c28.048-5.934 45.938-33.495 40.008-61.528l-25.94-122.627a51.95 51.95 0 0 0-28.213-36.016z"/><path stroke-linejoin="round" stroke="#d1e9f4" stroke-width="55.051" d="M251.383 103.233a51.85 51.85 0 0 0-62.08 13.133l-83.681 98.567A51.92 51.92 0 0 0 94.41 259.29l25.94 122.627c5.93 28.033 33.45 45.989 61.497 40.056l26.859-5.682-31.012-146.603 146.39-30.967 31.012 146.603 26.859-5.681c28.048-5.934 45.938-33.495 40.008-61.528l-25.94-122.627a51.95 51.95 0 0 0-28.213-36.016z" fill="none"/></g><g style="display:block"><path fill="#0da5e8" d="M244.086 166c0-52.935 42.979-95.914 95.914-95.914s95.914 42.979 95.914 95.914-42.979 95.914-95.914 95.914-95.914-42.979-95.914-95.914"/><path stroke="#0da5e8" stroke-width="35.968" d="M244.086 166c0-52.935 42.979-95.914 95.914-95.914s95.914 42.979 95.914 95.914-42.979 95.914-95.914 95.914-95.914-42.979-95.914-95.914z" fill="none"/></g><path stroke-linecap="round" stroke-linejoin="round" stroke="#ffff" stroke-width="39.343" d="M389.446 164.696h-102.18m52.458 49.722v-102.18" fill="none" style="display:block"/></g></svg>