<svg xmlns="http://www.w3.org/2000/svg" xmlns:xlink="http://www.w3.org/1999/xlink" viewBox="0 0 500 500" width="500" height="500" preserveAspectRatio="xMidYMid meet" style="width: 100%; height: 100%; transform: translate3d(0px, 0px, 0px); content-visibility: visible;"><defs><clipPath id="__lottie_element_24"><rect width="500" height="500" x="0" y="0"></rect></clipPath></defs><g clip-path="url(#__lottie_element_24)"><g transform="matrix(2.1543757915496826,-0.45572659373283386,0.45572659373283386,2.1543757915496826,250,250)" opacity="1" style="display: block;"><g opacity="1" transform="matrix(1,0,0,1,0,0)"><path fill="rgb(209,233,244)" fill-opacity="1" d=" M14.407999992370605,-65.0770034790039 C5.922999858856201,-71.64099884033203 -5.922999858856201,-71.64099884033203 -14.407999992370605,-65.0770034790039 C-14.407999992370605,-65.0770034790039 -60.849998474121094,-29.14900016784668 -60.849998474121094,-29.14900016784668 C-66.62300109863281,-24.683000564575195 -70,-17.79400062561035 -70,-10.496000289916992 C-70,-10.496000289916992 -70,46.42399978637695 -70,46.42399978637695 C-70,59.43600082397461 -59.46099853515625,70 -46.44200134277344,70 C-46.44200134277344,70 -33.9747200012207,70 -33.9747200012207,70 C-33.9747200012207,70 -33.9747200012207,1.9514005184173584 -33.9747200012207,1.9514005184173584 C-33.9747200012207,1.9514005184173584 33.9747200012207,1.9514005184173584 33.9747200012207,1.9514005184173584 C33.9747200012207,1.9514005184173584 33.9747200012207,70 33.9747200012207,70 C33.9747200012207,70 46.44200134277344,70 46.44200134277344,70 C59.46099853515625,70 70,59.43600082397461 70,46.42399978637695 C70,46.42399978637695 70,-10.496000289916992 70,-10.496000289916992 C70,-17.79400062561035 66.62100219726562,-24.683000564575195 60.849998474121094,-29.14900016784668 C60.849998474121094,-29.14900016784668 14.407999992370605,-65.0770034790039 14.407999992370605,-65.0770034790039z"></path><path stroke-linecap="butt" stroke-linejoin="round" fill-opacity="0" stroke="rgb(209,233,244)" stroke-opacity="1" stroke-width="25" d=" M14.407999992370605,-65.0770034790039 C5.922999858856201,-71.64099884033203 -5.922999858856201,-71.64099884033203 -14.407999992370605,-65.0770034790039 C-14.407999992370605,-65.0770034790039 -60.849998474121094,-29.14900016784668 -60.849998474121094,-29.14900016784668 C-66.62300109863281,-24.683000564575195 -70,-17.79400062561035 -70,-10.496000289916992 C-70,-10.496000289916992 -70,46.42399978637695 -70,46.42399978637695 C-70,59.43600082397461 -59.46099853515625,70 -46.44200134277344,70 C-46.44200134277344,70 -33.9747200012207,70 -33.9747200012207,70 C-33.9747200012207,70 -33.9747200012207,1.9514005184173584 -33.9747200012207,1.9514005184173584 C-33.9747200012207,1.9514005184173584 33.9747200012207,1.9514005184173584 33.9747200012207,1.9514005184173584 C33.9747200012207,1.9514005184173584 33.9747200012207,70 33.9747200012207,70 C33.9747200012207,70 46.44200134277344,70 46.44200134277344,70 C59.46099853515625,70 70,59.43600082397461 70,46.42399978637695 C70,46.42399978637695 70,-10.496000289916992 70,-10.496000289916992 C70,-17.79400062561035 66.62100219726562,-24.683000564575195 60.849998474121094,-29.14900016784668 C60.849998474121094,-29.14900016784668 14.407999992370605,-65.0770034790039 14.407999992370605,-65.0770034790039z"></path></g></g><g transform="matrix(1.198926329612732,0,0,1.198926329612732,340,166)" opacity="1" style="display: block;"><g opacity="1" transform="matrix(1,0,0,1,0,0)"><path fill="rgb(13,165,232)" fill-opacity="1" d=" M-80,0 C-80,-44.152000427246094 -44.152000427246094,-80 0,-80 C0,-80 0,-80 0,-80 C44.152000427246094,-80 80,-44.152000427246094 80,0 C80,0 80,0 80,0 C80,44.152000427246094 44.152000427246094,80 0,80 C0,80 0,80 0,80 C-44.152000427246094,80 -80,44.152000427246094 -80,0 C-80,0 -80,0 -80,0z"></path><path stroke-linecap="butt" stroke-linejoin="miter" fill-opacity="0" stroke-miterlimit="4" stroke="rgb(13,165,232)" stroke-opacity="1" stroke-width="30" d=" M-80,0 C-80,-44.152000427246094 -44.152000427246094,-80 0,-80 C0,-80 0,-80 0,-80 C44.152000427246094,-80 80,-44.152000427246094 80,0 C80,0 80,0 80,0 C80,44.152000427246094 44.152000427246094,80 0,80 C0,80 0,80 0,80 C-44.152000427246094,80 -80,44.152000427246094 -80,0 C-80,0 -80,0 -80,0z"></path></g></g><g transform="matrix(1.3114455938339233,0,0,1.3114455938339233,339.7242431640625,164.69557189941406)" opacity="1" style="display: block;"><g opacity="1" transform="matrix(1,0,0,1,0,0)"><path stroke-linecap="round" stroke-linejoin="round" fill-opacity="0" stroke="#FFFF" stroke-opacity="1" stroke-width="30" d=" M37.91400146484375,0 C25.322999954223633,0 -40,0 -40,0"></path></g><g opacity="1" transform="matrix(1,0,0,1,0,0)"><path stroke-linecap="round" stroke-linejoin="round" fill-opacity="0" stroke="#FFFF" stroke-opacity="1" stroke-width="30" d=" M0,37.91400146484375 C0,25.322999954223633 0,-40 0,-40"></path></g></g></g></svg>