<svg version="1.1" id="Layer_1" xmlns="http://www.w3.org/2000/svg" xmlns:xlink="http://www.w3.org/1999/xlink" x="0px" y="0px"
	 width="100%" viewBox="0 0 2112 2016" enable-background="new 0 0 2112 2016" xml:space="preserve">
<path fill="#000000" opacity="1.000000" stroke="none" 
	d="
M2114.000000,708.000000 
	C2114.000000,1145.280518 2114.000000,1581.561157 2114.000000,2017.920898 
	C1410.137939,2017.920898 706.275940,2017.920898 2.206966,2017.920898 
	C2.206966,1346.219360 2.206966,674.438599 2.206966,2.328932 
	C705.999878,2.328932 1409.999878,2.328932 2114.000000,2.328932 
	C2114.000000,237.057648 2114.000000,472.028809 2114.000000,708.000000 
M591.725037,399.729706 
	C591.725037,399.729706 591.675171,399.317871 590.568237,399.816071 
	C590.135071,400.486725 589.701965,401.157410 588.467896,401.920502 
	C587.929565,402.225311 587.710144,402.683044 586.723877,403.823059 
	C586.418030,404.536652 586.112183,405.250244 584.898254,406.429352 
	C584.627380,407.041443 584.356506,407.653534 582.890137,408.685944 
	C581.750061,410.407593 580.609985,412.129242 578.604980,414.058929 
	C578.110352,414.468872 577.876282,414.994751 576.749939,415.963654 
	C576.311401,416.596558 575.872864,417.229492 574.268372,418.449402 
	C570.188477,423.643463 566.108582,428.837524 560.854858,434.528229 
	C559.726257,436.302399 558.597656,438.076569 556.353577,440.502411 
	C552.871826,444.885651 549.390015,449.268921 544.755066,453.968994 
	C544.317078,454.600098 543.879089,455.231171 542.329651,456.545593 
	C535.656433,464.380798 528.971252,472.205841 522.312317,480.053131 
	C503.616180,502.085754 484.901581,524.102722 466.248413,546.171631 
	C439.070343,578.326477 411.973206,610.549805 384.769196,642.682617 
	C376.003265,653.036743 366.879272,663.088562 358.145050,673.468750 
	C335.947876,699.848938 314.040894,726.474609 291.714691,752.744446 
	C266.836700,782.016846 246.108307,813.821594 231.051361,849.238831 
	C218.821243,878.006836 209.727707,907.702454 206.267899,938.818665 
	C204.043533,958.823669 200.844666,978.827881 203.475815,999.156799 
	C205.680862,1016.193359 205.893570,1033.559204 209.082047,1050.382446 
	C216.091400,1087.365234 224.457764,1124.090454 232.208221,1160.933716 
	C238.937408,1192.922241 245.499115,1224.946045 252.292175,1256.920898 
	C256.748993,1277.899048 261.508209,1298.812988 266.088257,1319.765137 
	C268.628723,1331.386719 271.174408,1343.008667 273.548767,1354.664917 
	C277.436310,1373.749634 281.008881,1392.899902 285.044159,1411.952759 
	C289.010864,1430.681641 293.487885,1449.301880 297.557617,1468.009644 
	C301.694977,1487.027954 305.586548,1506.099854 309.628052,1525.139282 
	C312.302460,1537.738525 314.851776,1550.369141 317.808167,1562.902832 
	C324.247589,1590.203125 330.065979,1617.690796 337.721710,1644.652100 
	C345.354095,1671.531616 359.008057,1695.954468 373.751068,1719.537354 
	C380.556274,1730.422974 389.376892,1740.048828 397.504578,1751.473999 
	C398.265839,1752.414185 399.027069,1753.354492 399.912018,1754.140137 
	C399.912018,1754.140137 399.717377,1754.176758 399.939758,1755.387573 
	C401.212830,1756.374268 402.485931,1757.360962 403.854340,1758.173950 
	C403.854340,1758.173950 403.662476,1758.223633 403.859344,1759.481079 
	C405.255829,1760.938477 406.652344,1762.395874 408.604767,1764.654175 
	C409.040558,1765.140137 409.522888,1765.574463 410.128143,1767.087402 
	C410.729340,1767.479248 411.330566,1767.870972 412.537720,1769.377075 
	C415.543732,1772.302124 418.549744,1775.227173 421.900330,1779.281738 
	C422.567871,1779.634521 423.235413,1779.987305 424.307281,1781.181763 
	C424.754608,1781.657227 425.302917,1781.928955 426.355286,1783.106689 
	C427.373749,1783.660400 428.392212,1784.214111 429.490082,1784.549316 
	C429.490082,1784.549316 429.265594,1784.610107 429.708740,1785.764526 
	C430.375122,1786.233765 431.041504,1786.703003 431.841736,1788.156860 
	C432.558502,1788.765137 433.275299,1789.373413 434.537262,1791.140381 
	C436.939392,1792.879761 439.341553,1794.619263 441.813507,1796.192993 
	C441.813507,1796.192993 441.634949,1796.213379 441.926483,1797.312012 
	C442.572174,1797.640503 443.217865,1797.968872 443.858398,1798.128906 
	C443.858398,1798.128906 443.710999,1798.210571 444.292908,1799.226440 
	C445.328369,1799.743530 446.363861,1800.260620 447.765259,1800.332275 
	C447.765259,1800.332275 447.322662,1800.701660 447.862488,1801.781982 
	C449.217346,1802.603271 450.572174,1803.424438 452.227112,1805.115601 
	C452.587433,1805.665161 453.093048,1805.984863 454.016296,1807.160400 
	C454.670044,1807.466309 455.323822,1807.772339 455.993927,1807.990112 
	C455.993927,1807.990112 455.919373,1808.039917 456.535614,1809.136475 
	C458.317017,1810.215698 460.098389,1811.295044 462.363617,1813.464355 
	C464.085327,1814.366577 465.807037,1815.268677 468.076141,1817.299927 
	C469.190063,1817.799072 470.303986,1818.298218 471.710571,1818.422974 
	C471.710571,1818.422974 471.328888,1818.706299 471.928650,1819.821533 
	C473.796326,1820.769043 475.663971,1821.716431 477.636780,1822.424561 
	C477.636780,1822.424561 477.405884,1822.547119 477.889435,1823.663574 
	C479.255554,1824.471191 480.621643,1825.278809 482.582184,1827.105103 
	C483.705017,1827.418701 484.827881,1827.732178 486.344818,1828.928223 
	C486.344818,1828.928223 487.106781,1829.522949 487.106781,1829.522949 
	C487.106781,1829.522949 488.066071,1829.404541 488.781036,1829.987427 
	C488.781036,1829.987427 489.696594,1830.099731 490.283569,1831.288452 
	C492.201080,1832.218872 494.118622,1833.149292 496.484619,1834.508545 
	C496.484619,1834.508545 497.071991,1834.308716 497.705170,1835.417725 
	C498.485718,1835.649902 499.266296,1835.882080 500.409149,1836.571899 
	C500.409149,1836.571899 500.956055,1836.368286 501.604584,1837.556519 
	C503.578735,1838.594727 505.552917,1839.632812 507.739044,1840.340210 
	C507.739044,1840.340210 507.429871,1840.582642 508.132782,1841.762817 
	C512.772827,1843.682251 517.412903,1845.601562 522.817322,1848.007202 
	C522.817322,1848.007202 523.719666,1848.086304 524.072571,1849.093018 
	C524.716858,1849.280762 525.361084,1849.468506 526.735352,1850.143311 
	C526.735352,1850.143311 527.612732,1850.137085 528.431824,1851.306763 
	C539.138855,1855.493042 549.621094,1860.440918 560.606628,1863.683594 
	C576.298218,1868.315186 591.895264,1872.950684 608.367310,1875.348022 
	C628.301514,1878.249268 648.001038,1881.820435 668.251587,1881.954956 
	C686.864136,1882.078735 705.332275,1881.416138 723.658386,1877.887329 
	C734.591553,1875.781982 745.667175,1874.392334 756.561035,1872.117065 
	C763.825012,1870.599976 770.881470,1868.089844 779.349365,1865.887817 
	C780.214661,1865.725708 781.080017,1865.563721 783.597168,1865.792236 
	C795.687317,1863.968384 807.840027,1862.376587 819.865784,1856.489136 
	C820.573120,1856.323853 821.280457,1856.158447 823.346130,1856.413086 
	C835.500427,1855.781738 847.060547,1852.656006 859.543396,1847.974976 
	C860.366150,1847.781128 861.188965,1847.587402 863.430542,1847.781982 
	C865.616028,1847.148438 867.801514,1846.514771 871.315552,1845.798218 
	C872.188660,1845.673340 873.061768,1845.548462 875.284424,1845.611694 
	C878.307312,1843.834106 881.330200,1842.056519 884.198486,1840.200073 
	C884.198486,1840.200073 884.167053,1840.370728 885.647949,1840.228027 
	C889.861145,1838.222168 894.074341,1836.216309 898.140808,1834.129639 
	C898.140808,1834.129639 898.132996,1834.296875 899.314026,1834.091553 
	C899.783447,1833.474487 900.252930,1832.857300 902.031250,1831.958374 
	C908.975159,1826.884521 916.953979,1822.765625 922.676819,1816.564819 
	C943.119873,1794.414673 956.911255,1769.350098 958.869385,1738.006348 
	C960.027649,1719.464722 957.767395,1701.805420 954.000427,1684.036377 
	C949.000977,1660.454224 943.645447,1636.947876 938.557983,1613.384033 
	C934.589294,1595.001831 930.799133,1576.581055 926.923889,1558.178711 
	C923.930908,1543.966064 920.866516,1529.768311 917.946594,1515.540649 
	C914.359497,1498.062622 911.074402,1480.520630 907.319519,1463.079468 
	C903.219910,1444.037109 898.537781,1425.119995 894.462952,1406.072632 
	C889.351807,1382.181519 884.777710,1358.175171 879.647400,1334.288330 
	C873.416077,1305.275513 866.740906,1276.358276 860.459167,1247.356079 
	C856.133850,1227.386230 852.283569,1207.313477 847.966858,1187.341675 
	C845.239624,1174.723633 846.102234,1173.035645 858.427612,1170.565796 
	C859.074646,1170.436157 859.766296,1170.532471 860.415649,1170.409668 
	C877.134216,1167.248291 893.892151,1164.274658 910.547852,1160.809570 
	C918.538330,1159.147339 926.268555,1156.255737 934.240173,1154.473267 
	C940.295837,1153.119019 946.600403,1152.911499 952.700012,1151.713745 
	C968.777527,1148.556885 984.825439,1145.239136 1000.840454,1141.778320 
	C1007.898621,1140.253052 1014.786377,1137.921021 1021.858765,1136.482910 
	C1043.021484,1132.180054 1064.262939,1128.262573 1085.417603,1123.921509 
	C1092.145996,1122.540771 1098.623779,1119.949341 1105.346313,1118.526855 
	C1125.480103,1114.266113 1145.670288,1110.268921 1165.854736,1106.250366 
	C1176.138306,1104.203247 1186.522339,1102.620239 1196.740356,1100.296509 
	C1206.644287,1098.044189 1216.352051,1094.936768 1226.235596,1092.580688 
	C1229.355347,1091.837036 1232.763916,1092.304932 1236.005249,1092.042603 
	C1236.005249,1092.042603 1235.827271,1092.063721 1236.552612,1093.429199 
	C1238.058594,1093.661621 1239.564575,1093.893921 1241.005981,1093.975586 
	C1241.005981,1093.975586 1240.853394,1094.035767 1241.696777,1095.318359 
	C1243.128540,1095.620483 1244.560181,1095.922607 1245.961670,1096.067505 
	C1245.961670,1096.067505 1245.807983,1096.111816 1246.387451,1097.394653 
	C1256.622559,1100.449585 1257.594971,1109.664551 1259.483398,1117.878296 
	C1262.144165,1129.451172 1263.915405,1141.225342 1266.348022,1152.854614 
	C1271.610840,1178.014282 1277.110840,1203.124146 1282.403809,1228.277588 
	C1287.751709,1253.692871 1292.841797,1279.162720 1298.267090,1304.561279 
	C1307.488647,1347.732178 1316.972900,1390.847046 1326.174438,1434.022339 
	C1331.665894,1459.789795 1336.745605,1485.644653 1342.162109,1511.428467 
	C1347.860229,1538.552734 1353.581177,1565.674316 1359.618530,1592.724243 
	C1361.967285,1603.247437 1365.207642,1613.571411 1367.703857,1625.422729 
	C1368.475342,1627.625000 1369.246826,1629.827148 1370.100342,1633.187744 
	C1370.634399,1634.150269 1371.168457,1635.112671 1371.773438,1637.549438 
	C1374.470215,1642.447754 1377.166992,1647.346191 1379.939819,1652.105713 
	C1379.939819,1652.105713 1379.781494,1652.106934 1379.949707,1653.434082 
	C1381.818115,1655.819702 1383.686523,1658.205322 1385.619263,1660.301758 
	C1385.619263,1660.301758 1385.324341,1660.328491 1385.624146,1661.508911 
	C1386.372437,1662.423340 1387.120728,1663.337769 1387.935669,1664.110352 
	C1387.935669,1664.110352 1387.779053,1664.109741 1388.022583,1665.332520 
	C1389.363892,1666.856934 1390.705078,1668.381348 1392.393677,1671.083374 
	C1394.172974,1672.744019 1395.952148,1674.404663 1397.994507,1677.311646 
	C1399.295288,1678.335571 1400.596069,1679.359497 1402.160034,1681.331177 
	C1403.023438,1681.591553 1403.886963,1681.852051 1405.422974,1683.306641 
	C1406.161499,1683.814941 1406.900024,1684.323242 1407.654907,1684.484985 
	C1407.654907,1684.484985 1407.321167,1684.579712 1407.915039,1685.785278 
	C1417.972656,1695.870239 1430.784546,1701.355347 1443.750732,1706.090820 
	C1452.225708,1709.186035 1461.314087,1711.352417 1470.286133,1712.147705 
	C1481.784180,1713.166870 1493.443115,1712.494873 1505.028198,1712.289795 
	C1507.081177,1712.253418 1509.111450,1710.939087 1511.597900,1710.479980 
	C1511.597900,1710.479980 1511.947754,1710.097412 1513.732544,1710.326782 
	C1518.020020,1710.138550 1522.429932,1710.534668 1526.574829,1709.666016 
	C1551.209473,1704.503540 1575.823364,1699.225830 1600.353516,1693.591553 
	C1608.547119,1691.709595 1616.473755,1688.664429 1626.128174,1686.404663 
	C1631.584595,1685.392944 1637.183105,1684.858765 1642.472778,1683.286133 
	C1664.580566,1676.714233 1686.334106,1669.526367 1707.372192,1659.553589 
	C1727.538452,1649.993896 1746.453125,1638.847900 1764.456177,1625.961792 
	C1783.103760,1612.614624 1800.103516,1597.374146 1815.456421,1580.265625 
	C1831.930664,1561.907715 1846.768799,1542.367798 1859.326294,1521.147949 
	C1874.712036,1495.148682 1886.536377,1467.608521 1895.107544,1438.602051 
	C1900.742554,1419.531982 1904.673340,1400.198120 1906.405396,1380.419312 
	C1907.127563,1372.172974 1906.185181,1363.587524 1908.133545,1355.682129 
	C1912.175049,1339.282227 1908.885376,1323.186035 1907.080200,1307.227417 
	C1904.598511,1285.287354 1900.299805,1263.519653 1896.047852,1241.821411 
	C1890.221069,1212.087036 1883.763428,1182.475464 1877.467651,1152.834229 
	C1873.703003,1135.109375 1869.665527,1117.442749 1865.871826,1099.723877 
	C1862.211670,1082.628052 1858.772583,1065.484863 1855.113159,1048.388916 
	C1852.278809,1035.147827 1849.146729,1021.970154 1846.338867,1008.723572 
	C1841.704834,986.863525 1837.028320,965.009033 1832.773315,943.073853 
	C1830.930542,933.575378 1825.533203,924.274231 1830.050781,913.988098 
	C1830.050781,913.988098 1830.170654,914.163635 1831.544434,913.541748 
	C1831.618652,912.116577 1831.692871,910.691406 1832.333618,908.718811 
	C1832.887329,908.183044 1833.440918,907.647278 1835.262207,906.569031 
	C1836.217041,905.061218 1837.171875,903.553406 1838.005737,902.006653 
	C1838.005737,902.006653 1838.071777,902.114929 1839.264526,901.632690 
	C1839.576294,900.445618 1839.888062,899.258606 1840.035400,898.032593 
	C1840.035400,898.032593 1840.145020,898.161133 1841.505371,897.878357 
	C1843.087524,894.618835 1844.669678,891.359314 1846.070557,888.093262 
	C1846.070557,888.093262 1846.200317,888.220154 1847.451294,888.301453 
	C1847.897705,887.616089 1848.344238,886.930725 1849.758301,885.359192 
	C1852.542480,879.898254 1855.326660,874.437317 1857.979736,868.994202 
	C1857.979736,868.994202 1858.003784,869.124451 1859.205688,868.458252 
	C1859.521973,867.644958 1859.838257,866.831665 1860.020020,866.016663 
	C1860.020020,866.016663 1860.089478,866.132080 1861.341309,865.452087 
	C1862.944702,861.971191 1864.547974,858.490295 1866.018066,855.016418 
	C1866.018066,855.016418 1866.083008,855.132874 1867.403198,854.424744 
	C1883.380005,823.538452 1897.537720,791.924072 1906.624756,756.643677 
	C1909.921753,741.628540 1913.503906,726.668396 1916.410278,711.578064 
	C1918.201050,702.280518 1919.143311,692.803528 1920.129517,683.371826 
	C1921.012085,674.932434 1921.432983,666.444763 1922.399902,656.549866 
	C1922.244507,655.591919 1922.088989,654.633911 1922.352783,652.940369 
	C1922.174438,651.631592 1921.995972,650.322815 1922.209229,647.490906 
	C1922.181519,646.967346 1922.153687,646.443848 1921.967041,646.014648 
	C1921.967041,646.014648 1922.056641,646.176208 1923.064941,645.877991 
	C1923.235718,645.230286 1923.406372,644.582642 1924.214111,642.165649 
	C1924.092041,628.775635 1923.969971,615.385681 1923.729248,600.324585 
	C1923.291016,598.430420 1922.432983,596.526306 1922.477905,594.643677 
	C1923.098389,568.655029 1918.817993,543.250366 1913.752808,516.343323 
	C1909.045044,498.580719 1905.101440,480.571136 1899.457886,463.110992 
	C1890.027954,433.936401 1877.233887,406.069611 1863.086792,378.905609 
	C1858.455566,370.013245 1851.813721,362.168091 1846.035156,353.973694 
	C1846.035156,353.973694 1846.176270,353.964081 1846.146729,352.505829 
	C1840.145874,343.621124 1834.145020,334.736420 1828.019775,326.009003 
	C1828.019775,326.009003 1828.169189,325.872711 1828.128174,324.461273 
	C1813.098145,302.475433 1795.443481,282.688721 1777.031860,263.541260 
	C1755.083008,240.715317 1730.380859,221.119263 1704.456665,203.131470 
	C1689.811401,192.969757 1674.800293,183.006546 1658.903931,175.052673 
	C1633.948120,162.565674 1608.984619,149.792145 1580.736816,141.251556 
	C1556.981201,133.604889 1533.273438,125.746315 1508.461670,122.136597 
	C1502.376221,121.251266 1496.200684,120.983994 1488.587036,120.103592 
	C1485.728760,119.482803 1482.870483,118.862015 1478.320557,117.700432 
	C1465.454224,116.992683 1452.585571,116.326576 1439.722900,115.556961 
	C1434.490234,115.243874 1429.270996,114.705864 1422.324097,113.716042 
	C1417.535889,113.843567 1412.747803,113.971100 1406.645264,113.849197 
	C1405.076782,114.489624 1403.508179,115.130051 1400.081665,115.660851 
	C1395.133667,115.640846 1390.185303,115.571716 1385.237793,115.612991 
	C1378.719849,115.667374 1372.057007,114.667656 1365.010132,117.794571 
	C1365.010132,117.794571 1364.057007,118.054863 1362.555176,117.644119 
	C1361.020874,117.806808 1359.486572,117.969505 1356.276733,117.992355 
	C1352.083374,118.679871 1347.886108,119.344627 1343.697510,120.059937 
	C1336.393799,121.307266 1329.095459,122.585716 1320.137085,124.021233 
	C1318.145386,124.107788 1316.057983,123.835655 1314.177124,124.337532 
	C1298.735474,128.457703 1283.286743,132.564270 1267.926270,136.974136 
	C1232.836548,147.048065 1200.468018,163.436432 1168.403198,180.447342 
	C1165.136230,182.180511 1162.613647,185.316498 1159.907349,187.866791 
	C1159.907349,187.866791 1159.867798,187.696930 1158.432007,187.332947 
	C1154.242432,190.180817 1150.052979,193.028671 1145.993164,195.988052 
	C1145.993164,195.988052 1145.908325,195.839401 1144.484741,195.949036 
	C1134.252441,203.127930 1124.020142,210.306839 1112.662354,217.822327 
	C1112.368652,218.458603 1112.074829,219.094879 1111.942871,219.916138 
	C1111.942871,219.916138 1111.791382,219.747070 1110.444702,219.652542 
	C1108.245239,221.715744 1106.045654,223.778931 1103.963379,226.004532 
	C1103.963379,226.004532 1103.865479,225.838867 1102.502441,226.119308 
	C1098.897339,228.848679 1095.358276,231.671494 1091.666016,234.277344 
	C1088.798950,236.300812 1085.850342,238.536850 1081.097290,235.764450 
	C1080.713013,235.815765 1080.328735,235.867096 1079.465942,235.459824 
	C1079.465942,235.459824 1078.880249,235.770050 1078.240356,234.470703 
	C1071.048584,230.754761 1064.061279,226.551117 1056.619873,223.430313 
	C1043.496582,217.926605 1030.359985,212.242599 1014.782043,210.067459 
	C1013.916870,209.934235 1013.051636,209.801010 1011.495117,208.174515 
	C1005.368469,206.811142 999.296631,205.062592 993.101318,204.182404 
	C985.450867,203.095505 977.697876,202.730469 969.250000,201.667297 
	C969.250000,201.667297 968.442383,201.875488 967.348145,200.631516 
	C956.203857,199.623795 945.074036,198.014572 933.911926,197.745071 
	C915.796814,197.307709 897.823364,198.305573 879.754761,201.252258 
	C861.326050,204.257675 842.800659,206.307968 825.083130,212.502884 
	C818.999146,214.630081 813.117310,217.335358 806.533386,219.477066 
	C806.533386,219.477066 806.044189,219.948349 804.642395,219.664764 
	C802.982056,220.373764 801.321716,221.082748 799.843262,221.865433 
	C799.843262,221.865433 799.882324,221.673111 798.366150,221.633911 
	C793.566589,223.762070 788.766968,225.890228 782.627991,228.084000 
	C781.089905,228.899384 779.551758,229.714767 776.569031,230.398956 
	C768.233398,234.831726 759.897827,239.264481 751.742432,243.750381 
	C751.742432,243.750381 751.729126,243.563004 750.419617,243.904663 
	C747.550171,245.903854 744.680725,247.903030 741.953186,249.958694 
	C741.953186,249.958694 741.913757,249.811188 740.587646,250.075409 
	C737.642700,252.004333 734.697815,253.933258 731.892273,255.937500 
	C731.892273,255.937500 731.891418,255.779037 730.633057,256.021484 
	C728.966553,257.316315 727.300049,258.611145 724.743591,259.911682 
	C724.098572,260.149567 723.785767,260.612091 722.572266,261.761932 
	C720.946411,263.149078 719.320496,264.536194 716.794495,266.030334 
	C716.149048,266.287109 715.833008,266.762756 714.494080,267.823975 
	C709.605286,271.871826 704.716492,275.919708 698.753296,280.231903 
	C697.784119,281.301270 696.814941,282.370605 694.715393,283.838318 
	C694.348267,284.528931 693.981079,285.219543 692.745667,286.054871 
	C692.121704,286.312561 691.822021,286.778748 690.539795,287.915497 
	C682.193909,296.496185 673.848022,305.076843 665.754700,313.706329 
	C665.754700,313.706329 665.731934,313.450134 664.658936,313.891571 
	C664.314880,314.565369 663.970764,315.239197 662.754578,316.050659 
	C662.128052,316.307495 661.825928,316.774292 660.716370,317.841644 
	C660.390930,318.542969 660.065552,319.244324 658.709351,320.441956 
	C657.816345,321.640778 656.923340,322.839630 654.820740,324.561432 
	C653.034058,326.990753 651.247375,329.420074 648.375549,332.450012 
	C646.174866,335.360870 643.974182,338.271698 640.592773,341.674866 
	C639.586609,343.033051 638.580383,344.391235 637.758789,345.812317 
	C637.758789,345.812317 637.768066,345.617554 636.534241,345.912872 
	C635.624512,347.261261 634.714783,348.609619 632.922180,350.397705 
	C632.450439,350.888702 632.161682,351.470551 630.914062,352.377472 
	C630.040344,353.614899 629.166626,354.852356 627.090576,356.634247 
	C624.737061,359.768738 622.383606,362.903229 618.861572,366.525604 
	C617.790833,368.318573 616.720093,370.111572 614.770813,372.048584 
	C614.139893,372.306549 613.832886,372.776245 612.717468,373.843628 
	C612.389648,374.543793 612.061829,375.243927 610.674561,376.497406 
	C609.039429,378.621460 607.404358,380.745514 604.534790,383.490601 
	C603.571838,384.961334 602.608826,386.432068 600.553284,388.273193 
	C599.712402,389.531189 598.871521,390.789185 596.874451,392.519348 
	C596.297302,393.616272 595.720154,394.713196 594.385559,395.883850 
	C593.872559,396.170959 593.670227,396.603424 592.627014,397.656555 
	C592.188293,398.340149 591.749573,399.023712 591.725037,399.729706 
z"/>
<path fill="#D3E5F2" opacity="1.000000" stroke="none" 
	d="
M1012.186462,209.667786 
	C1013.051636,209.801010 1013.916870,209.934235 1015.624390,210.969589 
	C1018.122192,212.821411 1019.687317,214.005249 1021.447205,214.684418 
	C1038.355469,221.209915 1055.286377,227.677368 1072.241211,234.080948 
	C1074.364014,234.882690 1076.662964,235.218414 1078.880249,235.770050 
	C1078.880249,235.770050 1079.465942,235.459824 1079.912598,236.095245 
	C1080.680664,237.269455 1081.129272,237.663254 1082.285278,238.324982 
	C1083.292236,240.533371 1083.718994,242.328857 1083.767334,244.674240 
	C1070.009521,258.651245 1056.345703,271.808807 1043.307007,285.559113 
	C1011.882080,318.699158 987.228149,356.653442 966.780334,397.251343 
	C943.880981,442.716553 928.369263,490.715454 920.177612,541.079041 
	C915.783936,568.092285 912.669006,595.323975 913.116028,622.538879 
	C913.551819,649.066162 916.502686,675.676392 920.149902,702.000732 
	C927.670532,756.281860 945.541016,807.381348 971.347778,855.633850 
	C1002.481750,913.847229 1043.314331,964.329346 1093.891724,1006.815125 
	C1134.237671,1040.706177 1179.035645,1067.273682 1227.638916,1087.524048 
	C1230.580566,1088.749634 1233.246216,1090.638184 1236.040283,1092.218262 
	C1232.763916,1092.304932 1229.355347,1091.837036 1226.235596,1092.580688 
	C1216.352051,1094.936768 1206.644287,1098.044189 1196.740356,1100.296509 
	C1186.522339,1102.620239 1176.138306,1104.203247 1165.854736,1106.250366 
	C1145.670288,1110.268921 1125.480103,1114.266113 1105.346313,1118.526855 
	C1098.623779,1119.949341 1092.145996,1122.540771 1085.417603,1123.921509 
	C1064.262939,1128.262573 1043.021484,1132.180054 1021.858765,1136.482910 
	C1014.786377,1137.921021 1007.898621,1140.253052 1000.840454,1141.778320 
	C984.825439,1145.239136 968.777527,1148.556885 952.700012,1151.713745 
	C946.600403,1152.911499 940.295837,1153.119019 934.240173,1154.473267 
	C926.268555,1156.255737 918.538330,1159.147339 910.547852,1160.809570 
	C893.892151,1164.274658 877.134216,1167.248291 860.415649,1170.409668 
	C859.766296,1170.532471 859.074646,1170.436157 858.427612,1170.565796 
	C846.102234,1173.035645 845.239624,1174.723633 847.966858,1187.341675 
	C852.283569,1207.313477 856.133850,1227.386230 860.459167,1247.356079 
	C866.740906,1276.358276 873.416077,1305.275513 879.647400,1334.288330 
	C884.777710,1358.175171 889.351807,1382.181519 894.462952,1406.072632 
	C898.537781,1425.119995 903.219910,1444.037109 907.319519,1463.079468 
	C911.074402,1480.520630 914.359497,1498.062622 917.946594,1515.540649 
	C920.866516,1529.768311 923.930908,1543.966064 926.923889,1558.178711 
	C930.799133,1576.581055 934.589294,1595.001831 938.557983,1613.384033 
	C943.645447,1636.947876 949.000977,1660.454224 954.000427,1684.036377 
	C957.767395,1701.805420 960.027649,1719.464722 958.869385,1738.006348 
	C956.911255,1769.350098 943.119873,1794.414673 922.676819,1816.564819 
	C916.953979,1822.765625 908.975159,1826.884521 900.823975,1832.267212 
	C899.122131,1833.149658 898.627563,1833.723267 898.132996,1834.296875 
	C898.132996,1834.296875 898.140808,1834.129639 897.459229,1834.121582 
	C892.574158,1836.199219 888.370605,1838.284912 884.167053,1840.370728 
	C884.167053,1840.370728 884.198486,1840.200073 883.549805,1840.166992 
	C879.018616,1840.382080 875.387695,1841.056763 873.934875,1845.423462 
	C873.061768,1845.548462 872.188660,1845.673340 870.244019,1845.399292 
	C865.909058,1843.175781 863.863708,1844.995483 862.011719,1847.393677 
	C861.188965,1847.587402 860.366150,1847.781128 858.051514,1848.001343 
	C845.035706,1850.682861 833.511719,1853.338013 821.987793,1855.993164 
	C821.280457,1856.158447 820.573120,1856.323853 818.455933,1856.332764 
	C805.843994,1858.417236 794.634460,1860.622925 783.458862,1862.989258 
	C782.812988,1863.125977 782.443481,1864.567383 781.945312,1865.401611 
	C781.080017,1865.563721 780.214661,1865.725708 778.134949,1865.614014 
	C769.781006,1866.627075 762.626953,1867.838257 755.504578,1869.214111 
	C730.493774,1874.045776 705.372559,1878.169189 679.817871,1877.942993 
	C664.610291,1877.808472 649.342468,1877.401733 634.227112,1875.875488 
	C618.493835,1874.287109 602.667908,1872.210693 587.330750,1868.496216 
	C571.597412,1864.686035 556.426819,1858.572754 540.965576,1853.605347 
	C536.594421,1852.200928 532.067993,1851.279907 527.612732,1850.137085 
	C527.612732,1850.137085 526.735352,1850.143311 526.080505,1849.518066 
	C524.949951,1848.427246 524.381287,1848.158447 523.719666,1848.086304 
	C523.719666,1848.086304 522.817322,1848.007202 522.242554,1847.110840 
	C517.236450,1843.541748 513.421021,1839.311890 507.429871,1840.582642 
	C507.429871,1840.582642 507.739044,1840.340210 507.451660,1839.791138 
	C505.094849,1838.284180 503.025452,1837.326172 500.956055,1836.368286 
	C500.956055,1836.368286 500.409149,1836.571899 499.841858,1835.880127 
	C498.540375,1834.895264 497.806183,1834.601929 497.071991,1834.308716 
	C497.071991,1834.308716 496.484619,1834.508545 496.093811,1833.602295 
	C493.700867,1831.830688 491.698730,1830.965210 489.696594,1830.099731 
	C489.696594,1830.099731 488.781036,1829.987427 488.386841,1829.296753 
	C487.311981,1828.419312 486.631348,1828.232544 485.950745,1828.045654 
	C484.827881,1827.732178 483.705017,1827.418701 482.154633,1825.930176 
	C480.286682,1824.019287 478.846283,1823.283203 477.405884,1822.547119 
	C477.405884,1822.547119 477.636780,1822.424561 477.424622,1821.852905 
	C475.251251,1820.422974 473.290070,1819.564697 471.328857,1818.706299 
	C471.328888,1818.706299 471.710571,1818.422974 471.366150,1817.987305 
	C469.857391,1817.091431 468.693085,1816.631104 467.528748,1816.170776 
	C465.807037,1815.268677 464.085327,1814.366577 462.036316,1812.210571 
	C459.779175,1809.984497 457.849274,1809.012207 455.919373,1808.039795 
	C455.919373,1808.039917 455.993927,1807.990112 455.732849,1807.580566 
	C454.895844,1806.805664 454.319916,1806.440186 453.743958,1806.074707 
	C453.093048,1805.984863 452.587433,1805.665161 451.966492,1803.996582 
	C450.244843,1802.152100 448.783752,1801.426880 447.322662,1800.701660 
	C447.322662,1800.701660 447.765259,1800.332275 447.410767,1799.945801 
	C445.941162,1799.109741 444.826080,1798.660156 443.710999,1798.210693 
	C443.710999,1798.210571 443.858398,1798.128906 443.627930,1797.734131 
	C442.809937,1796.963989 442.222443,1796.588623 441.634949,1796.213379 
	C441.634949,1796.213379 441.813507,1796.192993 441.762177,1795.547363 
	C440.919067,1790.467285 437.609283,1789.983398 433.992035,1789.981689 
	C433.275299,1789.373413 432.558502,1788.765137 431.590393,1787.052490 
	C430.647919,1785.502075 429.956757,1785.056030 429.265625,1784.610107 
	C429.265594,1784.610107 429.490082,1784.549316 429.305481,1784.060059 
	C428.064636,1783.046143 427.008423,1782.521606 425.952209,1781.997070 
	C425.302917,1781.928955 424.754608,1781.657227 423.850586,1780.265137 
	C422.781128,1778.949829 422.168396,1778.551147 421.555725,1778.152344 
	C418.549744,1775.227173 415.543732,1772.302124 412.050232,1768.342285 
	C411.059113,1766.857422 410.555450,1766.407227 410.051819,1765.957031 
	C409.522888,1765.574463 409.040558,1765.140137 408.290466,1763.551758 
	C406.538269,1761.040894 405.100372,1759.632202 403.662476,1758.223633 
	C403.662476,1758.223633 403.854340,1758.173950 403.768860,1757.587646 
	C402.361359,1756.059814 401.039368,1755.118286 399.717407,1754.176758 
	C399.717377,1754.176758 399.912018,1754.140137 399.830200,1753.561768 
	C398.926819,1752.070923 398.105286,1751.158325 397.283752,1750.245850 
	C389.376892,1740.048828 380.556274,1730.422974 373.751068,1719.537354 
	C359.008057,1695.954468 345.354095,1671.531616 337.721710,1644.652100 
	C330.065979,1617.690796 324.247589,1590.203125 317.808167,1562.902832 
	C314.851776,1550.369141 312.302460,1537.738525 309.628052,1525.139282 
	C305.586548,1506.099854 301.694977,1487.027954 297.557617,1468.009644 
	C293.487885,1449.301880 289.010864,1430.681641 285.044159,1411.952759 
	C281.008881,1392.899902 277.436310,1373.749634 273.548767,1354.664917 
	C271.174408,1343.008667 268.628723,1331.386719 266.088257,1319.765137 
	C261.508209,1298.812988 256.748993,1277.899048 252.292175,1256.920898 
	C245.499115,1224.946045 238.937408,1192.922241 232.208221,1160.933716 
	C224.457764,1124.090454 216.091400,1087.365234 209.082047,1050.382446 
	C205.893570,1033.559204 205.680862,1016.193359 203.475815,999.156799 
	C200.844666,978.827881 204.043533,958.823669 206.267899,938.818665 
	C209.727707,907.702454 218.821243,878.006836 231.051361,849.238831 
	C246.108307,813.821594 266.836700,782.016846 291.714691,752.744446 
	C314.040894,726.474609 335.947876,699.848938 358.145050,673.468750 
	C366.879272,663.088562 376.003265,653.036743 384.769196,642.682617 
	C411.973206,610.549805 439.070343,578.326477 466.248413,546.171631 
	C484.901581,524.102722 503.616180,502.085754 522.312317,480.053131 
	C528.971252,472.205841 535.656433,464.380798 543.399353,455.960449 
	C544.948792,454.800964 545.428467,454.226562 545.908203,453.652161 
	C549.390015,449.268921 552.871826,444.885651 557.625488,440.104004 
	C559.941162,437.814270 560.984924,435.922943 562.028687,434.031586 
	C566.108582,428.837524 570.188477,423.643463 575.368286,417.912292 
	C576.946350,416.795654 577.424561,416.216125 577.902832,415.636597 
	C577.876282,414.994751 578.110352,414.468872 579.736633,413.891907 
	C581.940735,411.905121 583.013245,410.085358 584.085693,408.265625 
	C584.356506,407.653534 584.627380,407.041443 585.818298,405.864288 
	C587.095459,404.630707 587.452576,403.962189 587.809692,403.293640 
	C587.710144,402.683044 587.929565,402.225311 589.407959,401.603882 
	C590.790405,400.630798 591.232788,399.974335 591.675171,399.317871 
	C591.675171,399.317871 591.725037,399.729706 592.081055,399.464722 
	C592.884338,398.526886 593.331482,397.854065 593.778625,397.181244 
	C593.670227,396.603424 593.872559,396.170959 595.347168,395.591675 
	C596.882751,394.215424 597.456726,393.131287 598.030640,392.047180 
	C598.871521,390.789185 599.712402,389.531189 601.835876,387.961365 
	C604.002075,386.056213 604.885681,384.462891 605.769287,382.869568 
	C607.404358,380.745514 609.039429,378.621460 611.678711,375.922455 
	C613.071838,374.717560 613.460876,374.087616 613.849854,373.457642 
	C613.832886,372.776245 614.139893,372.306549 615.909790,371.886261 
	C618.042542,369.828522 619.036316,367.933136 620.030151,366.037720 
	C622.383606,362.903229 624.737061,359.768738 628.269226,356.195984 
	C630.317261,354.552856 631.186584,353.348022 632.055908,352.143188 
	C632.161682,351.470551 632.450439,350.888702 634.035461,350.078186 
	C636.021851,348.378326 636.894958,346.997925 637.768066,345.617554 
	C637.768066,345.617554 637.758789,345.812317 638.384155,345.694824 
	C639.930847,344.112396 640.852234,342.647491 641.773560,341.182556 
	C643.974182,338.271698 646.174866,335.360870 649.657349,332.108734 
	C655.446533,331.042297 655.987366,327.704346 656.030396,324.038483 
	C656.923340,322.839630 657.816345,321.640778 659.697693,319.893127 
	C661.073425,318.713196 661.460815,318.082123 661.848206,317.451019 
	C661.825928,316.774292 662.128052,316.307495 663.670166,315.694702 
	C664.967834,314.709198 665.349854,314.079651 665.731934,313.450134 
	C665.731934,313.450134 665.754700,313.706329 666.346008,313.703186 
	C675.129517,305.923218 683.346924,298.172302 691.457581,290.311310 
	C692.000549,289.785065 691.735779,288.425446 691.846619,287.453400 
	C691.822021,286.778748 692.121704,286.312561 693.673828,285.693481 
	C695.016602,284.701355 695.431152,284.070648 695.845703,283.439941 
	C696.814941,282.370605 697.784119,281.301270 700.036621,280.091614 
	C707.741516,277.622986 714.111633,275.234863 715.846375,267.457275 
	C715.833008,266.762756 716.149048,266.287109 718.007935,265.964966 
	C722.326538,265.937714 723.826782,264.376709 723.805054,261.299255 
	C723.785767,260.612091 724.098572,260.149567 725.927246,259.892639 
	C729.984497,260.003357 731.747253,258.836090 731.891418,255.779037 
	C731.891418,255.779037 731.892273,255.937500 732.575684,255.900238 
	C737.362854,255.588760 741.125549,254.826889 741.913757,249.811188 
	C741.913757,249.811188 741.953186,249.958694 742.639404,249.921875 
	C747.350220,249.403961 751.394104,248.948502 751.729126,243.563004 
	C751.729126,243.563004 751.742432,243.750381 752.434326,243.783813 
	C762.475464,241.361374 771.437866,238.180908 778.013672,230.530151 
	C779.551758,229.714767 781.089905,228.899384 783.744202,228.506226 
	C790.569946,227.963959 796.439880,227.331528 799.882324,221.673111 
	C799.882324,221.673111 799.843262,221.865433 800.461182,221.846863 
	C802.734070,221.201660 804.389160,220.574997 806.044189,219.948334 
	C806.044189,219.948349 806.533386,219.477066 807.688110,219.659515 
	C813.983826,218.627762 819.199036,217.662857 824.253540,216.158173 
	C853.244446,207.527847 882.653992,201.737610 913.072693,201.884842 
	C919.308655,201.915024 925.557861,200.184570 931.787598,200.267776 
	C944.010864,200.431091 956.224670,201.299103 968.442383,201.875488 
	C968.442383,201.875488 969.250000,201.667297 970.165527,202.382919 
	C983.654175,205.793671 996.217712,208.536697 1008.819397,211.091095 
	C1009.805054,211.290894 1011.057861,210.173172 1012.186462,209.667786 
z"/>
<path fill="#2DA0DF" opacity="1.000000" stroke="none" 
	d="
M1236.022705,1092.130371 
	C1233.246216,1090.638184 1230.580566,1088.749634 1227.638916,1087.524048 
	C1179.035645,1067.273682 1134.237671,1040.706177 1093.891724,1006.815125 
	C1043.314331,964.329346 1002.481750,913.847229 971.347778,855.633850 
	C945.541016,807.381348 927.670532,756.281860 920.149902,702.000732 
	C916.502686,675.676392 913.551819,649.066162 913.116028,622.538879 
	C912.669006,595.323975 915.783936,568.092285 920.177612,541.079041 
	C928.369263,490.715454 943.880981,442.716553 966.780334,397.251343 
	C987.228149,356.653442 1011.882080,318.699158 1043.307007,285.559113 
	C1056.345703,271.808807 1070.009521,258.651245 1084.412109,244.508957 
	C1090.123291,240.140610 1095.000244,236.697845 1099.413452,232.738251 
	C1101.378784,230.974884 1102.410156,228.170639 1103.865479,225.838852 
	C1103.865479,225.838867 1103.963379,226.004532 1104.601318,226.244507 
	C1108.584961,225.368362 1112.069458,224.387283 1111.791382,219.747070 
	C1111.791382,219.747070 1111.942871,219.916138 1112.380005,220.109528 
	C1113.208740,220.255753 1113.600342,220.208588 1114.630127,219.900284 
	C1124.273926,213.449448 1133.344849,207.350739 1142.225952,200.987350 
	C1143.849487,199.824097 1144.700684,197.582977 1145.908325,195.839417 
	C1145.908325,195.839401 1145.993164,195.988052 1146.631592,196.229065 
	C1152.419678,194.910492 1157.402100,193.110641 1159.867798,187.696930 
	C1159.867798,187.696930 1159.907349,187.866791 1160.558838,187.988647 
	C1169.749023,183.644180 1178.288696,179.179581 1186.826538,174.711243 
	C1231.997681,151.070679 1279.840942,135.230286 1330.691162,125.777252 
	C1340.374878,124.283928 1349.217163,122.723320 1358.852539,121.155952 
	C1361.214111,120.927101 1362.782715,120.704994 1364.722046,120.528122 
	C1365.092896,120.573341 1365.808716,120.359047 1366.293945,120.394547 
	C1366.779053,120.430046 1367.744263,120.306763 1368.152344,120.565536 
	C1369.710083,120.558113 1370.859619,120.291924 1372.908447,120.007133 
	C1383.187256,119.227386 1392.566772,118.466248 1402.729980,117.828438 
	C1405.070312,117.735138 1406.627075,117.518501 1409.047852,117.397202 
	C1414.546753,117.396812 1419.181641,117.301094 1424.717285,117.453537 
	C1439.668091,118.539291 1453.718262,119.376869 1468.049072,120.444733 
	C1469.008667,120.577042 1469.687378,120.479057 1471.193604,120.488609 
	C1474.781494,120.898613 1477.542114,121.201088 1480.895020,121.749893 
	C1485.621460,122.536957 1489.755371,123.077698 1494.598755,123.775978 
	C1496.756348,124.020004 1498.204590,124.106491 1499.936035,124.408264 
	C1500.219116,124.623535 1500.877808,124.857246 1500.877808,124.857246 
	C1500.877808,124.857246 1501.556274,124.691696 1502.294800,124.931152 
	C1504.058716,125.285454 1505.084106,125.400307 1506.553833,125.667564 
	C1506.998169,125.819977 1507.937134,125.785812 1508.664673,125.933990 
	C1511.363281,126.138321 1513.334229,126.194481 1515.651733,126.626984 
	C1516.630371,127.209229 1517.262695,127.415146 1518.661987,127.833855 
	C1540.143311,133.689758 1560.857422,139.332870 1582.113281,145.399475 
	C1584.177368,146.492279 1585.663696,147.265030 1587.227905,147.816040 
	C1658.818604,173.034546 1721.082275,213.096985 1774.302368,266.954773 
	C1791.103516,283.957184 1805.847168,302.988220 1821.655884,320.982208 
	C1823.410034,322.978790 1825.978394,324.259827 1828.169189,325.872711 
	C1828.169189,325.872711 1828.019775,326.009003 1827.774292,326.632599 
	C1832.389038,337.105286 1837.513062,346.770233 1846.176270,353.964081 
	C1846.176270,353.964081 1846.035156,353.973694 1845.907715,354.645203 
	C1846.715576,357.403534 1847.436768,359.621277 1848.619141,361.557343 
	C1864.393188,387.385529 1876.892212,414.792969 1888.244263,442.785492 
	C1897.871216,466.523865 1904.189697,491.226257 1910.273071,516.809448 
	C1912.772095,532.671265 1916.346313,547.645081 1917.578491,562.809204 
	C1919.407227,585.313782 1919.532959,607.955017 1920.494507,630.533325 
	C1920.661377,634.453369 1921.375000,638.350098 1921.876465,642.622437 
	C1921.917236,642.987305 1922.188232,643.669739 1922.106689,644.293823 
	C1922.035645,645.337280 1922.046143,645.756714 1922.056641,646.176208 
	C1922.056641,646.176208 1921.967041,646.014648 1921.555664,646.554810 
	C1920.860229,650.731079 1920.576050,654.367126 1920.164795,658.868103 
	C1917.621582,677.506348 1915.593140,695.343689 1912.670898,713.033447 
	C1910.181519,728.102295 1906.663574,743.001221 1903.313477,758.632141 
	C1894.368774,789.623291 1881.923828,818.429810 1867.987183,846.653076 
	C1866.740601,849.177551 1866.689453,852.292297 1866.083008,855.132874 
	C1866.083008,855.132874 1866.018066,855.016418 1865.350098,855.222351 
	C1863.151245,858.996216 1861.620361,862.564148 1860.089355,866.132080 
	C1860.089478,866.132080 1860.020020,866.016663 1859.407959,866.227783 
	C1858.531738,867.334106 1858.267700,868.229248 1858.003784,869.124451 
	C1858.003784,869.124451 1857.979736,868.994202 1857.370117,869.276733 
	C1853.160522,875.033752 1849.560425,880.508301 1845.908691,886.554077 
	C1845.971436,887.490356 1846.085938,887.855286 1846.200317,888.220154 
	C1846.200317,888.220154 1846.070557,888.093262 1845.464111,888.237793 
	C1842.161987,891.099854 1839.045776,893.614685 1840.145020,898.161133 
	C1840.145020,898.161133 1840.035400,898.032593 1839.428711,898.162964 
	C1838.571899,899.567200 1838.321899,900.841064 1838.071777,902.114929 
	C1838.071777,902.114929 1838.005737,902.006653 1837.289429,901.982544 
	C1835.713623,903.676208 1834.854126,905.393860 1833.994629,907.111572 
	C1833.440918,907.647278 1832.887329,908.183044 1831.459717,909.443115 
	C1830.447510,911.499512 1830.309082,912.831543 1830.170654,914.163635 
	C1830.170654,914.163635 1830.050781,913.988098 1829.444824,913.764893 
	C1827.447266,914.920532 1825.768433,916.108521 1824.706909,917.706543 
	C1805.185669,947.095215 1780.700684,972.203247 1754.707642,995.586426 
	C1705.650146,1039.718506 1649.824951,1073.040283 1587.693970,1095.673950 
	C1546.427490,1110.707031 1503.822510,1120.193237 1460.204102,1123.470215 
	C1426.371582,1126.012085 1392.214844,1126.473877 1358.429199,1121.569214 
	C1323.486572,1116.496582 1288.721924,1110.343506 1255.448364,1097.823364 
	C1252.445435,1096.693481 1249.031250,1096.656372 1245.807983,1096.111816 
	C1245.807983,1096.111816 1245.961670,1096.067505 1245.746948,1095.366089 
	C1243.972656,1094.455078 1242.412964,1094.245361 1240.853394,1094.035767 
	C1240.853394,1094.035767 1241.005981,1093.975586 1240.638672,1093.385742 
	C1238.790039,1092.551880 1237.308594,1092.307739 1235.827271,1092.063721 
	C1235.827271,1092.063721 1236.005249,1092.042603 1236.022705,1092.130371 
M1330.351074,842.885376 
	C1329.471558,862.045288 1333.581421,879.781738 1344.189209,896.080444 
	C1374.566650,942.754822 1438.966431,949.874146 1478.418335,910.666382 
	C1495.552368,893.638428 1504.383789,873.052490 1504.390259,848.827148 
	C1504.402100,804.503845 1504.341919,760.180603 1504.348389,715.857300 
	C1504.348877,712.001587 1504.620239,708.145874 1504.797974,703.440186 
	C1509.659058,703.440186 1513.276245,703.439209 1516.893311,703.440369 
	C1560.216919,703.453735 1603.541504,703.296631 1646.863647,703.555115 
	C1667.662720,703.679260 1686.261230,697.800049 1702.691772,685.153870 
	C1729.867920,664.237183 1741.920044,636.565735 1736.546631,602.732361 
	C1729.471313,558.183411 1693.785889,528.729431 1648.268433,528.582581 
	C1604.612305,528.441711 1560.954956,528.615051 1517.298218,528.649536 
	C1513.401733,528.652588 1509.505371,528.649902 1504.825195,528.649902 
	C1504.625732,524.180786 1504.355103,520.941040 1504.355835,517.701233 
	C1504.365479,472.711395 1504.478882,427.721436 1504.374390,382.731934 
	C1504.359863,376.447815 1504.096191,369.978485 1502.631348,363.912872 
	C1490.737793,314.664062 1442.385254,286.226898 1393.335938,299.352203 
	C1357.364990,308.977875 1330.677002,343.003998 1330.454468,380.357513 
	C1330.184448,425.679108 1330.395508,471.003540 1330.361816,516.326721 
	C1330.358887,520.182617 1330.079102,524.038269 1329.895508,528.717346 
	C1325.066528,528.717346 1321.451294,528.719666 1317.836060,528.716980 
	C1274.512451,528.684631 1231.188354,528.506775 1187.865601,528.674866 
	C1163.286621,528.770203 1141.724976,536.416992 1123.564697,553.870483 
	C1093.750977,582.523743 1093.105103,623.656616 1103.857544,649.900818 
	C1116.731689,681.323425 1149.931763,703.176453 1184.109497,703.243774 
	C1228.765991,703.331726 1273.422852,703.282715 1318.079468,703.341492 
	C1321.916016,703.346497 1325.752197,703.717468 1330.357056,703.958740 
	C1330.357056,750.380920 1330.357056,795.649353 1330.351074,842.885376 
z"/>
<path fill="#D2E5F2" opacity="1.000000" stroke="none" 
	d="
M1246.097656,1096.753174 
	C1249.031250,1096.656372 1252.445435,1096.693481 1255.448364,1097.823364 
	C1288.721924,1110.343506 1323.486572,1116.496582 1358.429199,1121.569214 
	C1392.214844,1126.473877 1426.371582,1126.012085 1460.204102,1123.470215 
	C1503.822510,1120.193237 1546.427490,1110.707031 1587.693970,1095.673950 
	C1649.824951,1073.040283 1705.650146,1039.718506 1754.707642,995.586426 
	C1780.700684,972.203247 1805.185669,947.095215 1824.706909,917.706543 
	C1825.768433,916.108521 1827.447266,914.920532 1829.515625,913.849548 
	C1825.533203,924.274231 1830.930542,933.575378 1832.773315,943.073853 
	C1837.028320,965.009033 1841.704834,986.863525 1846.338867,1008.723572 
	C1849.146729,1021.970154 1852.278809,1035.147827 1855.113159,1048.388916 
	C1858.772583,1065.484863 1862.211670,1082.628052 1865.871826,1099.723877 
	C1869.665527,1117.442749 1873.703003,1135.109375 1877.467651,1152.834229 
	C1883.763428,1182.475464 1890.221069,1212.087036 1896.047852,1241.821411 
	C1900.299805,1263.519653 1904.598511,1285.287354 1907.080200,1307.227417 
	C1908.885376,1323.186035 1912.175049,1339.282227 1908.133545,1355.682129 
	C1906.185181,1363.587524 1907.127563,1372.172974 1906.405396,1380.419312 
	C1904.673340,1400.198120 1900.742554,1419.531982 1895.107544,1438.602051 
	C1886.536377,1467.608521 1874.712036,1495.148682 1859.326294,1521.147949 
	C1846.768799,1542.367798 1831.930664,1561.907715 1815.456421,1580.265625 
	C1800.103516,1597.374146 1783.103760,1612.614624 1764.456177,1625.961792 
	C1746.453125,1638.847900 1727.538452,1649.993896 1707.372192,1659.553589 
	C1686.334106,1669.526367 1664.580566,1676.714233 1642.472778,1683.286133 
	C1637.183105,1684.858765 1631.584595,1685.392944 1624.442139,1686.250488 
	C1619.816650,1686.403320 1616.822632,1686.451660 1613.946289,1687.058105 
	C1589.746338,1692.160156 1565.542603,1697.250732 1541.395020,1702.593018 
	C1531.509644,1704.780029 1521.759399,1707.577637 1511.947754,1710.097412 
	C1511.947754,1710.097412 1511.597900,1710.479980 1510.355713,1710.285645 
	C1501.126465,1710.059204 1493.135742,1710.177368 1485.153442,1709.966919 
	C1460.081787,1709.305908 1436.677490,1703.518433 1416.389282,1687.791992 
	C1413.982544,1685.926392 1410.373169,1685.612671 1407.321167,1684.579712 
	C1407.321167,1684.579712 1407.654907,1684.484985 1407.359131,1684.028076 
	C1406.292236,1683.084839 1405.521362,1682.598633 1404.750366,1682.112427 
	C1403.886963,1681.852051 1403.023438,1681.591553 1401.961182,1680.172363 
	C1400.418701,1678.030884 1399.075073,1677.048096 1397.731445,1676.065308 
	C1395.952148,1674.404663 1394.172974,1672.744019 1392.159424,1669.794678 
	C1390.543213,1667.040527 1389.161133,1665.575195 1387.779053,1664.109741 
	C1387.779053,1664.109741 1387.935669,1664.110352 1387.823975,1663.546143 
	C1386.916260,1662.097412 1386.120361,1661.212891 1385.324341,1660.328491 
	C1385.324341,1660.328491 1385.619263,1660.301758 1385.632324,1659.710205 
	C1385.088623,1655.612183 1384.102539,1652.465088 1379.781494,1652.106934 
	C1379.781494,1652.106934 1379.939819,1652.105713 1379.902100,1651.414185 
	C1378.785034,1644.925537 1377.254883,1639.379761 1371.702637,1636.075073 
	C1371.168457,1635.112671 1370.634399,1634.150269 1370.496826,1632.213135 
	C1369.942993,1628.821167 1368.992432,1626.403687 1368.041992,1623.986206 
	C1365.207642,1613.571411 1361.967285,1603.247437 1359.618530,1592.724243 
	C1353.581177,1565.674316 1347.860229,1538.552734 1342.162109,1511.428467 
	C1336.745605,1485.644653 1331.665894,1459.789795 1326.174438,1434.022339 
	C1316.972900,1390.847046 1307.488647,1347.732178 1298.267090,1304.561279 
	C1292.841797,1279.162720 1287.751709,1253.692871 1282.403809,1228.277588 
	C1277.110840,1203.124146 1271.610840,1178.014282 1266.348022,1152.854614 
	C1263.915405,1141.225342 1262.144165,1129.451172 1259.483398,1117.878296 
	C1257.594971,1109.664551 1256.622559,1100.449585 1246.097656,1096.753174 
z"/>
<path fill="#B4D6DE" opacity="1.000000" stroke="none" 
	d="
M1828.148682,325.166992 
	C1825.978394,324.259827 1823.410034,322.978790 1821.655884,320.982208 
	C1805.847168,302.988220 1791.103516,283.957184 1774.302368,266.954773 
	C1721.082275,213.096985 1658.818604,173.034546 1587.227905,147.816040 
	C1585.663696,147.265030 1584.177368,146.492279 1582.226074,144.624802 
	C1581.865112,142.910858 1581.932739,142.395081 1582.000366,141.879303 
	C1608.984619,149.792145 1633.948120,162.565674 1658.903931,175.052673 
	C1674.800293,183.006546 1689.811401,192.969757 1704.456665,203.131470 
	C1730.380859,221.119263 1755.083008,240.715317 1777.031860,263.541260 
	C1795.443481,282.688721 1813.098145,302.475433 1828.148682,325.166992 
z"/>
<path fill="#D8DEDE" opacity="1.000000" stroke="none" 
	d="
M528.022278,1850.721924 
	C532.067993,1851.279907 536.594421,1852.200928 540.965576,1853.605347 
	C556.426819,1858.572754 571.597412,1864.686035 587.330750,1868.496216 
	C602.667908,1872.210693 618.493835,1874.287109 634.227112,1875.875488 
	C649.342468,1877.401733 664.610291,1877.808472 679.817871,1877.942993 
	C705.372559,1878.169189 730.493774,1874.045776 755.504578,1869.214111 
	C762.626953,1867.838257 769.781006,1866.627075 777.475708,1865.682129 
	C770.881470,1868.089844 763.825012,1870.599976 756.561035,1872.117065 
	C745.667175,1874.392334 734.591553,1875.781982 723.658386,1877.887329 
	C705.332275,1881.416138 686.864136,1882.078735 668.251587,1881.954956 
	C648.001038,1881.820435 628.301514,1878.249268 608.367310,1875.348022 
	C591.895264,1872.950684 576.298218,1868.315186 560.606628,1863.683594 
	C549.621094,1860.440918 539.138855,1855.493042 528.022278,1850.721924 
z"/>
<path fill="#B8D9E0" opacity="1.000000" stroke="none" 
	d="
M1329.849731,125.709969 
	C1279.840942,135.230286 1231.997681,151.070679 1186.826538,174.711243 
	C1178.288696,179.179581 1169.749023,183.644180 1160.477905,187.956024 
	C1162.613647,185.316498 1165.136230,182.180511 1168.403198,180.447342 
	C1200.468018,163.436432 1232.836548,147.048065 1267.926270,136.974136 
	C1283.286743,132.564270 1298.735474,128.457703 1314.177124,124.337532 
	C1316.057983,123.835655 1318.145386,124.107788 1321.686035,123.967987 
	C1325.439819,124.513145 1327.644775,125.111557 1329.849731,125.709969 
z"/>
<path fill="#B4D6DE" opacity="1.000000" stroke="none" 
	d="
M1910.300659,516.006592 
	C1904.189697,491.226257 1897.871216,466.523865 1888.244263,442.785492 
	C1876.892212,414.792969 1864.393188,387.385529 1848.619141,361.557343 
	C1847.436768,359.621277 1846.715576,357.403534 1845.935791,354.580383 
	C1851.813721,362.168091 1858.455566,370.013245 1863.086792,378.905609 
	C1877.233887,406.069611 1890.027954,433.936401 1899.457886,463.110992 
	C1905.101440,480.571136 1909.045044,498.580719 1913.247070,516.897034 
	C1911.927856,516.969360 1911.114258,516.487976 1910.300659,516.006592 
z"/>
<path fill="#ECF2F4" opacity="1.000000" stroke="none" 
	d="
M967.895264,201.253510 
	C956.224670,201.299103 944.010864,200.431091 931.787598,200.267776 
	C925.557861,200.184570 919.308655,201.915024 913.072693,201.884842 
	C882.653992,201.737610 853.244446,207.527847 824.253540,216.158173 
	C819.199036,217.662857 813.983826,218.627762 807.992981,219.809265 
	C813.117310,217.335358 818.999146,214.630081 825.083130,212.502884 
	C842.800659,206.307968 861.326050,204.257675 879.754761,201.252258 
	C897.823364,198.305573 915.796814,197.307709 933.911926,197.745071 
	C945.074036,198.014572 956.203857,199.623795 967.895264,201.253510 
z"/>
<path fill="#B0D2D9" opacity="1.000000" stroke="none" 
	d="
M1581.368652,141.565430 
	C1581.932739,142.395081 1581.865112,142.910858 1581.684570,144.201324 
	C1560.857422,139.332870 1540.143311,133.689758 1518.325439,127.458801 
	C1516.583008,126.664177 1515.944214,126.457405 1515.305298,126.250641 
	C1513.334229,126.194481 1511.363281,126.138321 1508.502686,125.682495 
	C1507.062012,124.874306 1506.560669,124.951744 1506.109497,125.515152 
	C1505.084106,125.400307 1504.058716,125.285454 1502.004150,124.786476 
	C1500.549805,124.234604 1500.109131,124.164810 1499.652832,124.192986 
	C1498.204590,124.106491 1496.756348,124.020004 1494.284180,123.391846 
	C1492.195679,122.044289 1491.131104,121.238411 1490.066650,120.432549 
	C1496.200684,120.983994 1502.376221,121.251266 1508.461670,122.136597 
	C1533.273438,125.746315 1556.981201,133.604889 1581.368652,141.565430 
z"/>
<path fill="#EBF1F3" opacity="1.000000" stroke="none" 
	d="
M1512.840088,1710.212158 
	C1521.759399,1707.577637 1531.509644,1704.780029 1541.395020,1702.593018 
	C1565.542603,1697.250732 1589.746338,1692.160156 1613.946289,1687.058105 
	C1616.822632,1686.451660 1619.816650,1686.403320 1623.639160,1686.123535 
	C1616.473755,1688.664429 1608.547119,1691.709595 1600.353516,1693.591553 
	C1575.823364,1699.225830 1551.209473,1704.503540 1526.574829,1709.666016 
	C1522.429932,1710.534668 1518.020020,1710.138550 1512.840088,1710.212158 
z"/>
<path fill="#9DC7D5" opacity="1.000000" stroke="none" 
	d="
M1903.600586,757.975342 
	C1906.663574,743.001221 1910.181519,728.102295 1912.670898,713.033447 
	C1915.593140,695.343689 1917.621582,677.506348 1920.605713,658.862549 
	C1921.173706,657.992065 1922.057617,657.978394 1922.057617,657.978394 
	C1921.432983,666.444763 1921.012085,674.932434 1920.129517,683.371826 
	C1919.143311,692.803528 1918.201050,702.280518 1916.410278,711.578064 
	C1913.503906,726.668396 1909.921753,741.628540 1905.709351,757.317261 
	C1904.396118,757.985657 1903.998413,757.980469 1903.600586,757.975342 
z"/>
<path fill="#A0C9D5" opacity="1.000000" stroke="none" 
	d="
M1903.313477,758.632141 
	C1903.998413,757.980469 1904.396118,757.985657 1905.390381,758.007874 
	C1897.537720,791.924072 1883.380005,823.538452 1866.743164,854.778809 
	C1866.689453,852.292297 1866.740601,849.177551 1867.987183,846.653076 
	C1881.923828,818.429810 1894.368774,789.623291 1903.313477,758.632141 
z"/>
<path fill="#9DC8D6" opacity="1.000000" stroke="none" 
	d="
M1910.273071,516.809448 
	C1911.114258,516.487976 1911.927856,516.969360 1913.145020,517.703247 
	C1918.817993,543.250366 1923.098389,568.655029 1922.477905,594.643677 
	C1922.432983,596.526306 1923.291016,598.430420 1923.255005,601.793335 
	C1922.465820,616.260559 1922.150879,629.259033 1921.835938,642.257568 
	C1921.375000,638.350098 1920.661377,634.453369 1920.494507,630.533325 
	C1919.532959,607.955017 1919.407227,585.313782 1917.578491,562.809204 
	C1916.346313,547.645081 1912.772095,532.671265 1910.273071,516.809448 
z"/>
<path fill="#EBF1F3" opacity="1.000000" stroke="none" 
	d="
M1407.618164,1685.182495 
	C1410.373169,1685.612671 1413.982544,1685.926392 1416.389282,1687.791992 
	C1436.677490,1703.518433 1460.081787,1709.305908 1485.153442,1709.966919 
	C1493.135742,1710.177368 1501.126465,1710.059204 1510.132812,1710.153076 
	C1509.111450,1710.939087 1507.081177,1712.253418 1505.028198,1712.289795 
	C1493.443115,1712.494873 1481.784180,1713.166870 1470.286133,1712.147705 
	C1461.314087,1711.352417 1452.225708,1709.186035 1443.750732,1706.090820 
	C1430.784546,1701.355347 1417.972656,1695.870239 1407.618164,1685.182495 
z"/>
<path fill="#ECF2F4" opacity="1.000000" stroke="none" 
	d="
M1078.560303,235.120377 
	C1076.662964,235.218414 1074.364014,234.882690 1072.241211,234.080948 
	C1055.286377,227.677368 1038.355469,221.209915 1021.447205,214.684418 
	C1019.687317,214.005249 1018.122192,212.821411 1016.230469,211.222351 
	C1030.359985,212.242599 1043.496582,217.926605 1056.619873,223.430313 
	C1064.061279,226.551117 1071.048584,230.754761 1078.560303,235.120377 
z"/>
<path fill="#C8E9F1" opacity="1.000000" stroke="none" 
	d="
M1480.302612,121.503563 
	C1477.542114,121.201088 1474.781494,120.898613 1470.548340,120.371841 
	C1468.639893,120.169838 1468.204102,120.192146 1467.768311,120.214462 
	C1453.718262,119.376869 1439.668091,118.539291 1424.718262,116.962402 
	C1423.880615,115.570534 1423.956299,114.919563 1424.045654,114.270187 
	C1429.270996,114.705864 1434.490234,115.243874 1439.722900,115.556961 
	C1452.585571,116.326576 1465.454224,116.992683 1479.203857,118.789444 
	C1480.159058,120.420158 1480.230835,120.961861 1480.302612,121.503563 
z"/>
<path fill="#AED3DE" opacity="1.000000" stroke="none" 
	d="
M1145.196533,195.894226 
	C1144.700684,197.582977 1143.849487,199.824097 1142.225952,200.987350 
	C1133.344849,207.350739 1124.273926,213.449448 1114.591309,219.229553 
	C1113.872192,218.375244 1113.829956,217.930481 1113.787842,217.485733 
	C1124.020142,210.306839 1134.252441,203.127930 1145.196533,195.894226 
z"/>
<path fill="#ECF2F4" opacity="1.000000" stroke="none" 
	d="
M691.193237,287.684448 
	C691.735779,288.425446 692.000549,289.785065 691.457581,290.311310 
	C683.346924,298.172302 675.129517,305.923218 666.219727,313.678802 
	C673.848022,305.076843 682.193909,296.496185 691.193237,287.684448 
z"/>
<path fill="#A6CAD4" opacity="1.000000" stroke="none" 
	d="
M1330.691162,125.777252 
	C1327.644775,125.111557 1325.439819,124.513145 1322.514893,123.882927 
	C1329.095459,122.585716 1336.393799,121.307266 1343.697510,120.059937 
	C1347.886108,119.344627 1352.083374,118.679871 1357.126343,118.820312 
	C1358.003906,120.153076 1358.031738,120.657883 1358.059570,121.162697 
	C1349.217163,122.723320 1340.374878,124.283928 1330.691162,125.777252 
z"/>
<path fill="#D8DEDE" opacity="1.000000" stroke="none" 
	d="
M782.771240,1865.596924 
	C782.443481,1864.567383 782.812988,1863.125977 783.458862,1862.989258 
	C794.634460,1860.622925 805.843994,1858.417236 817.915405,1856.240234 
	C807.840027,1862.376587 795.687317,1863.968384 782.771240,1865.596924 
z"/>
<path fill="#D8DEDE" opacity="1.000000" stroke="none" 
	d="
M822.666992,1856.203125 
	C833.511719,1853.338013 845.035706,1850.682861 857.418762,1848.059570 
	C847.060547,1852.656006 835.500427,1855.781738 822.666992,1856.203125 
z"/>
<path fill="#ECF2F4" opacity="1.000000" stroke="none" 
	d="
M1011.840820,208.921143 
	C1011.057861,210.173172 1009.805054,211.290894 1008.819397,211.091095 
	C996.217712,208.536697 983.654175,205.793671 970.535095,202.576019 
	C977.697876,202.730469 985.450867,203.095505 993.101318,204.182404 
	C999.296631,205.062592 1005.368469,206.811142 1011.840820,208.921143 
z"/>
<path fill="#B4D6DE" opacity="1.000000" stroke="none" 
	d="
M1846.161499,353.234955 
	C1837.513062,346.770233 1832.389038,337.105286 1827.836426,326.553955 
	C1834.145020,334.736420 1840.145874,343.621124 1846.161499,353.234955 
z"/>
<path fill="#D8F4F9" opacity="1.000000" stroke="none" 
	d="
M1401.946289,117.705093 
	C1392.566772,118.466248 1383.187256,119.227386 1372.193237,119.931313 
	C1369.633911,120.018318 1368.689087,120.162544 1367.744263,120.306763 
	C1367.744263,120.306763 1366.779053,120.430046 1366.314819,119.818787 
	C1365.886963,118.825951 1365.923340,118.444374 1365.959839,118.062790 
	C1372.057007,114.667656 1378.719849,115.667374 1385.237793,115.612991 
	C1390.185303,115.571716 1395.133667,115.640846 1401.007812,116.199371 
	C1401.933960,116.737885 1401.946289,117.705093 1401.946289,117.705093 
z"/>
<path fill="#AECFD9" opacity="1.000000" stroke="none" 
	d="
M1103.183960,225.979065 
	C1102.410156,228.170639 1101.378784,230.974884 1099.413452,232.738251 
	C1095.000244,236.697845 1090.123291,240.140610 1084.790527,243.959076 
	C1083.718994,242.328857 1083.292236,240.533371 1082.315186,237.965912 
	C1081.764893,237.193970 1081.991455,236.508194 1081.991455,236.508194 
	C1085.850342,238.536850 1088.798950,236.300812 1091.666016,234.277344 
	C1095.358276,231.671494 1098.897339,228.848679 1103.183960,225.979065 
z"/>
<path fill="#ECF2F4" opacity="1.000000" stroke="none" 
	d="
M777.291382,230.464569 
	C771.437866,238.180908 762.475464,241.361374 752.344238,243.757263 
	C759.897827,239.264481 768.233398,234.831726 777.291382,230.464569 
z"/>
<path fill="#D4F5FB" opacity="1.000000" stroke="none" 
	d="
M1921.876587,642.622437 
	C1922.150879,629.259033 1922.465820,616.260559 1923.314331,602.628845 
	C1923.969971,615.385681 1924.092041,628.775635 1923.554443,642.952393 
	C1922.894897,643.739197 1922.188232,643.669739 1922.188232,643.669739 
	C1922.188232,643.669739 1921.917236,642.987305 1921.876587,642.622437 
z"/>
<path fill="#ECF2F4" opacity="1.000000" stroke="none" 
	d="
M715.170227,267.640625 
	C714.111633,275.234863 707.741516,277.622986 700.573792,279.959442 
	C704.716492,275.919708 709.605286,271.871826 715.170227,267.640625 
z"/>
<path fill="#90C1D1" opacity="1.000000" stroke="none" 
	d="
M1845.960327,885.982788 
	C1849.560425,880.508301 1853.160522,875.033752 1857.435791,869.267822 
	C1855.326660,874.437317 1852.542480,879.898254 1848.568115,885.719849 
	C1846.905273,886.047913 1846.432739,886.015320 1845.960327,885.982788 
z"/>
<path fill="#F2FDFD" opacity="1.000000" stroke="none" 
	d="
M1423.184814,113.993118 
	C1423.956299,114.919563 1423.880615,115.570534 1423.817627,116.714233 
	C1419.181641,117.301094 1414.546753,117.396812 1409.005615,116.865646 
	C1408.052734,115.525383 1408.006226,114.812004 1407.959595,114.098625 
	C1412.747803,113.971100 1417.535889,113.843567 1423.184814,113.993118 
z"/>
<path fill="#ECF2F4" opacity="1.000000" stroke="none" 
	d="
M799.124268,221.653503 
	C796.439880,227.331528 790.569946,227.963959 784.413940,228.473419 
	C788.766968,225.890228 793.566589,223.762070 799.124268,221.653503 
z"/>
<path fill="#EBF1F3" opacity="1.000000" stroke="none" 
	d="
M1371.738037,1636.812256 
	C1377.254883,1639.379761 1378.785034,1644.925537 1379.864136,1651.483643 
	C1377.166992,1647.346191 1374.470215,1642.447754 1371.738037,1636.812256 
z"/>
<path fill="#AED3DE" opacity="1.000000" stroke="none" 
	d="
M1159.149902,187.514938 
	C1157.402100,193.110641 1152.419678,194.910492 1146.566650,196.173294 
	C1150.052979,193.028671 1154.242432,190.180817 1159.149902,187.514938 
z"/>
<path fill="#D8DEDE" opacity="1.000000" stroke="none" 
	d="
M507.781311,1841.172729 
	C513.421021,1839.311890 517.236450,1843.541748 521.860352,1846.867676 
	C517.412903,1845.601562 512.772827,1843.682251 507.781311,1841.172729 
z"/>
<path fill="#A5C8D2" opacity="1.000000" stroke="none" 
	d="
M1480.895020,121.749893 
	C1480.230835,120.961861 1480.159058,120.420158 1480.049683,119.059837 
	C1482.870483,118.862015 1485.728760,119.482803 1489.326904,120.268066 
	C1491.131104,121.238411 1492.195679,122.044289 1493.574707,123.234306 
	C1489.755371,123.077698 1485.621460,122.536957 1480.895020,121.749893 
z"/>
<path fill="#D8DEDE" opacity="1.000000" stroke="none" 
	d="
M884.907471,1840.299316 
	C888.370605,1838.284912 892.574158,1836.199219 897.532593,1834.161865 
	C894.074341,1836.216309 889.861145,1838.222168 884.907471,1840.299316 
z"/>
<path fill="#A0C9D5" opacity="1.000000" stroke="none" 
	d="
M1840.825195,898.019775 
	C1839.045776,893.614685 1842.161987,891.099854 1845.554932,888.241089 
	C1844.669678,891.359314 1843.087524,894.618835 1840.825195,898.019775 
z"/>
<path fill="#ECF2F4" opacity="1.000000" stroke="none" 
	d="
M741.250732,249.943298 
	C741.125549,254.826889 737.362854,255.588760 732.505981,255.862579 
	C734.697815,253.933258 737.642700,252.004333 741.250732,249.943298 
z"/>
<path fill="#9DC8D6" opacity="1.000000" stroke="none" 
	d="
M1860.715332,865.792053 
	C1861.620361,862.564148 1863.151245,858.996216 1865.416748,855.218872 
	C1864.547974,858.490295 1862.944702,861.971191 1860.715332,865.792053 
z"/>
<path fill="#ECF2F4" opacity="1.000000" stroke="none" 
	d="
M751.074341,243.733826 
	C751.394104,248.948502 747.350220,249.403961 742.568420,249.893646 
	C744.680725,247.903030 747.550171,245.903854 751.074341,243.733826 
z"/>
<path fill="#D8DEDE" opacity="1.000000" stroke="none" 
	d="
M874.609619,1845.517578 
	C875.387695,1841.056763 879.018616,1840.382080 883.627136,1840.206299 
	C881.330200,1842.056519 878.307312,1843.834106 874.609619,1845.517578 
z"/>
<path fill="#D8DEDE" opacity="1.000000" stroke="none" 
	d="
M434.264648,1790.561035 
	C437.609283,1789.983398 440.919067,1790.467285 441.727264,1795.630249 
	C439.341553,1794.619263 436.939392,1792.879761 434.264648,1790.561035 
z"/>
<path fill="#ECF2F4" opacity="1.000000" stroke="none" 
	d="
M655.425537,324.299957 
	C655.987366,327.704346 655.446533,331.042297 650.199951,331.808411 
	C651.247375,329.420074 653.034058,326.990753 655.425537,324.299957 
z"/>
<path fill="#EBF1F3" opacity="1.000000" stroke="none" 
	d="
M1379.865601,1652.770508 
	C1384.102539,1652.465088 1385.088623,1655.612183 1385.600098,1659.854736 
	C1383.686523,1658.205322 1381.818115,1655.819702 1379.865601,1652.770508 
z"/>
<path fill="#AECFD9" opacity="1.000000" stroke="none" 
	d="
M1111.118042,219.699799 
	C1112.069458,224.387283 1108.584961,225.368362 1104.542725,226.163300 
	C1106.045654,223.778931 1108.245239,221.715744 1111.118042,219.699799 
z"/>
<path fill="#D8DEDE" opacity="1.000000" stroke="none" 
	d="
M862.721130,1847.587891 
	C863.863708,1844.995483 865.909058,1843.175781 869.579712,1845.440796 
	C867.801514,1846.514771 865.616028,1847.148438 862.721130,1847.587891 
z"/>
<path fill="#EBF1F3" opacity="1.000000" stroke="none" 
	d="
M1367.872803,1624.704468 
	C1368.992432,1626.403687 1369.942993,1628.821167 1370.455811,1631.634033 
	C1369.246826,1629.827148 1368.475342,1627.625000 1367.872803,1624.704468 
z"/>
<path fill="#9DC8D6" opacity="1.000000" stroke="none" 
	d="
M1922.228760,657.264160 
	C1922.057617,657.978394 1921.173706,657.992065 1920.732910,657.997681 
	C1920.576050,654.367126 1920.860229,650.731079 1921.635132,646.507690 
	C1922.153687,646.443848 1922.181519,646.967346 1922.065186,648.824585 
	C1921.925293,651.330872 1921.929443,652.503418 1921.933594,653.675964 
	C1922.088989,654.633911 1922.244507,655.591919 1922.228760,657.264160 
z"/>
<path fill="#C8E9F1" opacity="1.000000" stroke="none" 
	d="
M1407.302490,113.973907 
	C1408.006226,114.812004 1408.052734,115.525383 1408.141602,116.770317 
	C1406.627075,117.518501 1405.070312,117.735138 1402.729980,117.828430 
	C1401.946289,117.705093 1401.933960,116.737885 1401.936768,116.254181 
	C1403.508179,115.130051 1405.076782,114.489624 1407.302490,113.973907 
z"/>
<path fill="#D8DEDE" opacity="1.000000" stroke="none" 
	d="
M403.760925,1758.852295 
	C405.100372,1759.632202 406.538269,1761.040894 408.012512,1763.151367 
	C406.652344,1762.395874 405.255829,1760.938477 403.760925,1758.852295 
z"/>
<path fill="#ECF2F4" opacity="1.000000" stroke="none" 
	d="
M583.487915,408.475769 
	C583.013245,410.085358 581.940735,411.905121 580.169067,413.787903 
	C580.609985,412.129242 581.750061,410.407593 583.487915,408.475769 
z"/>
<path fill="#D8DEDE" opacity="1.000000" stroke="none" 
	d="
M489.990082,1830.694092 
	C491.698730,1830.965210 493.700867,1831.830688 495.869568,1833.387939 
	C494.118622,1833.149292 492.201080,1832.218872 489.990082,1830.694092 
z"/>
<path fill="#ECF2F4" opacity="1.000000" stroke="none" 
	d="
M561.441772,434.279907 
	C560.984924,435.922943 559.941162,437.814270 558.183228,439.778198 
	C558.597656,438.076569 559.726257,436.302399 561.441772,434.279907 
z"/>
<path fill="#EBF1F3" opacity="1.000000" stroke="none" 
	d="
M1387.900879,1664.721191 
	C1389.161133,1665.575195 1390.543213,1667.040527 1391.985840,1669.205811 
	C1390.705078,1668.381348 1389.363892,1666.856934 1387.900879,1664.721191 
z"/>
<path fill="#ECF2F4" opacity="1.000000" stroke="none" 
	d="
M731.262207,255.900269 
	C731.747253,258.836090 729.984497,260.003357 726.372192,259.889771 
	C727.300049,258.611145 728.966553,257.316315 731.262207,255.900269 
z"/>
<path fill="#ECF2F4" opacity="1.000000" stroke="none" 
	d="
M723.188660,261.530579 
	C723.826782,264.376709 722.326538,265.937714 718.458008,265.911499 
	C719.320496,264.536194 720.946411,263.149078 723.188660,261.530579 
z"/>
<path fill="#D8DEDE" opacity="1.000000" stroke="none" 
	d="
M456.227509,1808.588135 
	C457.849274,1809.012207 459.779175,1809.984497 461.794434,1811.665527 
	C460.098389,1811.295044 458.317017,1810.215698 456.227509,1808.588135 
z"/>
<path fill="#ECF2F4" opacity="1.000000" stroke="none" 
	d="
M619.445862,366.281677 
	C619.036316,367.933136 618.042542,369.828522 616.348999,371.814270 
	C616.720093,370.111572 617.790833,368.318573 619.445862,366.281677 
z"/>
<path fill="#D8DEDE" opacity="1.000000" stroke="none" 
	d="
M471.628754,1819.263916 
	C473.290070,1819.564697 475.251251,1820.422974 477.372070,1821.972656 
	C475.663971,1821.716431 473.796326,1820.769043 471.628754,1819.263916 
z"/>
<path fill="#D8DEDE" opacity="1.000000" stroke="none" 
	d="
M501.280334,1836.962402 
	C503.025452,1837.326172 505.094849,1838.284180 507.345642,1839.956543 
	C505.552917,1839.632812 503.578735,1838.594727 501.280334,1836.962402 
z"/>
<path fill="#D8DEDE" opacity="1.000000" stroke="none" 
	d="
M447.592590,1801.241821 
	C448.783752,1801.426880 450.244843,1802.152100 451.816467,1803.561523 
	C450.572174,1803.424438 449.217346,1802.603271 447.592590,1801.241821 
z"/>
<path fill="#D8DEDE" opacity="1.000000" stroke="none" 
	d="
M399.828583,1754.782227 
	C401.039368,1755.118286 402.361359,1756.059814 403.721191,1757.674561 
	C402.485931,1757.360962 401.212830,1756.374268 399.828583,1754.782227 
z"/>
<path fill="#EBF1F3" opacity="1.000000" stroke="none" 
	d="
M1397.863037,1676.688477 
	C1399.075073,1677.048096 1400.418701,1678.030884 1401.829712,1679.698486 
	C1400.596069,1679.359497 1399.295288,1678.335571 1397.863037,1676.688477 
z"/>
<path fill="#D8DEDE" opacity="1.000000" stroke="none" 
	d="
M477.647644,1823.105347 
	C478.846283,1823.283203 480.286682,1824.019287 481.857422,1825.420898 
	C480.621643,1825.278809 479.255554,1824.471191 477.647644,1823.105347 
z"/>
<path fill="#A0C9D5" opacity="1.000000" stroke="none" 
	d="
M1834.628418,906.840271 
	C1834.854126,905.393860 1835.713623,903.676208 1837.349854,902.002014 
	C1837.171875,903.553406 1836.217041,905.061218 1834.628418,906.840271 
z"/>
<path fill="#ECF2F4" opacity="1.000000" stroke="none" 
	d="
M641.183167,341.428711 
	C640.852234,342.647491 639.930847,344.112396 638.291870,345.663391 
	C638.580383,344.391235 639.586609,343.033051 641.183167,341.428711 
z"/>
<path fill="#ECF2F4" opacity="1.000000" stroke="none" 
	d="
M637.151123,345.765198 
	C636.894958,346.997925 636.021851,348.378326 634.476929,349.858337 
	C634.714783,348.609619 635.624512,347.261261 637.151123,345.765198 
z"/>
<path fill="#ECF2F4" opacity="1.000000" stroke="none" 
	d="
M605.152039,383.180084 
	C604.885681,384.462891 604.002075,386.056213 602.382141,387.776184 
	C602.608826,386.432068 603.571838,384.961334 605.152039,383.180084 
z"/>
<path fill="#ECF2F4" opacity="1.000000" stroke="none" 
	d="
M805.343262,219.806549 
	C804.389160,220.574997 802.734070,221.201660 800.370239,221.810028 
	C801.321716,221.082748 802.982056,220.373764 805.343262,219.806549 
z"/>
<path fill="#ECF2F4" opacity="1.000000" stroke="none" 
	d="
M631.484985,352.260315 
	C631.186584,353.348022 630.317261,354.552856 628.870361,355.923737 
	C629.166626,354.852356 630.040344,353.614899 631.484985,352.260315 
z"/>
<path fill="#9DC7D5" opacity="1.000000" stroke="none" 
	d="
M1922.143311,653.308167 
	C1921.929443,652.503418 1921.925293,651.330872 1921.869385,649.586182 
	C1921.995972,650.322815 1922.174438,651.631592 1922.143311,653.308167 
z"/>
<path fill="#D8F4F9" opacity="1.000000" stroke="none" 
	d="
M1358.852539,121.155945 
	C1358.031738,120.657883 1358.003906,120.153076 1357.964111,118.890228 
	C1359.486572,117.969505 1361.020874,117.806808 1363.386841,118.455498 
	C1364.262817,119.672226 1364.307007,120.077568 1364.351196,120.482895 
	C1362.782715,120.704994 1361.214111,120.927101 1358.852539,121.155945 
z"/>
<path fill="#D8DEDE" opacity="1.000000" stroke="none" 
	d="
M467.802429,1816.735352 
	C468.693085,1816.631104 469.857391,1817.091431 471.219788,1818.174561 
	C470.303986,1818.298218 469.190063,1817.799072 467.802429,1816.735352 
z"/>
<path fill="#D8DEDE" opacity="1.000000" stroke="none" 
	d="
M397.394165,1750.859863 
	C398.105286,1751.158325 398.926819,1752.070923 399.768341,1753.639160 
	C399.027069,1753.354492 398.265839,1752.414185 397.394165,1750.859863 
z"/>
<path fill="#D8DEDE" opacity="1.000000" stroke="none" 
	d="
M486.147766,1828.487061 
	C486.631348,1828.232544 487.311981,1828.419312 488.029358,1829.005371 
	C488.066071,1829.404541 487.106781,1829.522949 487.106781,1829.522949 
	C487.106781,1829.522949 486.344818,1828.928223 486.147766,1828.487061 
z"/>
<path fill="#D8DEDE" opacity="1.000000" stroke="none" 
	d="
M444.001953,1798.718506 
	C444.826080,1798.660156 445.941162,1799.109741 447.227783,1800.168457 
	C446.363861,1800.260620 445.328369,1799.743530 444.001953,1798.718506 
z"/>
<path fill="#ECF2F4" opacity="1.000000" stroke="none" 
	d="
M597.452515,392.283264 
	C597.456726,393.131287 596.882751,394.215424 595.725891,395.554810 
	C595.720154,394.713196 596.297302,393.616272 597.452515,392.283264 
z"/>
<path fill="#EBF1F3" opacity="1.000000" stroke="none" 
	d="
M1385.474243,1660.918701 
	C1386.120361,1661.212891 1386.916260,1662.097412 1387.790527,1663.617065 
	C1387.120728,1663.337769 1386.372437,1662.423340 1385.474243,1660.918701 
z"/>
<path fill="#D2E5F2" opacity="1.000000" stroke="none" 
	d="
M1241.275146,1094.677002 
	C1242.412964,1094.245361 1243.972656,1094.455078 1245.762085,1095.444702 
	C1244.560181,1095.922607 1243.128540,1095.620483 1241.275146,1094.677002 
z"/>
<path fill="#D3E5F2" opacity="1.000000" stroke="none" 
	d="
M1236.189941,1092.746338 
	C1237.308594,1092.307739 1238.790039,1092.551880 1240.670898,1093.461060 
	C1239.564575,1093.893921 1238.058594,1093.661621 1236.189941,1092.746338 
z"/>
<path fill="#D2E5F2" opacity="1.000000" stroke="none" 
	d="
M1830.857544,913.852661 
	C1830.309082,912.831543 1830.447510,911.499512 1831.176514,909.716797 
	C1831.692871,910.691406 1831.618652,912.116577 1830.857544,913.852661 
z"/>
<path fill="#A0C9D5" opacity="1.000000" stroke="none" 
	d="
M1838.668213,901.873779 
	C1838.321899,900.841064 1838.571899,899.567200 1839.510864,898.182373 
	C1839.888062,899.258606 1839.576294,900.445618 1838.668213,901.873779 
z"/>
<path fill="#D8DEDE" opacity="1.000000" stroke="none" 
	d="
M426.153748,1782.551880 
	C427.008423,1782.521606 428.064636,1783.046143 429.265778,1784.169434 
	C428.392212,1784.214111 427.373749,1783.660400 426.153748,1782.551880 
z"/>
<path fill="#D8DEDE" opacity="1.000000" stroke="none" 
	d="
M453.880127,1806.617554 
	C454.319916,1806.440186 454.895844,1806.805664 455.724670,1807.624634 
	C455.323822,1807.772339 454.670044,1807.466309 453.880127,1806.617554 
z"/>
<path fill="#D8DEDE" opacity="1.000000" stroke="none" 
	d="
M497.388580,1834.863281 
	C497.806183,1834.601929 498.540375,1834.895264 499.660706,1835.651367 
	C499.266296,1835.882080 498.485718,1835.649902 497.388580,1834.863281 
z"/>
<path fill="#D8DEDE" opacity="1.000000" stroke="none" 
	d="
M898.723511,1834.194214 
	C898.627563,1833.723267 899.122131,1833.149658 900.169556,1832.408203 
	C900.252930,1832.857300 899.783447,1833.474487 898.723511,1834.194214 
z"/>
<path fill="#EBF1F3" opacity="1.000000" stroke="none" 
	d="
M1405.086670,1682.709473 
	C1405.521362,1682.598633 1406.292236,1683.084839 1407.350830,1684.201294 
	C1406.900024,1684.323242 1406.161499,1683.814941 1405.086670,1682.709473 
z"/>
<path fill="#D8DEDE" opacity="1.000000" stroke="none" 
	d="
M523.896118,1848.589600 
	C524.381287,1848.158447 524.949951,1848.427246 525.715515,1849.274658 
	C525.361084,1849.468506 524.716858,1849.280762 523.896118,1848.589600 
z"/>
<path fill="#A6CAD4" opacity="1.000000" stroke="none" 
	d="
M1364.722046,120.528122 
	C1364.307007,120.077568 1364.262817,119.672226 1364.137695,118.660873 
	C1364.057007,118.054863 1365.010132,117.794571 1365.484985,117.928680 
	C1365.923340,118.444374 1365.886963,118.825951 1365.829590,119.783287 
	C1365.808716,120.359047 1365.092896,120.573341 1364.722046,120.528122 
z"/>
<path fill="#ECF2F4" opacity="1.000000" stroke="none" 
	d="
M661.282288,317.646332 
	C661.460815,318.082123 661.073425,318.713196 660.213074,319.644958 
	C660.065552,319.244324 660.390930,318.542969 661.282288,317.646332 
z"/>
<path fill="#ECF2F4" opacity="1.000000" stroke="none" 
	d="
M591.121704,399.566956 
	C591.232788,399.974335 590.790405,400.630798 589.808411,401.557678 
	C589.701965,401.157410 590.135071,400.486725 591.121704,399.566956 
z"/>
<path fill="#ECF2F4" opacity="1.000000" stroke="none" 
	d="
M587.266785,403.558350 
	C587.452576,403.962189 587.095459,404.630707 586.272339,405.631531 
	C586.112183,405.250244 586.418030,404.536652 587.266785,403.558350 
z"/>
<path fill="#ECF2F4" opacity="1.000000" stroke="none" 
	d="
M577.326355,415.800110 
	C577.424561,416.216125 576.946350,416.795654 575.951294,417.618835 
	C575.872864,417.229492 576.311401,416.596558 577.326355,415.800110 
z"/>
<path fill="#ECF2F4" opacity="1.000000" stroke="none" 
	d="
M545.331665,453.810577 
	C545.428467,454.226562 544.948792,454.800964 543.955078,455.618805 
	C543.879089,455.231171 544.317078,454.600098 545.331665,453.810577 
z"/>
<path fill="#9DC8D6" opacity="1.000000" stroke="none" 
	d="
M1922.106689,644.293823 
	C1922.188232,643.669739 1922.894897,643.739197 1923.235962,643.837097 
	C1923.406372,644.582642 1923.235718,645.230286 1922.560791,646.027100 
	C1922.046143,645.756714 1922.035645,645.337280 1922.106689,644.293823 
z"/>
<path fill="#ECF2F4" opacity="1.000000" stroke="none" 
	d="
M613.283691,373.650635 
	C613.460876,374.087616 613.071838,374.717560 612.208374,375.645782 
	C612.061829,375.243927 612.389648,374.543793 613.283691,373.650635 
z"/>
<path fill="#9DC8D6" opacity="1.000000" stroke="none" 
	d="
M1858.604736,868.791382 
	C1858.267700,868.229248 1858.531738,867.334106 1859.475220,866.228638 
	C1859.838257,866.831665 1859.521973,867.644958 1858.604736,868.791382 
z"/>
<path fill="#A0C9D5" opacity="1.000000" stroke="none" 
	d="
M1845.908691,886.554077 
	C1846.432739,886.015320 1846.905273,886.047913 1848.084229,886.162964 
	C1848.344238,886.930725 1847.897705,887.616089 1846.825806,888.260803 
	C1846.085938,887.855286 1845.971436,887.490356 1845.908691,886.554077 
z"/>
<path fill="#D8DEDE" opacity="1.000000" stroke="none" 
	d="
M441.780701,1796.762695 
	C442.222443,1796.588623 442.809937,1796.963989 443.630493,1797.818359 
	C443.217865,1797.968872 442.572174,1797.640503 441.780701,1796.762695 
z"/>
<path fill="#ECF2F4" opacity="1.000000" stroke="none" 
	d="
M665.195435,313.670837 
	C665.349854,314.079651 664.967834,314.709198 664.106262,315.625854 
	C663.970764,315.239197 664.314880,314.565369 665.195435,313.670837 
z"/>
<path fill="#ECF2F4" opacity="1.000000" stroke="none" 
	d="
M695.280518,283.639130 
	C695.431152,284.070648 695.016602,284.701355 694.107971,285.621094 
	C693.981079,285.219543 694.348267,284.528931 695.280518,283.639130 
z"/>
<path fill="#ECF2F4" opacity="1.000000" stroke="none" 
	d="
M593.202820,397.418884 
	C593.331482,397.854065 592.884338,398.526886 591.873962,399.453491 
	C591.749573,399.023712 592.188293,398.340149 593.202820,397.418884 
z"/>
<path fill="#ECF2F4" opacity="1.000000" stroke="none" 
	d="
M1081.544434,236.136322 
	C1081.991455,236.508194 1081.764893,237.193970 1081.734985,237.553040 
	C1081.129272,237.663254 1080.680664,237.269455 1080.151978,236.324554 
	C1080.328735,235.867096 1080.713013,235.815765 1081.544434,236.136322 
z"/>
<path fill="#D8DEDE" opacity="1.000000" stroke="none" 
	d="
M410.089966,1766.522217 
	C410.555450,1766.407227 411.059113,1766.857422 411.747284,1767.785156 
	C411.330566,1767.870972 410.729340,1767.479248 410.089966,1766.522217 
z"/>
<path fill="#D8DEDE" opacity="1.000000" stroke="none" 
	d="
M421.728027,1778.717041 
	C422.168396,1778.551147 422.781128,1778.949829 423.648438,1779.844238 
	C423.235413,1779.987305 422.567871,1779.634521 421.728027,1778.717041 
z"/>
<path fill="#D8DEDE" opacity="1.000000" stroke="none" 
	d="
M429.487183,1785.187256 
	C429.956757,1785.056030 430.647919,1785.502075 431.523468,1786.560303 
	C431.041504,1786.703003 430.375122,1786.233765 429.487183,1785.187256 
z"/>
<path fill="#AECFD9" opacity="1.000000" stroke="none" 
	d="
M1113.225098,217.654022 
	C1113.829956,217.930481 1113.872192,218.375244 1113.953125,219.490723 
	C1113.600342,220.208588 1113.208740,220.255753 1112.299072,220.017029 
	C1112.074829,219.094879 1112.368652,218.458603 1113.225098,217.654022 
z"/>
<path fill="#FCFDFD" opacity="1.000000" stroke="none" 
	d="
M1330.354004,841.901611 
	C1330.357056,795.649353 1330.357056,750.380920 1330.357056,703.958740 
	C1325.752197,703.717468 1321.916016,703.346497 1318.079468,703.341492 
	C1273.422852,703.282715 1228.765991,703.331726 1184.109497,703.243774 
	C1149.931763,703.176453 1116.731689,681.323425 1103.857544,649.900818 
	C1093.105103,623.656616 1093.750977,582.523743 1123.564697,553.870483 
	C1141.724976,536.416992 1163.286621,528.770203 1187.865601,528.674866 
	C1231.188354,528.506775 1274.512451,528.684631 1317.836060,528.716980 
	C1321.451294,528.719666 1325.066528,528.717346 1329.895508,528.717346 
	C1330.079102,524.038269 1330.358887,520.182617 1330.361816,516.326721 
	C1330.395508,471.003540 1330.184448,425.679108 1330.454468,380.357513 
	C1330.677002,343.003998 1357.364990,308.977875 1393.335938,299.352203 
	C1442.385254,286.226898 1490.737793,314.664062 1502.631348,363.912872 
	C1504.096191,369.978485 1504.359863,376.447815 1504.374390,382.731934 
	C1504.478882,427.721436 1504.365479,472.711395 1504.355835,517.701233 
	C1504.355103,520.941040 1504.625732,524.180786 1504.825195,528.649902 
	C1509.505371,528.649902 1513.401733,528.652588 1517.298218,528.649536 
	C1560.954956,528.615051 1604.612305,528.441711 1648.268433,528.582581 
	C1693.785889,528.729431 1729.471313,558.183411 1736.546631,602.732361 
	C1741.920044,636.565735 1729.867920,664.237183 1702.691772,685.153870 
	C1686.261230,697.800049 1667.662720,703.679260 1646.863647,703.555115 
	C1603.541504,703.296631 1560.216919,703.453735 1516.893311,703.440369 
	C1513.276245,703.439209 1509.659058,703.440186 1504.797974,703.440186 
	C1504.620239,708.145874 1504.348877,712.001587 1504.348389,715.857300 
	C1504.341919,760.180603 1504.402100,804.503845 1504.390259,848.827148 
	C1504.383789,873.052490 1495.552368,893.638428 1478.418335,910.666382 
	C1438.966431,949.874146 1374.566650,942.754822 1344.189209,896.080444 
	C1333.581421,879.781738 1329.471558,862.045288 1330.354004,841.901611 
z"/>
<path fill="#A6CAD4" opacity="1.000000" stroke="none" 
	d="
M1368.152344,120.565536 
	C1368.689087,120.162544 1369.633911,120.018318 1371.293945,119.949913 
	C1370.859619,120.291924 1369.710083,120.558113 1368.152344,120.565536 
z"/>
<path fill="#A5C8D2" opacity="1.000000" stroke="none" 
	d="
M1515.651733,126.626976 
	C1515.944214,126.457405 1516.583008,126.664177 1517.558350,127.246002 
	C1517.262695,127.415146 1516.630371,127.209229 1515.651733,126.626976 
z"/>
<path fill="#A5C8D2" opacity="1.000000" stroke="none" 
	d="
M1506.553833,125.667564 
	C1506.560669,124.951744 1507.062012,124.874306 1507.775146,125.534317 
	C1507.937134,125.785812 1506.998169,125.819977 1506.553833,125.667564 
z"/>
<path fill="#A5C8D2" opacity="1.000000" stroke="none" 
	d="
M1499.936035,124.408264 
	C1500.109131,124.164810 1500.549805,124.234604 1501.265625,124.547028 
	C1501.556274,124.691696 1500.877808,124.857246 1500.877808,124.857246 
	C1500.877808,124.857246 1500.219116,124.623535 1499.936035,124.408264 
z"/>
<path fill="#A5C8D2" opacity="1.000000" stroke="none" 
	d="
M1468.049072,120.444740 
	C1468.204102,120.192146 1468.639893,120.169838 1469.720825,120.264297 
	C1469.687378,120.479057 1469.008667,120.577042 1468.049072,120.444740 
z"/>
</svg>