<svg version="1.1" id="Layer_1" xmlns="http://www.w3.org/2000/svg" xmlns:xlink="http://www.w3.org/1999/xlink" x="0px" y="0px"
	 width="100%" viewBox="0 0 2112 2016" enable-background="new 0 0 2112 2016" xml:space="preserve">
<path fill="#FDFDFD" opacity="1.000000" stroke="none" 
	d="
M1262.000000,2018.000000 
	C841.384033,2018.000000 421.768127,2018.000000 2.076093,2018.000000 
	C2.076093,1346.131958 2.076093,674.263916 2.076093,2.197938 
	C705.782898,2.197938 1409.565918,2.197938 2113.674316,2.197938 
	C2113.674316,673.999878 2113.674316,1345.999878 2113.674316,2018.000000 
	C1830.263306,2018.000000 1546.631714,2018.000000 1262.000000,2018.000000 
M1254.649902,1098.984497 
	C1255.383301,1099.140137 1256.116577,1099.295776 1257.511841,1099.478760 
	C1257.511841,1099.478760 1258.055420,1099.857666 1257.982422,1101.582764 
	C1258.022705,1103.248413 1257.801392,1104.969482 1258.141602,1106.571411 
	C1265.778931,1142.525757 1273.524780,1178.457153 1281.150269,1214.413940 
	C1287.606079,1244.855103 1293.858765,1275.339233 1300.339722,1305.774902 
	C1309.169312,1347.239990 1318.114624,1388.680298 1327.040649,1430.124634 
	C1333.244995,1458.932251 1339.520996,1487.724365 1345.727783,1516.531250 
	C1352.913818,1549.882690 1359.842773,1583.291260 1367.283936,1616.585449 
	C1374.535278,1649.030884 1393.028198,1673.814209 1420.739746,1691.725708 
	C1435.986450,1701.580322 1452.708984,1708.429688 1470.877197,1709.807373 
	C1496.193359,1711.727051 1521.137085,1708.935181 1545.864502,1702.551514 
	C1570.218628,1696.264282 1594.927490,1691.310181 1619.561523,1686.157471 
	C1653.542236,1679.050049 1686.455933,1668.529297 1717.346558,1652.843872 
	C1748.876099,1636.833740 1777.594116,1616.442261 1802.231934,1590.774170 
	C1810.052734,1582.626465 1817.621826,1574.233521 1825.197021,1565.854248 
	C1841.568237,1547.745483 1854.737671,1527.406128 1865.987793,1505.846191 
	C1876.768311,1485.186646 1885.106079,1463.566162 1892.209961,1441.296387 
	C1902.504395,1409.024780 1905.530396,1375.802002 1907.787598,1342.417480 
	C1908.384888,1333.582153 1906.995239,1324.554688 1905.964844,1315.679688 
	C1904.019043,1298.916870 1902.662354,1281.999512 1899.311646,1265.501587 
	C1887.775879,1208.703735 1875.530029,1152.049927 1863.468262,1095.359497 
	C1853.199585,1047.096680 1842.794312,998.863037 1832.490234,950.607849 
	C1830.141479,939.608704 1827.960327,928.573792 1826.224487,916.315369 
	C1826.967163,915.208862 1827.666504,914.070312 1828.458862,913.000610 
	C1857.034790,874.419067 1878.853638,832.102417 1894.902344,787.080200 
	C1909.252686,746.822205 1917.155762,704.947815 1920.580200,662.235107 
	C1923.980469,619.823486 1921.736938,577.740417 1914.775391,535.857727 
	C1906.631470,486.860596 1890.841309,440.309326 1868.508911,396.049042 
	C1832.339722,324.365601 1782.362061,264.227417 1717.484131,216.564148 
	C1638.136475,158.270737 1549.626587,125.075745 1451.305298,118.440598 
	C1411.575317,115.759445 1371.995361,118.023369 1332.827637,124.708122 
	C1257.435791,137.575211 1188.581665,166.607788 1126.322021,211.036911 
	C1113.334717,220.304718 1100.982056,230.461777 1086.854858,239.927826 
	C1078.935791,236.478256 1071.069092,232.901779 1063.084961,229.609863 
	C1052.032837,225.052933 1041.147583,219.841110 1029.727539,216.487488 
	C1014.190613,211.924911 998.342224,208.129562 982.393311,205.347382 
	C967.108826,202.681091 951.560852,201.215912 936.065002,200.140640 
	C910.737671,198.383148 885.613892,201.737198 860.877441,206.421280 
	C815.773621,214.962097 773.373596,231.057434 734.750610,256.242218 
	C702.177917,277.481903 674.767334,304.480499 649.470459,333.762146 
	C645.132629,338.783325 640.896301,343.892090 636.599548,348.948944 
	C626.291748,361.080383 616.029724,373.251373 605.642761,385.314789 
	C599.576111,392.360626 593.161011,399.108582 587.154663,406.203949 
	C573.869202,421.898315 560.780090,437.758850 547.534119,453.486908 
	C541.975037,460.087708 536.126465,466.444794 530.575073,473.051910 
	C518.202637,487.777222 505.959106,502.610718 493.616791,517.361450 
	C481.907410,531.355774 470.147095,545.307373 458.394287,559.265320 
	C448.782318,570.680664 439.191895,582.114624 429.512177,593.472351 
	C419.825195,604.838562 409.974915,616.065796 400.312653,627.452698 
	C387.438873,642.624390 374.768402,657.969177 361.838928,673.092834 
	C351.700226,684.952209 341.097809,696.418457 331.072357,708.370483 
	C320.209442,721.320801 309.998383,734.818909 299.101105,747.739075 
	C284.537018,765.006714 270.783905,782.763489 258.612335,801.886108 
	C236.620468,836.437317 221.607666,873.682373 212.461548,913.446960 
	C206.715027,938.431152 204.580765,963.835510 204.156204,989.385925 
	C204.046921,995.962524 205.399963,1002.555786 205.942596,1009.152771 
	C206.757782,1019.063232 206.514008,1029.162842 208.369064,1038.866821 
	C214.211548,1069.429565 220.693665,1099.872681 227.171204,1130.310425 
	C233.925079,1162.046631 241.120117,1193.689331 247.822403,1225.436157 
	C252.951920,1249.733521 257.385315,1274.178223 262.542267,1298.469482 
	C269.211731,1329.885498 276.291473,1361.214600 283.197601,1392.580444 
	C288.038605,1414.567139 293.037354,1436.520386 297.682434,1458.548340 
	C301.779480,1477.977783 305.379639,1497.511353 309.388885,1516.959839 
	C314.271088,1540.643188 318.819397,1564.414551 324.504395,1587.907715 
	C329.641663,1609.137695 335.605469,1630.205933 342.206573,1651.027832 
	C345.690491,1662.017212 351.276398,1672.344849 355.977570,1682.942627 
	C363.550415,1700.013672 373.608124,1715.663452 384.161591,1730.961914 
	C397.426392,1750.190674 413.423492,1767.068359 430.153381,1783.325806 
	C447.852783,1800.525146 467.432739,1815.047607 488.520630,1827.843994 
	C513.414734,1842.950195 539.584778,1855.024658 567.381592,1863.504395 
	C591.209412,1870.773438 615.636780,1876.382080 640.417297,1877.549316 
	C664.575562,1878.687134 688.982117,1880.054199 713.155396,1876.077881 
	C729.796875,1873.340454 746.537354,1871.146484 763.100952,1868.009399 
	C782.301514,1864.372803 801.444275,1860.336670 820.453796,1855.809326 
	C846.475525,1849.612061 873.370850,1846.386475 897.223816,1832.651245 
	C909.425842,1825.624878 920.753723,1817.731201 929.552856,1806.712158 
	C945.254028,1787.049316 954.925049,1764.665527 957.526001,1739.609375 
	C958.482361,1730.396118 958.659302,1720.838257 957.331482,1711.708008 
	C954.809753,1694.367432 951.226257,1677.162598 947.580627,1660.008301 
	C940.904114,1628.592651 933.825806,1597.262573 926.982544,1565.882202 
	C920.703308,1537.088013 914.426697,1508.292725 908.310730,1479.463501 
	C903.431458,1456.464111 898.825195,1433.406860 894.044495,1410.386353 
	C888.051758,1381.529541 882.083496,1352.667114 875.947754,1323.840698 
	C872.846497,1309.270386 869.222839,1294.810791 866.148254,1280.235229 
	C860.886230,1255.289673 855.873474,1230.291748 850.749207,1205.317261 
	C848.574036,1194.716064 846.381592,1184.118408 844.082825,1172.964966 
	C864.970032,1168.522095 884.988281,1164.169800 905.048645,1160.021606 
	C928.391235,1155.194824 951.798035,1150.676880 975.124146,1145.773438 
	C989.065735,1142.842651 1002.861389,1139.218750 1016.800049,1136.272705 
	C1060.862305,1126.959961 1104.952515,1117.778320 1149.050049,1108.633179 
	C1166.870605,1104.937500 1184.788330,1101.696655 1202.564331,1097.803955 
	C1212.481689,1095.632080 1222.198975,1092.546875 1233.492798,1090.008057 
	C1240.327515,1092.679932 1247.162109,1095.351807 1254.649902,1098.984497 
z"/>
<path fill="#D3E5F3" opacity="1.000000" stroke="none" 
	d="
M1232.006470,1089.873169 
	C1222.198975,1092.546875 1212.481689,1095.632080 1202.564331,1097.803955 
	C1184.788330,1101.696655 1166.870605,1104.937500 1149.050049,1108.633179 
	C1104.952515,1117.778320 1060.862305,1126.959961 1016.800049,1136.272705 
	C1002.861389,1139.218750 989.065735,1142.842651 975.124146,1145.773438 
	C951.798035,1150.676880 928.391235,1155.194824 905.048645,1160.021606 
	C884.988281,1164.169800 864.970032,1168.522095 844.082825,1172.964966 
	C846.381592,1184.118408 848.574036,1194.716064 850.749207,1205.317261 
	C855.873474,1230.291748 860.886230,1255.289673 866.148254,1280.235229 
	C869.222839,1294.810791 872.846497,1309.270386 875.947754,1323.840698 
	C882.083496,1352.667114 888.051758,1381.529541 894.044495,1410.386353 
	C898.825195,1433.406860 903.431458,1456.464111 908.310730,1479.463501 
	C914.426697,1508.292725 920.703308,1537.088013 926.982544,1565.882202 
	C933.825806,1597.262573 940.904114,1628.592651 947.580627,1660.008301 
	C951.226257,1677.162598 954.809753,1694.367432 957.331482,1711.708008 
	C958.659302,1720.838257 958.482361,1730.396118 957.526001,1739.609375 
	C954.925049,1764.665527 945.254028,1787.049316 929.552856,1806.712158 
	C920.753723,1817.731201 909.425842,1825.624878 897.223816,1832.651245 
	C873.370850,1846.386475 846.475525,1849.612061 820.453796,1855.809326 
	C801.444275,1860.336670 782.301514,1864.372803 763.100952,1868.009399 
	C746.537354,1871.146484 729.796875,1873.340454 713.155396,1876.077881 
	C688.982117,1880.054199 664.575562,1878.687134 640.417297,1877.549316 
	C615.636780,1876.382080 591.209412,1870.773438 567.381592,1863.504395 
	C539.584778,1855.024658 513.414734,1842.950195 488.520630,1827.843994 
	C467.432739,1815.047607 447.852783,1800.525146 430.153381,1783.325806 
	C413.423492,1767.068359 397.426392,1750.190674 384.161591,1730.961914 
	C373.608124,1715.663452 363.550415,1700.013672 355.977570,1682.942627 
	C351.276398,1672.344849 345.690491,1662.017212 342.206573,1651.027832 
	C335.605469,1630.205933 329.641663,1609.137695 324.504395,1587.907715 
	C318.819397,1564.414551 314.271088,1540.643188 309.388885,1516.959839 
	C305.379639,1497.511353 301.779480,1477.977783 297.682434,1458.548340 
	C293.037354,1436.520386 288.038605,1414.567139 283.197601,1392.580444 
	C276.291473,1361.214600 269.211731,1329.885498 262.542267,1298.469482 
	C257.385315,1274.178223 252.951920,1249.733521 247.822403,1225.436157 
	C241.120117,1193.689331 233.925079,1162.046631 227.171204,1130.310425 
	C220.693665,1099.872681 214.211548,1069.429565 208.369064,1038.866821 
	C206.514008,1029.162842 206.757782,1019.063232 205.942596,1009.152771 
	C205.399963,1002.555786 204.046921,995.962524 204.156204,989.385925 
	C204.580765,963.835510 206.715027,938.431152 212.461548,913.446960 
	C221.607666,873.682373 236.620468,836.437317 258.612335,801.886108 
	C270.783905,782.763489 284.537018,765.006714 299.101105,747.739075 
	C309.998383,734.818909 320.209442,721.320801 331.072357,708.370483 
	C341.097809,696.418457 351.700226,684.952209 361.838928,673.092834 
	C374.768402,657.969177 387.438873,642.624390 400.312653,627.452698 
	C409.974915,616.065796 419.825195,604.838562 429.512177,593.472351 
	C439.191895,582.114624 448.782318,570.680664 458.394287,559.265320 
	C470.147095,545.307373 481.907410,531.355774 493.616791,517.361450 
	C505.959106,502.610718 518.202637,487.777222 530.575073,473.051910 
	C536.126465,466.444794 541.975037,460.087708 547.534119,453.486908 
	C560.780090,437.758850 573.869202,421.898315 587.154663,406.203949 
	C593.161011,399.108582 599.576111,392.360626 605.642761,385.314789 
	C616.029724,373.251373 626.291748,361.080383 636.599548,348.948944 
	C640.896301,343.892090 645.132629,338.783325 649.470459,333.762146 
	C674.767334,304.480499 702.177917,277.481903 734.750610,256.242218 
	C773.373596,231.057434 815.773621,214.962097 860.877441,206.421280 
	C885.613892,201.737198 910.737671,198.383148 936.065002,200.140640 
	C951.560852,201.215912 967.108826,202.681091 982.393311,205.347382 
	C998.342224,208.129562 1014.190613,211.924911 1029.727539,216.487488 
	C1041.147583,219.841110 1052.032837,225.052933 1063.084961,229.609863 
	C1071.069092,232.901779 1078.935791,236.478256 1087.275879,240.663239 
	C1072.138062,256.890442 1055.957153,271.811920 1041.136230,287.979980 
	C995.000732,338.308807 961.957397,396.571259 940.150635,461.042694 
	C920.145630,520.187134 910.567871,581.084167 914.030029,643.671021 
	C914.966675,660.603943 915.875427,677.642090 918.534546,694.355469 
	C924.978149,734.854065 934.893738,774.389893 950.895325,812.455078 
	C980.029114,881.759827 1022.379822,941.520325 1077.368042,992.479492 
	C1111.045044,1023.688843 1148.591797,1049.403198 1189.740234,1069.782837 
	C1203.717285,1076.705200 1217.911499,1083.188965 1232.006470,1089.873169 
z"/>
<path fill="#2EA0DE" opacity="1.000000" stroke="none" 
	d="
M1232.749634,1089.940674 
	C1217.911499,1083.188965 1203.717285,1076.705200 1189.740234,1069.782837 
	C1148.591797,1049.403198 1111.045044,1023.688843 1077.368042,992.479492 
	C1022.379822,941.520325 980.029114,881.759827 950.895325,812.455078 
	C934.893738,774.389893 924.978149,734.854065 918.534546,694.355469 
	C915.875427,677.642090 914.966675,660.603943 914.030029,643.671021 
	C910.567871,581.084167 920.145630,520.187134 940.150635,461.042694 
	C961.957397,396.571259 995.000732,338.308807 1041.136230,287.979980 
	C1055.957153,271.811920 1072.138062,256.890442 1088.016846,240.803833 
	C1100.982056,230.461777 1113.334717,220.304718 1126.322021,211.036911 
	C1188.581665,166.607788 1257.435791,137.575211 1332.827637,124.708122 
	C1371.995361,118.023369 1411.575317,115.759445 1451.305298,118.440598 
	C1549.626587,125.075745 1638.136475,158.270737 1717.484131,216.564148 
	C1782.362061,264.227417 1832.339722,324.365601 1868.508911,396.049042 
	C1890.841309,440.309326 1906.631470,486.860596 1914.775391,535.857727 
	C1921.736938,577.740417 1923.980469,619.823486 1920.580200,662.235107 
	C1917.155762,704.947815 1909.252686,746.822205 1894.902344,787.080200 
	C1878.853638,832.102417 1857.034790,874.419067 1828.458862,913.000610 
	C1827.666504,914.070312 1826.967163,915.208862 1825.382202,917.295166 
	C1821.478516,922.631104 1818.656738,927.180786 1815.318726,931.313477 
	C1782.467285,971.986877 1745.066772,1007.894958 1701.776123,1037.304932 
	C1629.562012,1086.364258 1549.841797,1115.383667 1462.930054,1123.489380 
	C1429.801270,1126.579102 1396.442261,1126.302124 1363.267700,1122.099976 
	C1329.540161,1117.827637 1296.220215,1111.706421 1263.899536,1100.857056 
	C1262.048340,1100.235596 1260.007812,1100.177856 1258.055420,1099.857666 
	C1258.055420,1099.857666 1257.511841,1099.478760 1256.832886,1099.011230 
	C1255.434937,1098.370239 1254.715820,1098.197021 1253.996826,1098.023804 
	C1247.162109,1095.351807 1240.327515,1092.679932 1232.749634,1089.940674 
M1249.000000,703.419312 
	C1257.999268,703.426453 1266.998657,703.437988 1275.997925,703.439453 
	C1284.997437,703.440918 1294.001465,703.249512 1302.994995,703.480164 
	C1311.832275,703.706787 1320.792603,702.202026 1330.332275,704.734680 
	C1330.332275,708.672241 1330.332275,712.278381 1330.332275,715.884521 
	C1330.332275,760.548523 1330.340454,805.212463 1330.328247,849.876465 
	C1330.323608,867.026367 1335.107544,882.655029 1344.732666,896.887756 
	C1367.274414,930.220154 1409.527100,944.830139 1445.721313,931.420410 
	C1482.006592,917.977112 1504.665649,884.604004 1504.432373,848.867859 
	C1504.143066,804.539124 1504.312256,760.207214 1504.317993,715.876709 
	C1504.318481,712.020813 1504.577881,708.164917 1504.746704,703.486450 
	C1509.620361,703.486450 1513.240845,703.486023 1516.861328,703.486572 
	C1560.192017,703.493347 1603.523682,703.342346 1646.853149,703.575562 
	C1667.636353,703.687378 1686.265137,697.835571 1702.673218,685.173645 
	C1730.136719,663.980103 1741.889893,636.017029 1736.527710,601.760193 
	C1730.028442,560.239685 1693.742920,528.123352 1647.322266,528.450806 
	C1603.660278,528.758789 1559.994873,528.580322 1516.331055,528.615173 
	C1512.758301,528.618042 1509.185425,528.615601 1504.301758,528.615601 
	C1504.301758,523.896667 1504.299805,520.331909 1504.302124,516.767090 
	C1504.332153,471.436615 1504.407593,426.106079 1504.332642,380.775757 
	C1504.323853,375.477539 1504.039429,370.063080 1502.943726,364.901886 
	C1494.192505,323.680420 1451.149414,283.823181 1392.449585,299.696472 
	C1356.826294,309.329590 1330.652222,343.426697 1330.442383,380.274261 
	C1330.184448,425.603394 1330.374268,470.935028 1330.336792,516.265564 
	C1330.333618,520.125610 1330.076050,523.985413 1329.906860,528.665466 
	C1324.769043,528.665466 1320.824463,528.667725 1316.880005,528.665161 
	C1273.216064,528.636780 1229.551025,528.408569 1185.888306,528.630005 
	C1133.511108,528.895691 1097.067017,571.345215 1097.394653,617.687256 
	C1097.734131,665.748230 1139.909302,703.451904 1184.003906,703.336975 
	C1205.002319,703.282288 1226.001343,703.385864 1249.000000,703.419312 
z"/>
<path fill="#D3E5F3" opacity="1.000000" stroke="none" 
	d="
M1258.018921,1100.720215 
	C1260.007812,1100.177856 1262.048340,1100.235596 1263.899536,1100.857056 
	C1296.220215,1111.706421 1329.540161,1117.827637 1363.267700,1122.099976 
	C1396.442261,1126.302124 1429.801270,1126.579102 1462.930054,1123.489380 
	C1549.841797,1115.383667 1629.562012,1086.364258 1701.776123,1037.304932 
	C1745.066772,1007.894958 1782.467285,971.986877 1815.318726,931.313477 
	C1818.656738,927.180786 1821.478516,922.631104 1825.120972,917.915161 
	C1827.960327,928.573792 1830.141479,939.608704 1832.490234,950.607849 
	C1842.794312,998.863037 1853.199585,1047.096680 1863.468262,1095.359497 
	C1875.530029,1152.049927 1887.775879,1208.703735 1899.311646,1265.501587 
	C1902.662354,1281.999512 1904.019043,1298.916870 1905.964844,1315.679688 
	C1906.995239,1324.554688 1908.384888,1333.582153 1907.787598,1342.417480 
	C1905.530396,1375.802002 1902.504395,1409.024780 1892.209961,1441.296387 
	C1885.106079,1463.566162 1876.768311,1485.186646 1865.987793,1505.846191 
	C1854.737671,1527.406128 1841.568237,1547.745483 1825.197021,1565.854248 
	C1817.621826,1574.233521 1810.052734,1582.626465 1802.231934,1590.774170 
	C1777.594116,1616.442261 1748.876099,1636.833740 1717.346558,1652.843872 
	C1686.455933,1668.529297 1653.542236,1679.050049 1619.561523,1686.157471 
	C1594.927490,1691.310181 1570.218628,1696.264282 1545.864502,1702.551514 
	C1521.137085,1708.935181 1496.193359,1711.727051 1470.877197,1709.807373 
	C1452.708984,1708.429688 1435.986450,1701.580322 1420.739746,1691.725708 
	C1393.028198,1673.814209 1374.535278,1649.030884 1367.283936,1616.585449 
	C1359.842773,1583.291260 1352.913818,1549.882690 1345.727783,1516.531250 
	C1339.520996,1487.724365 1333.244995,1458.932251 1327.040649,1430.124634 
	C1318.114624,1388.680298 1309.169312,1347.239990 1300.339722,1305.774902 
	C1293.858765,1275.339233 1287.606079,1244.855103 1281.150269,1214.413940 
	C1273.524780,1178.457153 1265.778931,1142.525757 1258.141602,1106.571411 
	C1257.801392,1104.969482 1258.022705,1103.248413 1258.018921,1100.720215 
z"/>
<path fill="#D3E5F3" opacity="1.000000" stroke="none" 
	d="
M1254.323364,1098.504150 
	C1254.715820,1098.197021 1255.434937,1098.370239 1256.501953,1098.997559 
	C1256.116577,1099.295776 1255.383301,1099.140137 1254.323364,1098.504150 
z"/>
<path fill="#FCFDFD" opacity="1.000000" stroke="none" 
	d="
M1248.000000,703.418518 
	C1226.001343,703.385864 1205.002319,703.282288 1184.003906,703.336975 
	C1139.909302,703.451904 1097.734131,665.748230 1097.394653,617.687256 
	C1097.067017,571.345215 1133.511108,528.895691 1185.888306,528.630005 
	C1229.551025,528.408569 1273.216064,528.636780 1316.880005,528.665161 
	C1320.824463,528.667725 1324.769043,528.665466 1329.906860,528.665466 
	C1330.076050,523.985413 1330.333618,520.125610 1330.336792,516.265564 
	C1330.374268,470.935028 1330.184448,425.603394 1330.442383,380.274261 
	C1330.652222,343.426697 1356.826294,309.329590 1392.449585,299.696472 
	C1451.149414,283.823181 1494.192505,323.680420 1502.943726,364.901886 
	C1504.039429,370.063080 1504.323853,375.477539 1504.332642,380.775757 
	C1504.407593,426.106079 1504.332153,471.436615 1504.302124,516.767090 
	C1504.299805,520.331909 1504.301758,523.896667 1504.301758,528.615601 
	C1509.185425,528.615601 1512.758301,528.618042 1516.331055,528.615173 
	C1559.994873,528.580322 1603.660278,528.758789 1647.322266,528.450806 
	C1693.742920,528.123352 1730.028442,560.239685 1736.527710,601.760193 
	C1741.889893,636.017029 1730.136719,663.980103 1702.673218,685.173645 
	C1686.265137,697.835571 1667.636353,703.687378 1646.853149,703.575562 
	C1603.523682,703.342346 1560.192017,703.493347 1516.861328,703.486572 
	C1513.240845,703.486023 1509.620361,703.486450 1504.746704,703.486450 
	C1504.577881,708.164917 1504.318481,712.020813 1504.317993,715.876709 
	C1504.312256,760.207214 1504.143066,804.539124 1504.432373,848.867859 
	C1504.665649,884.604004 1482.006592,917.977112 1445.721313,931.420410 
	C1409.527100,944.830139 1367.274414,930.220154 1344.732666,896.887756 
	C1335.107544,882.655029 1330.323608,867.026367 1330.328247,849.876465 
	C1330.340454,805.212463 1330.332275,760.548523 1330.332275,715.884521 
	C1330.332275,712.278381 1330.332275,708.672241 1330.332275,704.734680 
	C1320.792603,702.202026 1311.832275,703.706787 1302.994995,703.480164 
	C1294.001465,703.249512 1284.997437,703.440918 1275.997925,703.439453 
	C1266.998657,703.437988 1257.999268,703.426453 1248.000000,703.418518 
z"/>
</svg>