<svg xmlns="http://www.w3.org/2000/svg" viewBox="0 0 500 500" style="width:100%;height:100%;content-visibility:visible"><g clip-path="url(#__lottie_element_23)"><g mask="url(#__lottie_element_27_2)" fill="#0da5e8"><path d="m269.653 142.05 98.73 98.249a18.52 18.52 0 0 0-15.445 18.27v110.675l-.028.445-74.219.018.167 18.502h76.348c8.973 0 16.252-8.492 16.252-18.965V258.57h18.52c8.908 0 12.658-11.566 5.741-17.187l-119.63-119.056a9.3 9.3 0 0 0-3.019-1.944c-.389-.148-.796-.13-1.194-.232h-2.019c-.398.102-.806.084-1.194.232a9.3 9.3 0 0 0-3.02 1.944l-119.63 119.056c-6.916 5.621-3.166 17.187 5.742 17.187h18.52v110.675c0 10.473 7.278 18.965 16.251 18.965h95.415l.176-18.502-93.294-.018-.028-.445V258.57c0-9.177-6.686-16.807-15.446-18.27l98.73-98.249"/><path d="M253.606 193.74a18.52 18.52 0 1 0 37.03.009 18.52 18.52 0 0 0-37.03-.01m-37.04 111.121a9.26 9.26 0 1 0-18.52 0v46.3a9.26 9.26 0 0 0 9.26 9.26h46.3V341.9h-37.04z"/></g><path fill="#2a404a" d="M-3.999-12.999c-4.962 0-9 4.037-9 9 0 4.962 4.038 9 9 9s9-4.038 9-9c0-4.963-4.038-9-9-9m0 16c-3.86 0-7-3.14-7-7s3.14-7 7-7 7 3.14 7 7-3.14 7-7 7M-6.2-8.598a1 1 0 0 1-.197 1.401 3.97 3.97 0 0 0-1.602 3.198 1 1 0 1 1-2 0c0-1.874.896-3.667 2.398-4.797a1 1 0 0 1 1.401.198m21.265 19.162L6.39 1.98a11.9 11.9 0 0 0 1.611-5.979c0-6.617-5.384-12-12-12-6.617 0-12 5.383-12 12 0 6.616 5.383 12 12 12 2.178 0 4.216-.592 5.979-1.611l8.587 8.678c.62.62 1.436.931 2.251.931.814 0 1.63-.311 2.25-.931a3.186 3.186 0 0 0-.003-4.504m-1.264 2.87c-.033-.046-.052-.099-.093-.14L7.415 7.001l.6-.6 5.639 5.58c.396.396.431.997.147 1.453m-27.8-17.433c0-5.514 4.486-10 10-10s10 4.486 10 10-4.486 10-10 10-10-4.486-10-10M5.237 3.652l1.357 1.342-1.6 1.6-1.342-1.357a12 12 0 0 0 1.585-1.585M-2.999-8.999a1 1 0 1 1-2 0 1 1 0 0 1 2 0" transform="rotate(112.289 19.488 217.536)scale(7)" style="display:block"/></g></svg>