<svg xmlns="http://www.w3.org/2000/svg" enable-background="new 0 0 2564.086 1596.532" viewBox="109.106 98.878 2325.698 1489.602" width="360" height="360"><path fill="#92dbf9" d="M261.263 1454.016s-44.399-214.232-46.407-451.844c-2.008-237.611 80.359-96.181 84.344-192.966 3.985-96.786-106.159-547.829-3.911-599.055s727.637 50.745 851.571 63.933 69.876-121.502 254.493-106.298c184.616 15.204 526.022 44.192 672.502 252.299s182.615 118.057 234.809 233.272-7.874 770.106-44.086 801.63c-36.214 31.524-1984.728 104.339-2003.315-.971z" class="svgShape colorfff3e1-0 selectable"></path><path fill="#f4dec3" d="M1256.412 309.172c0-3.931 6.098-3.924 6.098 0v269.753h5.932l-1.637-278.219-231.144 4.908 3.273 273.311h217.479V309.172z" class="svgShape colorf4dec3-1 selectable"></path><path fill="#fff3e1" d="M1056.935 323.616h182.048v237.305h-182.048z" class="svgShape colorfff3e1-2 selectable"></path><path fill="#f4dec3" d="M969.998 309.172c0-3.931 6.098-3.924 6.098 0v269.753h5.932l-1.637-278.219-231.144 4.908 3.273 273.311h217.479V309.172z" class="svgShape colorf4dec3-3 selectable"></path><path fill="#fff3e1" d="M770.521 323.616h182.048v237.305H770.521z" class="svgShape colorfff3e1-4 selectable"></path><path fill="#4a3333" d="M1370.02 660.015h198.982v124.364H1370.02zM1370.02 1181.386h198.982v124.364H1370.02z" class="svgShape color4a3333-5 selectable"></path><path fill="#847895" d="M1614.079 1504.29c0 4.894-16.984 5.908-420.178 4.431-400.238-1.466-489.749.463-489.749-4.431s257.691-8.861 489.749-8.861 420.178 3.967 420.178 8.861z" class="svgShape color847895-6 selectable"></path><path fill="#4a3333" d="M1362.367 662.885h15.507v831.522h-15.507z" class="svgShape color4a3333-7 selectable"></path><path fill="#4a3333" d="M1461.871 552.379h15.507v214.516h-15.507z" transform="rotate(90 1469.624 659.637)" class="svgShape color4a3333-8 selectable"></path><path fill="#6c4e4e" d="M733.404 1386.626v117.295h843.384v-117.295H733.404zm828.547 105.11H748.24v-88.361h813.711v88.361z" class="svgShape color6c4e4e-9 selectable"></path><path fill="#efb44b" d="M733.924 1306.354s840.43-5.908 843.384 1.477c2.954 7.384 4.431 75.322 1.477 79.014-2.954 3.692-844.122 5.908-847.814.738-3.693-5.169-2.216-79.014 2.953-81.229z" class="svgShape colorefb44b-10 selectable"></path><path fill="#d89b39" d="M932.425 1310.252c-.014-2.728-4.227-2.733-4.24 0-.211 42.277-.427 28.159.104 70.651.032 2.594 4 2.599 4.033 0 .343-27.537.241-43.019.103-70.651z" class="svgShape colord89b39-11 selectable"></path><path fill="#644620" d="M937.847 1305.749s6.361 1.979 7.653 7.653c1.996 8.763 20.427 69.835 40.179 69.835 18.176 0 114.343-4.884 153.79-5.74 15.687-.34 76.211 6.113 94.708 5.74 108.399-2.187 206.969-7.814 218.115-8.61 40.179-2.87 116.71-3.827 116.71-3.827l-631.155-65.051z" class="svgShape color644620-12 selectable"></path><path fill="#6c4e4e" d="M1149.209 437.415h15.507v847.038h-15.507z" transform="rotate(90 1156.962 860.933)" class="svgShape color6c4e4e-13 selectable"></path><path fill="#efb44b" d="M733.924 772.394s840.43-5.908 843.384 1.477c2.954 7.385 4.431 75.322 1.477 79.014-2.954 3.692-844.122 5.908-847.814.739-3.693-5.17-2.216-79.015 2.953-81.23z" class="svgShape colorefb44b-14 selectable"></path><path fill="#644620" d="M940.716 770.986s6.697 3.826 6.697 28.699c0 39.269 3.826 48.789 11.48 49.745 2.382.298 130.623.521 194.668.336 33.941-.098 72.087-4.742 112.185-5.12 31.861-.3 65.252 3.728 96.621 3.196 94.041-1.596 177.15-4.35 197.068-8.935 50.702-11.67-595.136-72.786-618.719-67.921z" class="svgShape color644620-15 selectable"></path><path fill="#d89b39" d="M932.425 782.032c-.014-2.728-4.227-2.733-4.24 0-.211 42.277-.427 28.159.104 70.651.032 2.595 4 2.599 4.033 0 .343-27.537.241-43.019.103-70.651z" class="svgShape colord89b39-16 selectable"></path><path fill="#4a3333" d="M1561.28 651.406h15.507v852.369h-15.507z" class="svgShape color4a3333-17 selectable"></path><path fill="#fff" d="M1576.787 755.68s-544.233 1.913-617.895-.957c0 0-220.196-5.661-233.505 3.866-13.309 9.527-15.253 47.343-11.889 63.353 3.363 16.009 15.546 14.051 15.547 14.051-.641-23.512 1.167-62.009 4.878-63.599 0 0 88.92-.698 206.618-1.314 4.852-.025 8.858 3.796 9.044 8.644.639 16.67 2.682 51.878 8.437 56.175 10.436 7.792 637.337 0 637.337 0s15.735-80.219-18.572-80.219z" class="svgShape colorffffff-18 selectable"></path><path fill="#644620" d="M729.046 1370.756s3.122-54.484 7.905-56.397c4.783-1.913 66.965-8.61 87.055-8.61 20.089 0-81.117-8.61-95.087 0-13.97 8.61.127 65.007.127 65.007z" class="svgShape color644620-19 selectable"></path><path fill="#fff" d="M1576.787 1290.443s-544.233 1.913-617.895-.957c0 0-220.196-5.661-233.505 3.866-13.309 9.527-15.253 47.344-11.889 63.353 3.363 16.009 15.546 14.051 15.547 14.051-.641-23.513 1.167-62.009 4.878-63.599 0 0 88.92-.698 206.618-1.314 4.852-.025 8.052 3.895 9.044 8.644 3.568 17.092 25.555 52.974 31.31 57.271 10.436 7.792 614.465-1.095 614.465-1.095s15.734-80.22-18.573-80.22zM1569.001 752.81c0-.327-4.74-2.987-5.058-7.322-.759-10.34 17.589-18.904 20.364-30.944 3.219-13.966-8.651-31.543-2.783-45.131 14.031-32.492 19.938-38.399 12.554-44.307-7.384-5.908-79.753 5.169-96.737 2.954-16.984-2.215-58.707-2.585-66.83 1.846-4.44 2.422-23.878 31.604-31.323 58.078-7.445 26.474-24.782 58.513-21.09 62.944 3.154 3.784 136.907 11.719 175.597 7.621 6.607-.699 15.306-4.447 15.306-5.739z" class="svgShape colorffffff-20 selectable"></path><path fill="#e5eaec" d="M1585.958 627.747c-9.614.982-18.248 7.301-23.488 15.243-5.526 8.377-6.981 18.924-4.384 28.574 1.279 4.756 3.525 9.273 6.617 13.112-10.287 5.589-13.856 17.752-17.041 28.392-1.793 5.99-3.934 11.734-7.48 16.927a47.922 47.922 0 0 1-11.515 11.792c-5.109 3.678-10.855 6.316-16.941 7.903-2.125.554-1.223 3.724.902 3.272 10.984-2.334 21.047-8.908 28.071-17.613 3.75-4.647 6.569-9.815 8.58-15.433 2.272-6.346 3.584-13.061 6.372-19.219 2.555-5.643 6.439-11.286 12.375-13.719 1.225-.502 1.784-1.919.786-2.976-6.434-6.815-9.652-16.122-8.936-25.463.69-8.992 5.625-17.278 12.767-22.689 4.023-3.048 8.69-5.134 13.532-6.503.85-.24.726-1.697-.217-1.6z" class="svgShape colore5eaec-21 selectable"></path><path fill="#e5eaec" d="M1542.31 756.924c-7.757-1.482-22.068-6.709-23.054-25.16-1.357-25.396 1.828-82.638 1.828-82.638s-35.209 12.581-63.481 49.522c-18.365 23.997-36.234 40.891-35.973 56.468 37.754 1.955 90.857 3.187 120.68 1.808z" class="svgShape colore5eaec-22 selectable"></path><path fill="#fff" d="M1441.483 1291.031s-55.2-41.724-40.851-61.813 67.27-90.381 90.881-96.621c23.611-6.24 104.925 55.791 117.036 86.251 12.111 30.46-39.548 72.183-39.548 72.183h-127.518z" class="svgShape colorffffff-23 selectable"></path><path fill="#e5eaec" d="M1530.899 1215.093c-8.862-15.095-43.994-25.367-75.23-44.343-24.378 23.146-47.766 48.29-55.036 58.468-14.35 20.089 40.851 61.813 40.851 61.813h48.117c3.28-2.598-2.617-8.282 8.61-25.461 9.993-15.291 37.767-41.826 32.688-50.477zM1600.223 1222.082c-3.44-2.188-7.544-.211-10.348 2.085-3.296 2.7-6.098 6.195-8.658 9.579-2.681 3.544-4.996 7.389-6.963 11.371-.975 1.973-1.796 4.006-2.665 6.026-.786 1.826-1.688 3.676-3.207 5.007-2.918 2.557-7.22 3.008-10.582 4.802-5.697 3.04-9.67 8.375-13.585 13.337-2.155 2.731-4.346 5.474-6.948 7.799-2.56 2.288-5.449 3.55-8.604 4.792-1.31.516-1.222 2.549.348 2.569 5.874.074 10.898-4.901 14.45-9.046 3.938-4.595 7.281-9.77 11.878-13.765 2.419-2.102 5.114-3.44 8.113-4.521 3.785-1.365 7.264-2.919 9.416-6.508.981-1.635 1.645-3.44 2.359-5.2a72.507 72.507 0 0 1 2.657-5.78c1.937-3.779 4.213-7.368 6.73-10.786a64.413 64.413 0 0 1 4.496-5.425c1.503-1.634 3.126-3.276 5.15-4.256 1.874-.907 3.966-1.094 5.67.251 1.396 1.102 2.234 2.936 1.126 4.52-.631.902.82 1.706 1.459.852 1.965-2.629.168-6.138-2.292-7.703z" class="svgShape colore5eaec-24 selectable"></path><path fill="#fff" d="M1320.274 1291.031s-14.696-25.605-25.829-47.464c-11.134-21.859 33.482-72.705 58.355-90.881 24.873-18.176 34.968-41.435 69.143-9.716 34.174 31.719 75.636 52.477 86.953 71.754 11.317 19.277-61.551 76.307-61.551 76.307h-127.071z" class="svgShape colorffffff-25 selectable"></path><path fill="#e5eaec" d="M1577.307 1311.414H969.512a1.913 1.913 0 0 1 0-3.826h607.795a1.913 1.913 0 0 1 0 3.826zM1491.378 1212.58c-3.624-2.665-7.888-3.784-12.373-3.647-4.555.139-8.933 1.434-12.943 3.571-4.048 2.158-7.666 5.111-10.894 8.351-3.291 3.304-6.399 6.93-8.753 10.971-2.265 3.888-3.927 8.442-3.549 13.007.096 1.162.299 2.306.61 3.429.283 1.025.707 2.11.535 3.189-.199 1.254-1.214 2.065-2.265 2.647-3.068 1.696-6.755 1.822-10.079 2.724-3.998 1.085-7.74 3.007-11.01 5.537-3.636 2.813-6.707 6.401-8.797 10.506-1.189 2.334-2.023 4.821-2.804 7.315-.857 2.738-1.833 5.394-2.886 8.06-.744 1.884 2.134 2.884 3.142 1.324 2.56-3.963 3.183-8.916 5.01-13.218 1.535-3.612 3.877-6.833 6.756-9.489 2.791-2.576 6.131-4.618 9.724-5.86 3.394-1.174 7.025-1.395 10.407-2.61 3.132-1.125 6.095-3.123 6.515-6.684.26-2.208-.769-4.196-1.062-6.339-.285-2.085-.015-4.196.569-6.205 1.235-4.248 3.841-8.05 6.655-11.409 2.79-3.331 5.852-6.532 9.333-9.15 3.91-2.941 8.336-5.145 13.174-6.018 4.603-.829 9.744-.299 13.998 1.688 1.151.539 2.001-.944.987-1.69z" class="svgShape colore5eaec-26 selectable"></path><path fill="#fff" d="M1491.265 764.623c0-1.477 2.568-51.239 16.599-83.731s19.938-38.399 12.554-44.307c-7.384-5.908-79.753 5.169-96.737 2.954-16.984-2.215-58.707-2.585-66.83 1.846-4.44 2.422-23.878 31.604-31.323 58.078-7.445 26.474-24.782 58.513-21.09 62.944s186.827 11.078 186.827 2.216z" class="svgShape colorffffff-27 selectable"></path><path fill="#e5eaec" d="M1516.272 645.394c-2.598-4.481-8.643-4.344-12.47-1.586-4.544 3.274-7.57 8.855-9.842 13.849-4.877 10.719-6.49 22.599-6.748 34.283-.152 6.875.653 13.865-1.584 20.498-.267.791.894 1.226 1.311.553 2.969-4.781 2.905-10.781 2.873-16.216-.032-5.517.177-11.039.834-16.519 1.287-10.731 4.411-21.699 10.891-30.504 1.645-2.235 3.809-4.527 6.569-5.294 2.273-.632 5.271-.251 6.783 1.743.606.796 1.915.11 1.383-.807z" class="svgShape colore5eaec-28 selectable"></path><path fill="#e5eaec" d="M1508.733 682.976a.956.956 0 0 1-.878-1.337c2.262-5.24 4.286-9.805 6.071-13.833 9.501-21.439 11.323-26.129 5.894-30.473-3.963-3.17-32.927-.984-56.201.771-18.865 1.422-36.682 2.766-43.977 1.815a.957.957 0 1 1 .248-1.898c7.1.925 24.823-.411 43.585-1.826 32.01-2.414 53.307-3.742 57.54-.356 6.77 5.416 3.963 11.751-5.34 32.742-1.783 4.024-3.805 8.586-6.063 13.817a.96.96 0 0 1-.879.578z" class="svgShape colore5eaec-29 selectable"></path><path fill="#f1e6dc" d="M1374.092 506.397c-.29.02-6.585 1.636-6.869 1.673-9.634 1.27-31.057-5.355-39.759-6.561-4.542-.629-9.16-.893-13.734-.48-2.3.207-4.588.587-6.82 1.184-1.738.465-4.062 1.938-5.808 1.85-.2-2.912-1.667-5.804-3.704-7.86-4.01-4.046-10.597.03-13.258-5.008-1.128.812-3.688 1.976-4.105 3.389-.05.168-.068.342-.063.518.024.85.597 1.772.905 2.498.697 1.64 1.393-2.205 2.09-.564l5.541 13.046 4.848 11.416 88.357 79.587.643-.183c1.986-.942 2.043-.913 4.003-1.906-2.117-12.172-11.42-90.197-12.267-92.599z" class="svgShape colorf1e6dc-30 selectable"></path><path fill="#5f7ab3" d="M1337.347 598.581s42.83 6.595 43.894 4.85c1.064-1.746-7.655-89.83-9.477-89.983-16.947-1.422-85.24-5.367-72.783-4.322-2.733-.229-18.284-17.149-22.005-16.544-3.72.605 22.359 83.527 26.609 87.553 4.25 4.027 33.762 18.446 33.762 18.446z" class="svgShape color5f7ab3-31 selectable"></path><path fill="#464c7b" d="M1326.44 583.793c-7.345-22.901-13.969-46.227-20.112-69.479-.487-1.843-2.325-.658-1.812 1.227 6.383 23.456 12.026 46.488 20.096 69.166.635 1.785 2.416.917 1.828-.914zM1319.091 584.761c-6.044-19.329-10.75-34.806-16.927-54.092-.297-.926-1.807-.662-1.51.283 6.086 19.311 10.61 34.841 16.829 54.111.317.983 1.924.708 1.608-.302z" class="svgShape color464c7b-32 selectable"></path><path fill="#e7926b" d="M1354.689 635.174s1.269-10.274 1.536-13.345c.267-3.071 10.796-29.395 12.551-37.511 1.755-8.116 4.866-10.343 1.22-10.308-6.903.066-9.823 16.45-14.162 16.889 0 0-4.387 3.51-4.168-6.8s3.848-22.761-1.417-23.224c-5.265-.463-8.454 27.392-9.332 27.831-.878.439.658-11.626 0-18.646-.658-7.02 2.97-13.816-1.856-15.132-4.826-1.316-7.373 15.571-7.373 15.571s-.086-14.518-5.131-13.948c-5.045.57-4.506 13.948-4.506 22.284 0 4.168.205 11.848.205 11.848l-4.763-2.214s4.718 7.523 4.548 7.329c-.56-.643 32.648 39.376 32.648 39.376z" class="svgShape colore7926b-33 selectable"></path><path fill="#de835c" d="M1333.787 588.96c-.139-1.042-.285-2.08-.451-3.118-.37-2.319-.412-4.714-.468-7.06a181.299 181.299 0 0 1-.038-6.637c.027-2.144.3-4.449-.061-6.568-.11-.647-1.084-.577-1.24 0-.576 2.136-.427 4.607-.451 6.805-.025 2.212-.008 4.425.046 6.637.054 2.206.215 4.432.151 6.631a57.983 57.983 0 0 0-.016 3.31c.032 1.158-.079 2.391.513 3.418.523.907 1.801.637 2.117-.277.35-1.01.036-2.102-.102-3.141zM1364.693 635.986l-11.339 13.14 16.242 28.898 18.207-31.508c.001 0-14.108-11.422-23.11-10.53z" class="svgShape colorde835c-34 selectable"></path><path fill="#ada163" d="m1459.275 708.065-3.175 5.511s3.745 5.645 3.175 19.323c-.57 13.678-3.827 26.705-14.248 35.172h-229.561s-88.89-39.816-73.849-103.295c11.918-50.299 72.18-16.518 72.18-16.518s1.961-3.819 13.034-50.184c9.914-41.515 36.738-40.872 52.758-39.08 22.015 2.464 91.838 99.002 91.838 99.002l5.862 7.165-.161-2.492s38.426-7.445 82.147 45.396z" class="svgShape colorada163-35 selectable"></path><path fill="#847535" d="M1456.1 714.533a.954.954 0 0 1-.685-.289c-44.458-45.585-73.556-45.004-73.85-45.002a.957.957 0 0 1-.08-1.912c1.204-.055 30.142-.725 75.299 45.577a.957.957 0 0 1-.684 1.626zM1234.931 705.092c15.14 7.513 19.068 21.587 31.799 32.653 11.936 10.375 32.861 17.758 42.891 29.982l23.103-.288-4.601-7.122-23.708-44.137-22.427-38.155s-5.655 7.816-9.563 13.189c-3.908 5.373-27.082-8.216-27.082-8.216l-24.837 15.908a138.042 138.042 0 0 1 14.425 6.186z" class="svgShape color847535-36 selectable"></path><path fill="#f6b542" d="M1536.254 563.216s3.308 1.335 2.251 5.133c-.316 1.135-2.309 3.636-2.749 5.104-.692 2.311 1.172 3.288.131 6.414-2.654 7.965-7.34 12.802-12.863 25.912-8.651 20.536-32.959 39.846-39.748 63.452-16.147 56.146-25.79 41.938-25.79 41.938l1.789-3.104c-6.844-7.562-46.988-49.844-84.266-45.184l10.258-15.632s-11.852-10.53-20.574-11.263c0 0 18.217-28.306 31.12-41.495 12.902-13.19 55.681-10.991 55.681-10.991h17.642s11.796-6.701 20.089-8.42c0 0-3.921-3.911 0-4.782s1.757-3.473 1.757-3.473-2.198-1.721.866-3.275c3.064-1.554 2.43-10.933 7.241-10.795 32.364.93 38.162 10.505 37.165 10.461z" class="svgShape colorf6b542-37 selectable"></path><path fill="#fff3e1" d="M1513.635 623.06c-4.973 6.633-16.023 13.269-23.119 17.234-6.72 3.755-13.909 8.04-17.351 15.218-1.38 2.877 1.165 3.663 2.378 1.469 3.962-7.163 10.347-11.808 17.387-15.544 6.88-3.652 18.467-10.326 22.474-17.343.67-1.176-.998-2.063-1.769-1.034z" class="svgShape colorfff3e1-38 selectable"></path><path fill="#fff" d="m1468.621 579.71-17.127 3.79s-9.538-.489-20.965.383c-.924 2.489-1.609 5.064-2.149 7.669-3.408 16.459 6.719 22.013 10.573 21.97 7.691.327 14.884-3.942 21.162-8.088 18.924-12.495 25.429-28.079 25.56-29.4-7.74 2.469-17.054 3.676-17.054 3.676z" class="svgShape colorffffff-39 selectable"></path><path fill="#e7926b" d="M1546.548 483.602s2.46-35.526-13.754-35.172c-16.215.355-52.83 73.177-62.281 84.513-9.45 11.336-1.377 42.137-1.377 42.137s36.144-44.003 38.796-45.913l.257-.185-.257.185s-7.627 20.282-9.587 25.614c0 0 34.367 19.691 36.891 15.12 6.824-12.358 11.446-50.841 11.312-86.299z" class="svgShape colore7926b-40 selectable"></path><path fill="#de835c" d="M1511.063 503.051c-2.36 5.76-27.01 26.492-43.316 34.941-4.797 13.487 1.389 37.088 1.389 37.088s36.144-44.003 38.796-45.913l.257-.185-.257.185s-2.215 5.893-4.673 12.448c8.293-13.04 7.804-38.564 7.804-38.564zm-2.035 25.327-.244.176.244-.176z" class="svgShape colorde835c-41 selectable"></path><path fill="#de835c" d="M1512.561 496.552c-.767 2.948-1.467 5.838-1.883 8.861-.408 2.966-.655 5.941-.852 8.927-.193 2.922-1.275 6.274-1.664 9.178-.195 1.462-3.348 11.354-3.685 12.796-.344 1.472-.934 2.88-1.223 4.362-.191.977 1.102 1.613 1.653.697.714-1.189 3.535-6.808 4.121-8.054 1.041-2.213 2.18-7.901 2.218-9.118.092-2.922.641-5.856.815-8.769.369-6.167.91-12.374 2.07-18.447.196-1.016-1.303-1.46-1.57-.433z" class="svgShape colorde835c-42 selectable"></path><path fill="#4a3333" d="M1494.544 483.674s11.771-7.186 10.598-21.436c-.818-9.94-11.097-11.5-17.24-11.535a6.286 6.286 0 0 1-5.671-3.609c-1.916-4.076-7.085-9.95-20.982-10.24-21.375-.445-13.017 31.143-13.017 31.144-2.53-.78-5.205-1.283-7.981-1.337-12.686-.25-17.033 7.105-17.984 11.737-1.341-.599-18.16-7.337-18.633 10.752-1.095 2.646-1.64 5.477-1.835 8.339-.391 5.732.401 11.882 2.964 17.072 1.401 2.836 3.358 5.223 5.914 7.086.778.567 1.761-.706 1.032-1.338-4.951-4.293-6.862-10.995-7.158-17.34a44.355 44.355 0 0 1 .007-4.569c3.378 15.135 14.676 20.803 14.676 20.803s51.812 34.107 56.248 29.814c.865-.837 1.7-1.789 2.506-2.83.197.615.419 1.22.708 1.789.715 1.407 1.93 2.514 3.539 2.691 1.492.165 2.885-.499 3.82-1.646.578-.708-.398-1.728-1.021-1.021-.68.771-1.893.965-2.84.622-1.076-.39-1.622-1.449-1.965-2.474a22.16 22.16 0 0 1-.525-1.864c4.269-2.791 11.867-10.238 17.382-29.496 4.727-16.515 2.356-29.778-2.542-31.114z" class="svgShape color4a3333-43 selectable"></path><path fill="#e7926b" d="M1475.449 580.721c-7.354 8.482-19.349 20.365-31.779 22.127 0 0-10.837.026-7.531-15.103a905.649 905.649 0 0 1 2.157-9.542c.578-2.148.931-3.516 1.912-7.94.442-1.994.666-3.762.872-5.064.153-1.002 37.961-36.176 37.961-36.176s-7.215 39.74-3.592 51.698z" class="svgShape colore7926b-44 selectable"></path><path fill="#1a1a1a" d="M1470.303 551.248c.431-2.647-.062-4.297-1.027-5.141-.536-.474-1.232-.689-2.051-.697-2.648-.035-6.729 2.19-11.287 5.269-7.896 7.467-14.793 14.093-14.858 14.52-.207 1.302-.43 3.07-.872 5.064-.981 4.424-1.334 5.792-1.912 7.94.108-.001 3.771-.175 3.656-.091 7.848-.872 24.551-3.526 28.351-26.864z" class="svgShape color1a1a1a-45 selectable"></path><path fill="#e7926b" d="M1417.727 524.505c.98 4.028 4.258 35.836 13.977 43.445 5.136 4.021 16.707 2.395 22.032.716 16.398-5.17 22.827-18.461 22.56-31.57 0 0 13.007-10.084 3.697-20.522-6.341-7.109-13.328 5.273-13.328 5.273s-4.242-4.278-9.03-15.234c-9.453 3.248-31.405 3.298-38.856-3.759.001-.001-2.659 15.045-1.052 21.651z" class="svgShape colore7926b-46 selectable"></path><path fill="#1a1a1a" d="M1446.26 525.087c.369-.537.854-.885 1.458-.929.068-.016.135-.028.201-.038.025-.007.046-.019.073-.021.026-.002.045.004.07.003 2.077-.184 3.161 2.499 2.474 4.24-.054.398-.187.774-.479 1.052a1.946 1.946 0 0 1-1.073.497c-.031.022-.058.047-.098.063-.918.362-1.682-.057-2.199-.801-1.084-.968-1.294-2.804-.427-4.066zM1420.566 529.225c.63-1.28 2.216-1.771 3.45-1.038.109.065.21.143.305.228.323.264.547.635.614 1.075.01.051.016.102.021.153.001.016.006.03.006.047.027.781.036 1.576-.302 2.302-.65 1.399-2.447 1.522-3.532.576-.945-.822-1.1-2.25-.562-3.343z" class="svgShape color1a1a1a-47 selectable"></path><path fill="#d25c48" d="M1434.191 544.599c-.025-.711.56-1.35 1.277-1.368l2.117-.053c.714-.018 1.343.558 1.368 1.277.025.711-.561 1.35-1.277 1.368l-2.117.053c-.714.018-1.343-.558-1.368-1.277z" class="svgShape colord25c48-48 selectable"></path><path fill="#4a3333" d="M1442.687 514.797c1.838.201 3.691.113 5.519.415 1.855.306 3.667.845 5.508 1.223 1.661.34 1.273 2.96-.402 2.617-1.84-.377-3.653-.923-5.508-1.223-1.829-.295-3.681-.214-5.519-.415-1.693-.186-1.292-2.803.402-2.617zM1416.132 520.896c.656-1.52 1.76-2.386 3.076-3.315 1.382-.976 3.067 1.068 1.67 2.054-.871.615-1.821 1.152-2.26 2.169-.672 1.56-3.161.658-2.486-.908z" class="svgShape color4a3333-49 selectable"></path><path fill="#fff" d="M1436.572 555.56s7.714-1.569 12.395-2.711c4.681-1.143-2.296 7.578-6.656 7.578-4.361-.001-2.25-2.251-5.739-4.867z" class="svgShape colorffffff-50 selectable"></path><path fill="#de835c" d="M1483.276 556.324s-3.878 10.853-3.666 13.242c.212 2.389-1.062 6.636-1.062 6.636s-4.175 1.722-5.034-6.438c-.859-8.161 4.723-16.861 9.762-13.44z" class="svgShape colorde835c-51 selectable"></path><path fill="#847535" d="M1410.724 712.179a1.912 1.912 0 0 1-1.694-1.022c-17.707-33.601-99.598-126.19-100.424-127.122a1.914 1.914 0 0 1 2.864-2.538c3.381 3.817 83.022 93.867 100.945 127.875a1.914 1.914 0 0 1-1.691 2.807zM1281.987 672.421a1.914 1.914 0 0 1-1.442-3.17c21.665-24.862 21.956-55.425 21.956-55.731a1.913 1.913 0 0 1 1.913-1.911h.001a1.913 1.913 0 0 1 1.912 1.913c0 1.305-.26 32.266-22.898 58.243a1.904 1.904 0 0 1-1.442.656z" class="svgShape color847535-52 selectable"></path><path fill="#847535" d="M1297.708 645.395a.957.957 0 0 1-.953-1.047c2.432-25.528-12.193-60.858-12.34-61.212a.956.956 0 1 1 1.764-.738c.15.358 14.958 36.123 12.48 62.131a.956.956 0 0 1-.951.866zM1328.461 766.638a1.912 1.912 0 0 1-1.696-1.026c-11.981-22.873-46.103-83.726-46.445-84.338a1.914 1.914 0 0 1 3.336-1.873c.344.613 34.491 61.513 46.498 84.434a1.914 1.914 0 0 1-1.693 2.803zM1438.535 730.662a.958.958 0 0 1-.886-.595c-6.129-15.002-15.275-22.811-21.867-26.719-7.15-4.239-12.932-4.942-12.99-4.949a.958.958 0 0 1 .215-1.901c.241.027 24.24 3.051 36.413 32.845a.957.957 0 0 1-.885 1.319z" class="svgShape color847535-53 selectable"></path><path fill="#d89b39" d="M1401.194 615.619c-2.29 7.994-6.899 14.934-12.153 21.28-1.239 1.496-2.75 2.93-3.742 4.607-1.033 1.748-1.139 3.89-1.167 5.873a22.667 22.667 0 0 0 .752 6.028c.468 1.794 1.067 4.039 2.33 5.435.756.836 2.029-.055 1.799-1.047-.23-.993-.804-1.898-1.162-2.852a23.172 23.172 0 0 1-.845-2.763 23.57 23.57 0 0 1-.65-6.04c.028-1.082.106-2.223.588-3.212.429-.881 1.113-1.614 1.744-2.353a149.68 149.68 0 0 0 3.649-4.417c4.71-5.967 8.991-12.528 10.486-20.091.208-1.055-1.327-1.504-1.629-.448zM1509.816 573.732c-1.486-.875-3.072-1.577-4.579-2.417-1.557-.867-3.113-1.745-4.629-2.682-1.391-.86-2.779-1.752-4.005-2.841-.64-.568-1.229-1.189-1.719-1.891-.468-.671-.766-1.439-1.212-2.123-.465-.714-1.368-.109-1.375.559-.019 1.642 1.244 3.247 2.332 4.366 1.271 1.307 2.78 2.338 4.311 3.313 1.559.993 3.15 1.953 4.811 2.767 1.703.835 3.471 1.739 5.297 2.268.75.218 1.592-.834.768-1.319z" class="svgShape colord89b39-54 selectable"></path><path fill="#1a1a1a" d="M1254.083 675.43s-3.21 4.057-7.519 10.476c4.885 2.446 21.957 10.668 24.258 7.272 2.69-3.969-16.739-17.748-16.739-17.748z" class="svgShape color1a1a1a-55 selectable"></path><path fill="#847535" d="M1228.246 700.148a.951.951 0 0 1-.454-.115c-28.381-15.365-41.149-21.078-41.275-21.134a.956.956 0 1 1 .778-1.748c.127.056 12.948 5.792 41.408 21.199a.956.956 0 0 1-.457 1.798z" class="svgShape color847535-56 selectable"></path><path fill="#de835c" d="M1305.224 751s-12.357-1.615-26.395-11.083c-18.086-12.199-24.746-26.34-49.232-38.324-17.107-8.373-15.979 37.272-15.979 37.272s20.264 28.093 51.12 23.487c30.856-4.605 40.487-9.211 40.487-9.211M1358.614 602.463c-1.695 2.607-5.178 1.814-7.263.218-.916-.701-1.823-1.499-3.032-.857-1.018.54-1.495 1.808-2.638 2.105-1.353.352-2.639-.442-3.523-1.398-.846-.914-1.267-2.288-2.262-3.041-.966-.73-2.198-.593-3.182.04-.3.193-2.419 2.649-2.713 2.223-.821-1.187-2.778-.06-1.949 1.139.737 1.067 1.97 1.391 3.182.925.718-.277 1.24-.822 1.734-1.391.226-.261.428-.571.696-.79.479-.39.64-.503 1.088-.079.493.467.834 1.358 1.261 1.903a8.378 8.378 0 0 0 1.568 1.563c1.175.88 2.603 1.339 4.073 1.153a4.51 4.51 0 0 0 1.78-.601c.434-.263 1.161-1.374 1.586-1.474.128-.03 1.002.833 1.33 1.063a9.272 9.272 0 0 0 2.379 1.186c2.859.949 6.262-.044 7.551-2.914.5-1.116-.976-2.033-1.666-.973z" class="svgShape colorde835c-57 selectable"></path><path fill="#e7926b" d="M1254.083 675.43s-29.545 37.344-29.73 64.718c-.07 10.419 3.989 18.993 3.989 18.993 2.107 8.028-7.637 9.899-15.949 9.899-8.312 0-11.178-4.992-20.923-2.699-19.257 4.531-71.367 2.699-71.367 2.699-2.513 0-7.958-.646-10.128-1.913-3.581-2.091-7.983-5.633-5.063-9.282 4.583-5.729 1.743-1.693 15.493-1.693s46.096-20.365 55.263-29.818c9.167-9.453 38.13-78.077 38.13-78.077s34.842 19.439 40.285 27.173z" class="svgShape colore7926b-58 selectable"></path><path fill="#e7926b" d="M1304.967 767.438h-100.903c-3.493-.249-7.385-.056-14.872-5.751-5.481-4.17-7.734-6.302-4.297-11.745 3.438-5.443-7.448-8.516-4.01-14.857 3.438-6.341 21.028-5.243 33.346-2.665 12.318 2.578 45.761 16.535 57.793 16.169 12.031-.366 19.639-5.936 30.158 0 10.519 5.936 2.785 18.849 2.785 18.849z" class="svgShape colore7926b-59 selectable"></path><path fill="#de835c" d="M1301.218 748.365c-3.384-3.702-9.332-3.448-13.88-2.709-2.968.483-5.871 1.297-8.843 1.759-3.174.494-6.253.228-9.394-.35-10.988-2.021-22.256-4.113-32.507-8.718-4.987-2.241-26.919-9.174-29.604-8.532-2.967.709-5.949-.583-8.889-.944a29.782 29.782 0 0 0-8.969.274c-4.545.829-10.194 4.017-8.977 9.526.499 2.256 2.214 3.932 3.421 5.815.619.965 1.143 2.026.906 3.199-.292 1.449-1.316 2.639-1.596 4.115-1.146 6.043 4.415 10.246 9.008 12.829.737.415 1.302-.63.649-1.11-3.672-2.698-9.536-6.848-7.382-12.259.827-2.08 1.96-3.707 1.138-6.014-.639-1.795-1.962-3.199-2.983-4.774-1.296-1.997-1.602-4.109-.017-6.091 1.639-2.05 4.413-2.748 6.887-3.128a27.165 27.165 0 0 1 8.96.136c2.724.499 5.27 1.385 8.066.841 2.565-.5 25.382 7.364 27.778 8.451 8.755 3.975 18.147 6.079 27.563 7.821 3.828 1.06 7.798 1.738 11.772 1.825 4.142.09 8.018-.673 11.984-1.791a26.967 26.967 0 0 1 2.941-.663 23.679 23.679 0 0 1 3.144-.173c2.745.048 5.319.839 7.785 2.015.866.414 1.721-.603 1.039-1.35z" class="svgShape colorde835c-60 selectable"></path><path fill="#e5eaec" d="M1561.28 770.904H967.59a1.913 1.913 0 0 1 0-3.826h593.69a1.913 1.913 0 0 1 0 3.826z" class="svgShape colore5eaec-61 selectable"></path><path fill="#6c4e4e" d="M1108.87 519.757h15.507v422.607h-15.507z" transform="rotate(90 1116.624 731.06)" class="svgShape color6c4e4e-62 selectable"></path><path fill="#6c4e4e" d="M744.504 716.711h15.507v28.699h-15.507z" transform="rotate(90 752.258 731.06)" class="svgShape color6c4e4e-63 selectable"></path><path fill="#6c4e4e" d="M920.868 723.307h15.507v771.1h-15.507zM898.423 723.307h15.507v93.598h-15.507zM756.084 723.307h15.507v93.598h-15.507z" class="svgShape color6c4e4e-64 selectable"></path><path fill="#6c4e4e" d="M827.254 743.019h15.507v157.846h-15.507z" transform="rotate(90 835.008 821.942)" class="svgShape color6c4e4e-65 selectable"></path><path fill="#6c4e4e" d="M827.374 856.023h15.507v201.611h-15.507z" transform="rotate(90 835.128 956.828)" class="svgShape color6c4e4e-66 selectable"></path><path fill="#6c4e4e" d="M827.374 990.91h15.507v201.611h-15.507z" transform="rotate(90 835.128 1091.715)" class="svgShape color6c4e4e-67 selectable"></path><path fill="#6c4e4e" d="M827.374 1125.796h15.507v201.611h-15.507z" transform="rotate(90 835.128 1226.602)" class="svgShape color6c4e4e-68 selectable"></path><path fill="#6c4e4e" d="M827.374 1260.683h15.507v201.611h-15.507z" transform="rotate(90 835.128 1361.488)" class="svgShape color6c4e4e-69 selectable"></path><path fill="#6c4e4e" d="M734.323 723.307h15.507v780.468h-15.507zM1312.862 723.307h15.507v137.604h-15.507z" class="svgShape color6c4e4e-70 selectable"></path><path fill="#5f7ab3" d="M477.304 1486.733h-98.68c-9.374 0-16.973-7.599-16.973-16.974v-236.671c0-9.374 7.599-16.974 16.973-16.974h98.68c9.374 0 16.974 7.599 16.974 16.974v236.671c0 9.374-7.599 16.974-16.974 16.974z" class="svgShape color5f7ab3-71 selectable"></path><path fill="#346a91" d="M389.344 1484.133a.95.95 0 0 1-.598-.21 17.118 17.118 0 0 1-6.454-13.428v-238.142c0-4.894 2.096-9.571 5.75-12.833a.956.956 0 1 1 1.274 1.428 15.303 15.303 0 0 0-5.111 11.405v238.142c0 4.666 2.091 9.015 5.737 11.935a.956.956 0 0 1-.598 1.703zM522.735 1486.733h-98.68c-9.374 0-16.974-7.599-16.974-16.974v-236.671c0-9.374 7.599-16.974 16.974-16.974h98.68c9.374 0 16.974 7.599 16.974 16.974v236.671c-.001 9.374-7.6 16.974-16.974 16.974z" class="svgShape color346a91-72 selectable"></path><path d="M407.889 1470.772c-7.35 0-13.309 5.959-13.309 13.309 0 .908.092 1.794.266 2.651h26.086a13.39 13.39 0 0 0 .266-2.651c0-7.35-5.959-13.309-13.309-13.309zM539.56 1472.576a13.23 13.23 0 0 0-6.668-1.804c-7.35 0-13.309 5.959-13.309 13.309 0 .908.092 1.794.266 2.651h3.622c8.261.001 15.066-6.174 16.089-14.156zM367.878 1470.772c-2.211 0-4.291.547-6.126 1.501.887 8.13 7.77 14.459 16.136 14.459h3.033a13.39 13.39 0 0 0 .266-2.651c0-7.35-5.959-13.309-13.309-13.309z" fill="#000000" class="svgShape color000000-73 selectable"></path><circle cx="408.193" cy="1501.068" r="12.388" transform="rotate(-77.302 408.197 1501.124)" fill="#000000" class="svgShape color000000-74 selectable"></circle><path d="M407.658 1497.253a1.914 1.914 0 0 1-1.774-2.631l5.38-13.317a1.913 1.913 0 1 1 3.548 1.434l-5.38 13.317a1.915 1.915 0 0 1-1.774 1.197z" fill="#000000" class="svgShape color000000-75 selectable"></path><circle cx="527.172" cy="1501.068" r="12.388" transform="rotate(-76.791 527.162 1501.111)" fill="#000000" class="svgShape color000000-76 selectable"></circle><path d="M526.637 1497.253a1.914 1.914 0 0 1-1.774-2.631l5.38-13.317a1.913 1.913 0 1 1 3.548 1.434l-5.38 13.317a1.913 1.913 0 0 1-1.774 1.197zM439.322 1252.739h76.206v17.834h-76.206z" fill="#000000" class="svgShape color000000-77 selectable"></path><path d="M448.097 1100.575h2.931v161.914h-2.931zM503.821 1100.575h2.931v161.914h-2.931z" fill="#000000" class="svgShape color000000-78 selectable"></path><path d="M507.112 1103.15h-59.374a4.187 4.187 0 1 1 0-8.374h59.374a4.188 4.188 0 0 1 0 8.374z" fill="#000000" class="svgShape color000000-79 selectable"></path><path fill="#b9522a" d="M492.311 1057.866s-2.771 12.931 0 17.549 10.16 12.931 10.16 17.549-2.771 10.16-2.771 10.16c-.825 3.919-4.174 18.776-10.264 15.228-1.686-.982-2.564-3.16-4.429-3.733-1.259-.387-2.605.082-3.922.106a5.853 5.853 0 0 1-4.197-1.697c-1.47-1.474-2.215-3.783-4.144-4.564-1.896-.767-4.172.307-6.055-.49-2.172-.919-2.88-3.911-5.06-4.81-.609-.251-1.28-.31-1.902-.526-1.28-.444-2.259-1.53-2.851-2.748-.593-1.218-.845-2.57-1.053-3.909-.857-5.511-.797-10.794-.396-16.334.557-7.792 1.246-15.575 1.635-23.378.249-5 .418-10.025.155-15.029-.927-17.547 35.094 16.626 35.094 16.626z" class="svgShape colorb9522a-80 selectable"></path><path d="M507.112 1094.777h-12.656c-.111.231-.212.466-.321.698.24-.509-.033.083-.062.156a21.69 21.69 0 0 0-1.21 4.351c-.019.116-.038.232-.055.348-.027.248-.054.495-.074.744-.041.506-.06 1.012-.062 1.52-.001.194-.03.378-.074.556h14.515a4.188 4.188 0 0 0-.001-8.373z" fill="#000000" class="svgShape color000000-81 selectable"></path><path fill="#847895" d="M804.356 1511.431c.008-7.804-124.885-6.472-241.033-6.472-116.148 0-176.777-.508-175.36 6.472.893 4.401 62.361 5.436 178.508 5.436s237.879-.465 237.885-5.436z" class="svgShape color847895-82 selectable"></path><path fill="#b9522a" d="M414.116 1443.768c11.084 14.847 27.516 24.64 44.415 31.629 5.541 2.292 11.167 4.346 16.837 6.277-2.355-6.546-4.016-13.442-4.729-20.102-.891-8.315-.894-18.952 4.282-26.271 4.267-6.033 10.043-10.859 15.087-16.219-7.668-4.6-16.182-7.929-23.931-12.313-6.611-3.74-8.486-3.55-15.171-7.137-21.164 24.857-25.195 24.897-30.651 30.331-3.713 3.698-6.658 6.915-8.905 9.833a76.02 76.02 0 0 0 2.766 3.972z" class="svgShape colorb9522a-83 selectable"></path><path fill="#efb44b" d="M402.352 1443.55c5.147-4.241 10.05-10.568 17.904-13.587 4.307 9.641 12.427 18.41 23.225 21.107 6.161 1.539 11.694-.635 17.777-1.284 4.647-.496 8.183-.691 10.912 9.984 2.055 8.037 2.558 16.227 6.087 23.365 6.858 13.865 17.102 6.382 16.757 21.738-.069 3.092-1.553 6.458-2.52 7.367-1.506 1.421-23.491 4.878-39.429-8.318-23.52-19.473-52.429-44.5-54.587-50.402-1.189-3.251.234-6.962 3.874-9.97z" class="svgShape colorefb44b-84 selectable"></path><path fill="#b9522a" d="M679.989 1436.289c7.39-1.717 8.673-3.097 16.108-4.651 8.715-1.822 17.308-4.94 26.105-6.545-.252 7.356-1.406 14.794-.63 22.142.942 8.914 7.965 16.903 14.122 22.562 7.325 6.733 16.548 12.516 25.826 16.338 14.304 5.89 26.083 8.414 29.449 15.986 3.223 7.253.841 8.414-1.683 9.255-2.524.841-95.023 2.534-104.278-2.514-7.53-4.106-9.195-12.053-8.027-29.556.513-7.684 3.515-10.375 3.008-43.017z" class="svgShape colorb9522a-85 selectable"></path><path fill="#efb44b" d="M672.499 1501.329c1.068-6.583.575-14.572 4.482-22.024 9.599 4.401 14.346 7.592 24.239 2.491 5.645-2.911 8.366-8.195 12.507-12.698 3.164-3.44 6.771-3.975 10.698-3.872a17.654 17.654 0 0 1 11.173 4.363c8.339 7.325 18.56 13.512 25.922 16.544 14.304 5.89 26.083 8.414 29.449 15.986 1.254 2.827 1.658 4.729 1.531 6.05-.193 2.062-1.674 2.693-3.214 3.206-2.524.841-103.863 5.048-113.118 0-3.037-1.657-4.418-5.384-3.669-10.046z" class="svgShape colorefb44b-86 selectable"></path><path fill="#fff" d="M789.286 1511.375c1.54-.513 3.021-1.144 3.214-3.206.126-1.321-.277-3.223-1.531-6.05-2.598-5.844-10.218-8.686-20.132-12.384-3.408-.313-12.132.568-15.228 1.614-16.838 5.688-10.803 13.69-23.199 14.181-9.734.386-45.633-3.886-59.593-6.568a50.828 50.828 0 0 1-.319 2.366c-.749 4.661.631 8.389 3.669 10.046 9.256 5.05 110.595.843 113.119.001z" class="svgShape colorffffff-87 selectable"></path><path fill="#5f7ab3" d="M438.576 1412.908c-1.807 5.099 31.551 26.557 49.576 36.232 5.239 2.814 10.169 4.325 13.023-.887 16.147-29.42 91.862-139.912 103.112-185.764 8.805-35.887 17.063-73.184 21.548-117.594 20.51 130.18 23.38 314.153 26.508 320.409 3.54 7.07 70.505-26.709 70.505-26.709s2.88-160.716-1.54-232.321c-4.42-71.614-29.436-233.268-29.436-233.268l-153.063 1.913s-.536 7.931-1.473 21.754c-.584 8.648-1.32 19.611-2.181 32.373-3.258 48.352 4.327 140.658-16.787 205.31-19.95 61.086-78.691 175.459-79.792 178.552z" class="svgShape color5f7ab3-88 selectable"></path><path fill="#464c7b" d="M625.826 1153.776a1.773 1.773 0 0 1-1.752-2.017l15.029-106.089a1.767 1.767 0 1 1 3.501.497l-15.029 106.089a1.77 1.77 0 0 1-1.749 1.52z" class="svgShape color464c7b-89 selectable"></path><path fill="#464c7b" d="M636.164 1067.883c2.733-3.352 6.259-6.065 9.081-9.386 3.059-3.601 5.692-7.497 8.032-11.597.952-1.669 3.508-.176 2.576 1.506-4.228 7.636-10.314 17.141-18.057 21.593-1.398.804-2.561-.976-1.632-2.116zM552.586 1049.92c9.994-7.245 16.88-17.104 23.596-27.295 1.115-1.691 3.846-.119 2.732 1.597-6.841 10.529-13.993 21.505-24.661 28.549-1.799 1.187-3.357-1.626-1.667-2.851z" class="svgShape color464c7b-90 selectable"></path><path fill="#586199" d="M643.562 1108.486a1710.992 1710.992 0 0 1 15.941 118.822 1625.115 1625.115 0 0 1 2.934 33.122c.086 1.102-1.63 1.006-1.718-.082-3.213-39.625-7.652-79.14-13.501-118.464a1871.11 1871.11 0 0 0-5.213-33.049c-.168-1.008 1.385-1.362 1.557-.349zM662.166 1275.451c-.069-1.034 1.539-1.029 1.609 0a1928.06 1928.06 0 0 1 4.43 124.983c.034 11.85-.052 23.7-.282 35.548-.02 1.043-1.636 1.047-1.623 0 .509-41.697-.045-83.388-2.075-125.042a1947.211 1947.211 0 0 0-2.059-35.489z" class="svgShape color586199-91 selectable"></path><path fill="#fff" d="M492.493 1512.239c.967-.909 2.451-4.275 2.52-7.367.17-7.561-2.688-9.245-6.449-10.663-4.084-.8-8.696.881-13.646-.865-16.609-5.862-19.141-10.168-24.239-7.736-4.738 2.26-23.436-15.695-45.553-44.521a60.55 60.55 0 0 1-2.775 2.463c-3.639 3.008-5.062 6.719-3.874 9.969 2.159 5.902 31.067 30.929 54.587 50.402 15.939 13.196 37.923 9.739 39.429 8.318z" class="svgShape colorffffff-92 selectable"></path><path fill="#ed4450" d="M703.085 787.969s5.796.48 23.382 37.637c17.586 37.157 83.781 82.532 83.781 82.532s10.468 35.429-14.317 51.549c-24.785 16.121-102.395-28.07-102.395-28.07s9.113 52.46-.228 56.651c-9.341 4.191-144.535 13.089-155.973 8.405-11.438-4.684-5.108-63.567-5.108-63.567l170.858-145.137z" class="svgShape colored4450-93 selectable"></path><path fill="#1a1a1a" d="M807.897 924.417s1.112 13.993-7.484 24.658c-8.596 10.665-18.61-4.672-15.002-24.658 3.608-19.986 22.486 0 22.486 0z" class="svgShape color1a1a1a-94 selectable"></path><path fill="#006a33" d="M784.794 988.271s2.189 1.082 0 9.549c-2.189 8.467-1.251 18.237-13.762 11.073-12.511-7.165-73.188-37.88-80.069-48.576-6.881-10.695 5.648-85.579 6.899-113.261 1.251-27.681 4.708-16.795 7.996-15.279 1.949.899 2.231.468 3.76-6.722.828-3.894 5.428-1 5.428-1l69.435 40.367.313 123.849z" class="svgShape color006a33-95 selectable"></path><path fill="#b0c1d3" d="M788.752 987.947c4.512-8.116 6.654-19.04 7.306-24.166 6.539-51.395 7.906-113.653 6.763-116.04-1.799-3.762-59.565-43.288-72.279-49.127-1.19-.54-1.924-.782-2.131-.664-2.384 1.388-9.451 114.159-8.117 116.641 1.333 2.482 69.449 46.552 70.987 51.277.518 1.592.315 3.417.066 5.04-.363 2.362-1.004 4.678-1.707 6.952-1.089 3.524-81.231-48.501-81.755-44.84-1.195 8.344 78.174 59.771 80.867 54.927z" class="svgShape colorb0c1d3-96 selectable"></path><path fill="#93aabc" d="M791.894 961.542c-3.106-2.374-6.124-4.869-9.252-7.216a556.26 556.26 0 0 0-9.858-7.194c-6.574-4.71-13.19-9.363-19.607-14.306-5.84-4.498-11.681-9.021-17.841-13.041-4.802-3.134-9.848-5.979-15.211-7.918.004.943-1.839-59.053-1.022-87.968.401-14.21-7.018-5.526-7.024-5.433-2.891 43.591-7.433 101.29-5.919 113.035 1.342 10.41 79.899 61.289 82.592 56.445 4.255-7.654 6.401-17.8 7.179-23.23-1.287-1.149-2.713-2.162-4.037-3.174z" class="svgShape color93aabc-97 selectable"></path><path fill="#b9522a" d="M795.995 863.238c-1.279.68-2.115 2.031-1.743 4.062.122.666.413 1.344.23 1.994-.426 1.508-2.516 1.173-4.004 1.437-2.267.402-3.755 3.316-2.805 5.497.428.983 1.219 1.735 1.825 2.61.606.875 1.033 2.039.606 3.023-.335.771-1.1 1.22-1.67 1.823-1.183 1.251-1.478 3.318-.695 4.873.724 1.437 2.241 2.434 2.555 4.023.329 1.668-.806 3.265-.947 4.961-.236 2.852 2.247 5.039 4.384 6.839 2.301 1.938 4.897 3.818 6.175 6.598.959 2.088-.089 7.097.151 11.245.094 1.633-2.239 15.009-1.393 18.005 3.021-7.881 10.387-18.579 11.176-27.025.225-2.408.365-4.866 1.194-7.126.533-1.452 1.349-2.824 1.509-4.369.238-2.291-1.007-4.493-1.023-6.797-.022-3.249 2.387-6.227 1.955-9.444-.145-1.082-.609-2.095-.774-3.175-.333-2.173.562-4.418.133-6.573-.404-2.025-1.893-3.595-3.314-5.039-2.711-2.756-5.524-5.639-8.962-7.398-1.431-.732-3.236-.749-4.563-.044z" class="svgShape colorb9522a-98 selectable"></path><path fill="#ac4520" d="M802.474 914.839c-3.507-3.896-7.024-7.613-11.115-10.859-1.757-1.393.503-4.015 2.26-2.669 4.201 3.22 8.219 6.87 11.489 11.122 1.238 1.611-1.258 3.934-2.634 2.406z" class="svgShape colorac4520-99 selectable"></path><path fill="#fff" d="M710.791 933.617c15.515 13.943 75.548 54.289 76.51 51.177.703-2.274 3.684-11.523 4.047-13.885.249-1.623.452-3.448-.066-5.04-.163-.502-1.084-1.451-2.589-2.743l-.361-.306c-13.306-11.218-66.857-46.029-68.037-48.227-1.22-2.271 4.389-95.366 7.178-112.251l-.001-.006-13.343 18.06c-1.246 7.978-6.121 110.989-6.121 110.989s.965.828 2.783 2.232z" class="svgShape colorffffff-100 selectable"></path><path fill="#fff" d="M702.841 937.621s15.881 15.794 39.573 30.449c23.692 14.655 38.987 22.503 38.987 22.503s.698 1.206-.592 7.75c-1.29 6.544-.697 11.589-12.352 5.236-71.316-38.876-74.921-46.073-74.921-46.073s3.223-80.85 9.006-126.019c0 0-1.121-.084 7.077-6.412 0 0-11.305 107.876-6.778 112.566z" class="svgShape colorffffff-101 selectable"></path><path fill="#ed4450" d="M445.917 1060.757c1.913 5.74 50.702 21.046 52.615 19.133 1.913-1.913 3.257-30.835 6.754-64.258 4.46-42.627 24.559-58.53 25.009-62.261-.048.727.124 3.09 3.846 4.573 4.783 1.913 12.436 4.783 60.268-.957 36.534-4.391 70.792-7.653 75.575-8.61 5.874-1.177 19.104-11.403 18.167-22.615-.957-11.48-3.826-25.829-3.826-31.569 0-12.14 1.186-24.433 3.023-36.429 1.961-12.742 7.07-24.098 11.805-36.046 1.923-4.85 3.855-9.71 5.309-14.723 1.186-4.066 2.057-8.294 1.76-12.522a28.2 28.2 0 0 0-1.406-7.07 52.335 52.335 0 0 0-2.65-4.496c-9.834-14.732-26.356-23.419-40.495-33.358a5.657 5.657 0 0 1-1.081-.976c-1.349-.909-2.315-1.559-2.765-1.865-.182-.115-.277-.182-.277-.182-3.827-14.35-9.566-20.09-14.35-22.959-4.133-2.478-39.222-22.003-62.182-21.046-22.959.957-25.829 20.089-23.916 28.699 1.913 8.61.957 14.35-3.827 21.046-4.783 6.697-3.348 15.785-3.348 15.785s-24.06 20.338-38.572 34.755c-.383.373-.756.746-1.129 1.119-.163.163-.316.325-.478.497-7.644 8.112-32.303 28.72-41.267 56.511-2.028 6.247-24.929 40.004-24.929 95.895.001 39.328.454 98.19 2.367 103.929z" class="svgShape colored4450-102 selectable"></path><path fill="#a0101b" d="M584.839 738.871s-2.87-2.87-11.48-9.566c-8.61-6.696-8.61-15.306-.957-20.089 7.653-4.783 31.569 2.87 31.569 2.87l-4.783 23.916-14.349 2.869zM646.065 754.177s3.827-21.046-6.218-25.351c-12.216-5.235-14.35-1.913-14.35-1.913l13.843 49.555 6.725-22.291z" class="svgShape colora0101b-103 selectable"></path><path fill="#fff3e1" d="M528.067 975.1a1.914 1.914 0 0 0 1.91-1.838c.017-.441 2.028-44.712 25.903-91.124a1.911 1.911 0 0 0-.826-2.576 1.911 1.911 0 0 0-2.576.826c-24.28 47.198-26.307 92.274-26.325 92.724a1.913 1.913 0 0 0 1.914 1.988z" class="svgShape colorfff3e1-104 selectable"></path><path fill="#c02328" d="M610.189 779.05a1.435 1.435 0 0 0 .822-2.612c-.255-.177-25.681-17.874-44.716-26.439a1.434 1.434 0 1 0-1.178 2.616c18.789 8.455 43.999 26 44.252 26.176.25.175.537.259.82.259z" class="svgShape colorc02328-105 selectable"></path><path fill="#c02328" d="M555.663 764.7c.283 0 .568-.083.817-.256l13.684-9.507a1.435 1.435 0 1 0-1.637-2.357l-13.684 9.507a1.435 1.435 0 0 0 .82 2.613zM651.99 770.203c.067-.115 6.247-11.088 5.836-23.495.445.306 1.412.959 2.768 1.861.039.047.077.094.119.14-.237 12.295-5.968 22.47-6.226 22.919a1.43 1.43 0 0 1-1.961.536 1.439 1.439 0 0 1-.536-1.961zM509.747 804.422c29.531 5.74 42.944 60.891 43.068 61.436a.976.976 0 0 0 .928.727.96.96 0 0 0 .23-.029.957.957 0 0 0 .708-1.157c-.038-.134-3.463-13.9-10.6-28.183-9.174-18.339-20.463-31.445-32.727-34.41-.383.373-.756.746-1.129 1.119-.162.163-.315.325-.478.497z" class="svgShape colorc02328-106 selectable"></path><path fill="#3a1714" d="M680.311 643.509s12.553 2.495 13.398-2.146c.828-4.54-3.301-9.234-17.843-9.716 0 0 13.673-2.318 9.539-7.991-2.033-2.79-11.691-1.924-23.718.487 1.211-1.018 2.227-2.072 3-3.165 7.194-10.172-12.012-5.277-30.366 1.401 4.991-8.25-5.982-6.072-20.651 3.804 2.568-10.277-3.234-11.824-9.469-2.264-2.844 4.361-4.376 9.369-5.201 13.675-3.278-1.844-8.15-3.883-13.197-3.479-8.909.713 5.541 11.89 5.541 11.89s-13.009 2.495-13.641 7.127c-.632 4.633 13.641 4.257 13.641 4.257-1.966 25.166 5.758 42.22 15.351 51.504 3.647 3.529 44.341-52.567 59.538-36.844 13.108 13.561 10.261-.632 10.261-.632s8.68 5.349 12.6 2.744-3.078-10.076-8.423-17.215c0 0 8.495 6.949 12.634 3.768 4.25-3.266-4.441-11.503-12.994-17.205z" class="svgShape color3a1714-107 selectable"></path><path fill="#b9522a" d="M584.839 738.871c4.18 5.573 54.501 37.597 54.501 37.597s-3.202-16.935-5.16-28.914c-.319-1.952-.29-5.612.042-9.025.218-2.23.508-4.347.716-5.778.166-1.1-27.442-49.975-27.442-49.975s-14.97 44.746-22.657 56.095z" class="svgShape colorb9522a-108 selectable"></path><path fill="#fff" d="M615.879 760.636c-.427-.077-.851-.166-1.276-.249 12.755 8.456 24.737 16.081 24.737 16.081s2.523-6.984 5.109-16.935c-6.744 1.263-21.772 2.329-28.57 1.103z" class="svgShape colorffffff-109 selectable"></path><path fill="#1a1a1a" d="M634.18 747.554c.758-4.818 1.393-17.565 1.6-18.996 0 0-2.959-2.415-2.669-4.096 0-.031 0-.062.01-.093-6.608-9.202-13.745-19.15-18.579-20.581-.861-.259-1.66-.259-2.376.062-1.286.571-2.339 2.139-2.749 5.052-3.61 25.685 24.745 38.768 24.763 38.652z" class="svgShape color1a1a1a-110 selectable"></path><path fill="#b9522a" d="M670.05 682.004c-1.075 4.419-4.671 39.31-15.333 47.657-5.634 4.411-18.327 2.627-24.169.785-17.988-5.671-25.041-20.251-24.747-34.631 0 0-14.268-11.062-4.056-22.512 6.956-7.799 14.62 5.785 14.62 5.785s4.749-15.223 10.002-27.242c4.14 1.422 21.953 14.38 21.722 8.645-.078-1.95-2.881-7.758-2.881-7.758 19.479 10.861 24.485 10.876 23.687 5.52 0 0 2.918 16.505 1.155 23.751z" class="svgShape colorb9522a-111 selectable"></path><path fill="#1a1a1a" d="M638.75 682.642c-.404-.589-.937-.97-1.599-1.019a2.637 2.637 0 0 0-.22-.041c-.027-.007-.05-.02-.08-.023-.028-.003-.049.005-.077.003-2.279-.202-3.468 2.741-2.714 4.651.059.437.206.849.526 1.154.317.302.738.484 1.177.546.034.024.063.052.107.069 1.007.397 1.845-.063 2.412-.879 1.19-1.062 1.419-3.076.468-4.461zM666.936 687.182c-.692-1.404-2.431-1.943-3.784-1.139-.12.071-.23.157-.334.25-.355.29-.6.697-.673 1.179-.01.056-.018.112-.023.168-.001.018-.006.033-.007.051-.029.857-.039 1.729.331 2.525.713 1.534 2.684 1.67 3.875.632 1.035-.901 1.205-2.467.615-3.666z" class="svgShape color1a1a1a-112 selectable"></path><path fill="#953b16" d="M651.99 704.046c.027-.78-.615-1.481-1.401-1.501l-2.322-.058c-.784-.02-1.473.613-1.501 1.401-.027.78.615 1.481 1.401 1.501l2.322.058c.784.02 1.473-.612 1.501-1.401z" class="svgShape color953b16-113 selectable"></path><path fill="#3a1714" d="M641.636 668.401c-1.989.398-4.022.481-5.99.988-1.998.514-3.925 1.278-5.9 1.869-1.782.533-1.104 3.358.693 2.82 1.974-.59 3.902-1.362 5.901-1.869 1.97-.499 4.001-.59 5.99-.988 1.83-.367 1.138-3.187-.694-2.82zM673.444 675.176c-.719-1.668-1.931-2.618-3.374-3.637-1.516-1.07-3.365 1.171-1.832 2.253.955.674 1.997 1.264 2.479 2.38.736 1.711 3.467.721 2.727-.996z" class="svgShape color3a1714-114 selectable"></path><path fill="#fff" d="M657.975 715.955s-10.44-1.146-19.453-3.11c-2.819-.614.075 7.656 5.927 10.412 4.929 2.32 13.526-7.302 13.526-7.302z" class="svgShape colorffffff-115 selectable"></path><path fill="#ed4450" d="M693.536 879.35s4.718 58.098 9.54 78.838c4.822 20.74-5.628 16.719-5.981 21.296-1.103 14.3-10.115 14.275-17.867-13.16-7.752-27.435 9.683-29.674 9.683-29.674s.499-55.661 4.625-57.3z" class="svgShape colored4450-116 selectable"></path><path fill="#c02328" d="M567 987.277c-2.189 0-3.631-.453-3.758-.494a1.913 1.913 0 0 1 1.175-3.641c.219.068 5.158 1.53 10.473-2.43 6.346-4.729 13.83-17.658 13.446-52.401a1.914 1.914 0 0 1 1.833-1.933l92.929-3.872a1.937 1.937 0 0 1 1.47.598c.381.403.568.95.513 1.501-.011.116-1.125 11.702.096 23.896 1.086 10.846 4.264 24.421 13.229 27.494a1.913 1.913 0 1 1-1.24 3.619c-18.163-6.227-16.748-43.583-16.072-53.195l-88.919 3.705c.092 28.231-4.99 46.308-15.111 53.739-3.77 2.768-7.45 3.414-10.064 3.414z" class="svgShape colorc02328-117 selectable"></path><path fill="#ada163" d="M2018.744 328.089s-25.738-29.006-17.976-39.22c7.762-10.214 22.061 22.061 22.061 22.061s-29.979-95.039-12.412-101.575c17.567-6.537 25.076 88.911 25.076 88.911s.817-26.963 7.354-27.372c6.537-.409.817 22.47.817 22.47s14.845-49.266 29.961-42.73c15.116 6.537-25.876 70.51-25.876 70.51s15.405-16.977 20.716-12.892c5.311 4.085-20.209 25.369-20.209 25.369l-29.512-5.532z" class="svgShape colorada163-118 selectable"></path><path fill="#a94b0d" d="M2080.84 344.827c-.321.43-3.261.68-7.927.789-1.406 16.477-6.387 53.322-9.404 56.338-3.851 3.851-63.547 1.926-66.114.642-1.9-.95-7.298-36.941-9.988-55.671a705.146 705.146 0 0 1-.513-3.588c-.026-.148-.045-.295-.064-.436-3.229-.244-5.219-.469-5.482-.642-1.926-1.284-3.209-22.466-3.209-22.466s100.776 0 104.627 1.284c3.851 1.284 0 21.182-1.926 23.75z" class="svgShape colora94b0d-119 selectable"></path><path fill="#83282c" d="M2063.195 348.55c-13.358 1.309-27.075.834-40.477.449a579.022 579.022 0 0 1-35.31-2.073 705.146 705.146 0 0 1-.513-3.588c11.907.924 23.833 1.598 35.779 1.906 13.499.34 26.998-.315 40.484 0 2.155.052 2.129 3.101.037 3.306z" class="svgShape color83282c-120 selectable"></path><path fill="#847535" d="M2037.935 299.727c-1.527-.383-2.861 1.323-3.665 2.362a11.82 11.82 0 0 0-1.188 1.889c-1.648-5.036-3.317-10.066-5.122-15.049-1.038-2.864-1.961-5.917-3.365-8.628-.611-1.181-2.408-3.717-3.769-1.781-.605.862-.629 2.268-.772 3.294a39.151 39.151 0 0 0-.343 4.244c-.09 3.028.052 6.07.338 9.085a82.66 82.66 0 0 0 2.664 14.345c-1.415-1.029-3.004-1.759-4.271-1.065-2.211 1.212-.891 5.114-.151 6.851.402.945 1.973.271 1.659-.699-.26-.803-1.505-4.262.195-4.077.393.043 1.323.812 1.639 1.036.812.576 1.54 1.23 2.25 1.923.729.711 2.094.004 1.763-1.026-1.592-4.971-2.761-10.078-3.384-15.263-.607-5.05-.967-10.384-.186-15.434.034-.217.141-.535.225-.845.043.076.091.147.13.225.655 1.175 1.083 2.489 1.563 3.743.93 2.426 1.819 4.867 2.681 7.318 1.802 5.126 3.484 10.293 5.166 15.459.313.963 1.852 1.103 2.096 0 .24-1.084.585-2.107 1.139-3.075.215-.376 1.675-2.794 2.238-2.668-.155-.035-.188 2.674-.204 2.922-.095 1.473-.339 2.918-.625 4.363-.265 1.337 1.733 1.92 2.064.569a27.6 27.6 0 0 0 .797-6.947c-.021-1.233-.14-2.715-1.562-3.071z" class="svgShape color847535-121 selectable"></path><path fill="#847895" d="M2214.175 1505.811c0 4.303-131.177 14.96-265.427 14.96s-220.734-10.657-220.734-14.96c0-4.303 108.831-7.791 243.081-7.791 134.249 0 243.08 3.488 243.08 7.791z" class="svgShape color847895-122 selectable"></path><path fill="#6c4e4e" d="M1733.316 402.337h136.265v1102.331h-136.265z" class="svgShape color6c4e4e-123 selectable"></path><path fill="#4a3333" d="M2202.383 1504.669h-336.149V402.337h267.452l7.509-51.397 61.188 51.397z" class="svgShape color4a3333-124 selectable"></path><path fill="#361c1c" d="M2177.833 1279.491c-.913-1.218-13.336-2.209-34.916-2.89v19.08h35.819c.203-7.908.077-14.883-.903-16.19zM2139.357 1276.426c-35.571-.998-93.833-1.183-95.78-.209-1.436.718-1.682 9.655-1.506 19.465h97.286v-19.256zM2132.808 1376.145c0 3.804-3.979 3.797-3.979 0v-74.561h-82.515c.339 10.672.994 84.731.994 84.731l126.8-.618s.736-73.918 1.154-84.113h-42.454v74.561zM2032.703 1276.541c-.913-1.218-13.336-2.209-34.916-2.89v19.08h35.819c.203-7.909.077-14.884-.903-16.19zM1994.227 1273.475c-35.571-.998-93.833-1.183-95.78-.209-1.436.718-1.682 9.655-1.506 19.465h97.286v-19.256zM1987.31 1330.596c0 3.804-3.979 3.797-3.979 0l.368-31.964h-82.516c.339 10.672.626 42.462.626 42.462l126.8-.619s1.104-31.649 1.522-41.844h-42.454l-.367 31.965z" class="svgShape color361c1c-125 selectable"></path><path fill="#361c1c" d="M2170.047 1388.631c-.913-1.218-13.336-2.209-34.916-2.89v19.08h35.819c.203-7.908.077-14.883-.903-16.19zM2131.571 1385.566c-35.571-.998-93.833-1.183-95.78-.209-1.436.718-1.682 9.655-1.506 19.465h97.286v-19.256zM2125.022 1485.285c0 3.804-3.979 3.797-3.979 0v-74.561h-82.516c.339 10.672.995 84.731.995 84.731l126.8-.618s.736-73.918 1.154-84.113h-42.454v74.561z" class="svgShape color361c1c-126 selectable"></path><path fill="#361c1c" d="M2035.891 1388.631c-.913-1.218-13.336-2.209-34.916-2.89v19.08h35.819c.203-7.908.077-14.883-.903-16.19zM1997.415 1385.566c-35.571-.998-93.833-1.183-95.78-.209-1.436.718-1.682 9.655-1.506 19.465h97.286v-19.256zM1990.866 1485.285c0 3.804-3.979 3.797-3.979 0v-74.561h-82.515c.339 10.672.994 84.731.994 84.731l126.8-.618s.736-73.918 1.154-84.113h-42.454v74.561zM2015.037 1343.606c-.913-1.218-13.336-2.209-34.916-2.89v19.08h35.819c.202-7.908.077-14.883-.903-16.19zM1976.561 1340.541c-35.571-.998-93.833-1.183-95.78-.209-1.436.718-1.682 9.655-1.506 19.465h97.286v-19.256z" class="svgShape color361c1c-127 selectable"></path><path fill="#361c1c" d="M1970.012 1375.856c0 3.804-3.979 3.797-3.979 0v-10.158h-82.516c.339 10.672.994 20.656.994 20.656l126.8-.619s.736-9.843 1.154-20.038h-42.454v10.159zM2045.997 483.195c-3.668-7.703-10.19-16.294-20.791-13.777-.738.175-1.443.401-2.121.666-1.45-.277-3-.323-4.665-.066-5.191.802-9.075 4.108-12.104 7.729-2.796 3.341-5.353 6.923-6.217 10.999-10.325.511-17.894 1.148-18.766 1.729-2.982 1.985-12.674 93.308-12.674 93.308l56.277-.11c-.998-30.47 5.362-60.734 10.702-90.743.166-.935.826-1.403 1.598-1.518a2.532 2.532 0 0 1 1.236-.281c2.709.035 5.415-.018 8.12-.111a400.106 400.106 0 0 1-.595-7.825zm-39.111 97.307a1.75 1.75 0 0 1-1.017 1.221 1.369 1.369 0 0 1-.625.1c-.547-.041-.993-.389-1.392-.723a88.867 88.867 0 0 1-9.701-9.442c-1.298-1.474-2.552-2.998-4.127-4.24-.436-.344-.916-.674-1.484-.79-1.535-.313-2.828.983-3.739 2.124a212.71 212.71 0 0 1-10.414 12.09c-.321.346-.873.718-1.264.435-.302-.219-.207-.641-.078-.968 1.638-4.141 4.447-8.301 7.261-11.913 1.83-2.349 5.218-6.483 9.048-5.283 5.521 1.73 8.302 6.189 11.647 10.078-1.844-11.841-3.294-23.727-4.69-35.617-1.678-14.292-4.125-28.715-4.235-43.104-.021-2.768 4.816-2.762 4.837 0 .106 13.962 2.457 27.948 4.084 41.817.898 7.656 1.807 15.312 2.831 22.956.518 3.87 1.066 7.737 1.655 11.599.295 1.931.613 3.86.918 5.79.182 1.156.725 2.728.485 3.87zm-2.67-91.947c1.88-5.595 6.775-12.357 12.775-14.317-3.651 3.828-5.812 9.172-6.899 14.084-2.013.072-3.977.15-5.876.233zm9.861-.368c1.405-5.356 4.264-11.327 9.291-14.012 5.589 1.873 9.058 8.722 11.511 13.6-6.818.05-13.989.197-20.802.412zm25.417-.52c-2.257-4.703-5.556-11.199-10.529-14.909 7.702.147 12.03 9.421 14.348 14.904.016.038.04.067.057.103a540.054 540.054 0 0 0-3.844-.01c-.013-.029-.017-.058-.032-.088z" class="svgShape color361c1c-128 selectable"></path><path fill="#361c1c" d="M2136.855 545.469c-3.544-29.191-8.089-64.933-9.398-67.551-.696-1.391-9.034-2.061-20.283-2.257.13-.374.135-.818-.04-1.318-3.252-9.289-10.056-22.672-22.285-19.401-.738.197-1.443.452-2.121.75-1.45-.312-3-.364-4.665-.074-5.191.904-9.075 4.629-12.104 8.707-2.796 3.764-5.353 7.799-6.217 12.391-10.325.576-17.894 1.294-18.766 1.947-2.982 2.237-12.674 105.119-12.674 105.119l108.553-.239v-38.074zm-70.327 34.618c-.108.58-.501 1.14-1.018 1.376a1.233 1.233 0 0 1-.625.113c-.547-.046-.993-.438-1.393-.815a94.89 94.89 0 0 1-9.701-10.637c-1.298-1.661-2.552-3.377-4.128-4.777-.436-.387-.916-.759-1.484-.89-1.535-.353-2.828 1.107-3.739 2.393a234.054 234.054 0 0 1-10.415 13.62c-.321.39-.873.809-1.264.49-.302-.246-.207-.723-.078-1.09 1.638-4.666 4.447-9.352 7.261-13.421 1.83-2.646 5.218-7.304 9.049-5.951 5.52 1.949 8.302 6.973 11.647 11.354-1.844-13.34-3.294-26.731-4.69-40.126-1.678-16.101-4.125-32.35-4.235-48.56-.021-3.118 4.816-3.112 4.837 0 .106 15.73 2.458 31.486 4.084 47.11.898 8.625 1.807 17.25 2.831 25.862.518 4.36 1.065 8.716 1.655 13.067.295 2.176.613 4.348.918 6.523.186 1.301.728 3.072.488 4.359zm-2.67-103.587c1.881-6.303 6.775-13.921 12.775-16.129-3.651 4.313-5.812 10.334-6.899 15.867-2.013.081-3.977.17-5.876.262zm9.861-.414c1.405-6.034 4.264-12.761 9.291-15.785 5.589 2.11 9.058 9.826 11.511 15.321-6.818.056-13.989.222-20.802.464zm25.449-.487c-.012-.033-.017-.066-.031-.099-2.258-5.299-5.556-12.616-10.529-16.796 7.702.165 12.03 10.613 14.348 16.791.016.043.039.076.057.116a538.926 538.926 0 0 0-3.845-.012zM1893.082 959.033v226.978c21.457-2.016 25.773-1.59 25.773-1.59v-109.979s.668-11.833 3.52-7.129c2.853 4.704 2.973 100.062 2.973 100.062l15.332-6.232a7.174 7.174 0 0 0 4.473-6.646V959.298l-52.071-.265zM2009.387 942.923l-10.853-3.365s2.646 136.084 9.24 168.325c0 0 5.862 5.862 29.31 5.862v-35.905s-.808-3.08 2.073-3.56 1.92 39.465 1.92 39.465 2.88 2.978 16.803 0l20.242-1.418a9.726 9.726 0 0 0 9.038-9.237c1.278-26.665 3.706-107.559-12.025-135.315-18.947-33.431-37.156 1.297-37.156 1.297l-28.592-26.149zM2136.855 913.907c-24.051 16.221-47.505 34.042-47.505 34.042l-10.392-8.022s.528 14.616 9.658 53.406c7.035 29.887 7.283 66.896 7.042 81.956a7.75 7.75 0 0 0 6.701 7.801l29.719 4.085s-.211-77.948 0-82.096c.211-4.148 3.577-2.51 3.941.582.46 6.908-.1 81.514-.1 81.514s-.604.303.936.025V913.907zM2144.864 641.879h-.034a6.632 6.632 0 0 0-.246-.633l.28.633z" class="svgShape color361c1c-129 selectable"></path><path fill="#361c1c" d="M2130.557 640.938c-.508 4.193.36 8.791 4.04 10.983 2.971 1.769.269 6.42-2.714 4.643-5.066-3.018-7.052-8.924-6.804-14.674-6.149.005-13.34.012-21.418.022.12-.673.02-1.415-.423-2.178-3.306-5.693-11.083-5.544-14.487-.723-1.22 3.417-1.886 7.719 1.231 9.699 2.913 1.85.219 6.506-2.714 4.643-4.212-2.675-5.191-7.008-4.637-11.411-6.082.01-12.456.021-19.097.034-1.531-3.007-4.638-5.092-8.147-4.821-2.564.198-4.586 1.453-5.938 3.287.192 3.596 1.332 6.96 3.958 9.759 2.366 2.522-1.429 6.332-3.803 3.802-3.19-3.4-4.934-7.549-5.418-11.986-7.821.018-15.876.039-24.13.062a2.847 2.847 0 0 0-.433-1.214c-1.731-2.676-4.692-4.246-7.904-3.793-2.853.402-5.163 2.417-6.184 5.05l-.296.001c.05 2.932.663 5.889 2.482 8.078 2.197 2.643-1.588 6.467-3.802 3.802-2.864-3.446-3.881-7.594-3.963-11.863-6.919.023-13.917.047-20.964.074-1.49-3.619-5.067-6.008-9.082-5.372-2.313.367-4.26 1.705-5.542 3.53-.048 3.506.685 7.063 3.378 9.472 2.585 2.312-1.229 6.104-3.802 3.802-3.239-2.896-4.617-7.091-4.887-11.35-5.917.026-11.839.052-17.75.081-.14-.529-.438-1.054-.969-1.531-4.614-4.139-11.738-3.621-15.339 1.513-.024.034-.036.068-.058.102l-.262.001c-.343 3.468.258 6.835 2.442 10.066 1.943 2.875-2.714 5.569-4.643 2.714-2.674-3.957-3.534-8.321-3.196-12.749-6.41.037-15.285.076-26.201.117v17.698c14.833-.08 26.76-.157 35.012-.232-.008.08-.029.152-.032.236-.152 3.759-.629 7.586-.834 11.391-5.052.737-20.321 10.35-34.145 20.888v287.641c11.09-2.117 20.406-4.977 24.812-8.605.812-.669 1.531-1.759 2.168-3.22 18.319 1.195 54.723-2.397 60.279-3.786 4.907-1.227 2.941-8.895 1.623-14.584-10.779-2.61-22.031-.64-32.964-2.128-6.99-.952-13.994-3.041-18.313-8.963-7.377-10.117-5.281-25.02-3.135-36.476 2.594-13.85 7.166-27.207 11.538-40.568 6.601-20.174 8.36-58.218 7.005-79.351-.903-14.073-3.477-28.055-3.116-42.196.256-10.033.799-20.503 6.693-29.089 3.537-5.153 8.47-9.357 14.159-11.958 6.955-3.18 14.513-8.468 19.01-14.738 1.517-2.116 5.058-.08 3.524 2.06-4.407 6.145-11.136 9.855-17.386 13.823-3.197 2.03-5.988 4.364-8.951 6.686-3.352 2.626-4.762 7.299-5.937 11.248-2.192 7.375-2.394 14.927-2.052 22.528.521 11.564 2.125 23.039 3.229 34.554 1.079 11.25 1.641 22.552.428 33.816-1.116 10.365-3.508 37.64-6.273 47.675-2.9 10.523-6.194 20.943-8.658 31.583-2.274 9.821-3.428 19.75-4.133 29.792-.326 4.653-.819 9.903.517 14.443 1.731 5.88 5.589 6.404 10.934 6.842 13.134 1.077 26.13 2.043 39.313 2.125 5.348-.809 12.209-.332 12.209 1.861 0 3.503 2.627 25.395 7.881 31.525 4.309 5.027 52.779 1.809 70.083.489-.144-.63-.279-1.26-.408-1.892-2.11-5.026-3.286-10.548-3.869-16.122a86.077 86.077 0 0 1-.327-4.077 96.755 96.755 0 0 1-.117-2.732c-.498-17.276 1.375-35.167 4.053-52.195 1.259-8.003 2.76-15.992 4.194-23.993 2.675-14.935 5.107-47.036 5.249-62.232.068-7.354-.584-14.49-1.883-21.566a126.722 126.722 0 0 0-2.843-12.079c-3.316-11.565-6.377-23.434-6.374-35.549.002-6.49.962-12.703 2.961-18.586a53.06 53.06 0 0 1 6.99-13.662c4.704-6.64 10.413-12.397 16.412-17.844 3.345-2.623 7.091-8.801 11.843-8.749.912.01 1.838.372 2.431 1.065s.8 1.728.418 2.557c-.262.57-.759.993-1.24 1.396-4.411 3.699-8.78 7.421-12.916 11.433-10.947 10.617-20.073 23.426-20.849 39.157a68.79 68.79 0 0 0 .155 8.802c.675 8.579 2.75 16.953 4.908 25.327 2.608 10.117 5.33 20.235 5.825 30.718 1.012 21.444-3.296 59.878-7.047 80.877a434.674 434.674 0 0 0-4.49 31.73 388.1 388.1 0 0 0-1.69 22.523c-.08 1.796-.146 3.653-.179 5.543.324.193.585.48.714.873.076.231.114.493.089.794-.041.489-.056.974-.081 1.46-.175 3.396.009 6.739.452 10.044.635 4.73 1.787 9.381 3.135 13.994 2.123 4.502 5.226 8.434 9.718 11.338 7.397 1.346 25.715 1.09 44.05-.845v-323.51c-.206 3.997-.407 8.001-.49 12-4.356 2.635-9.075 7.971-14.16 9.666-4.88 1.627-9.231-2.386-12.854-5.061-2.61-1.926-6.106-4.29-9.738-5.699.149-3.735-.45-7.672-.89-11.189 13.887.048 26.732.139 38.133.282v-22.504c-2.664.351-4.776 1.815-6.297 3.825zm-187.937 43.541c-.509 2.539-4.468 3.795-6.459 4.982-8.434 6.384-16.734 13.36-22.358 22.359-7.363 11.781-8.549 25.413-8.858 38.984-.853 37.443 4.052 91.85 3.777 129.292a332.738 332.738 0 0 1-.462 15.446h-5.817c.381-6.368.547-12.761.541-19.163-.374-5.137-.886-10.273-1.406-15.395-1.828-17.99-2.296-53.145-2.416-71.22-.033-4.948-.035-9.897-.021-14.846-.27-8.606-.365-17.216-.128-25.829.093-3.364.256-6.733.556-10.078.022-1.141.039-2.282.062-3.422.228-11.219 2.892-21.861 10.102-30.675 3.04-3.716 6.602-6.933 10.436-9.847 3.485-3.293 7.079-6.182 11.143-8.802 2.491-1.607 5.205-3.841 8.152-4.472.806-.173 1.714-.16 2.374.334.697.523.954 1.497.782 2.352zm23.666-13.828c-6.915-.074-11.588 7.004-15.718 9.758-3.945 2.63-10.36-3.627-16.647-6.907.535-4.366.464-8.891.544-13.19.002-.104-.017-.194-.023-.292 10.474-.093 21.085-.18 31.73-.26.224 3.633.266 7.26.114 10.891zm51.095-11.21c13.212-.063 26.204-.108 38.766-.13-.267 3.323-.532 6.647-.786 9.971a6.51 6.51 0 0 0-3.042.795c-4.308 2.366-5.687 7.863-9.802 10.333-4.379 2.627-12.26-6.13-24.52-8.757a17.514 17.514 0 0 0-1.513-.249c.51-3.972.818-7.953.897-11.963zm-44.499 13.341c.234-4.362.196-8.713-.111-13.071 12.892-.093 25.8-.174 38.536-.24a100.93 100.93 0 0 1-1.223 12.366c-7.892 2.094-13.46 9.393-17.483 12.075-5.182 3.455-9.517-5.016-19.719-11.13zm45.56 25.146c-3.325 4.198-5.999 8.883-8.048 13.825-5.734 13.825-6.682 29.175-6.328 43.972.785 32.813 3.792 82.582 1.339 115.417-1.463 19.581-3.824 39.249-6.13 58.751a3.16 3.16 0 0 1-.471 1.333c-.853 1.351-2.639 1.802-3.954 1.328-.995-.359-1.718-1.242-1.55-2.661.273-2.307.536-4.619.805-6.93 1.802-15.529 3.494-31.117 4.899-46.669 1.673-18.504 1.712-54.23 1.136-72.787-.5-16.139-1.71-32.259-2.063-48.401-.279-12.73.226-25.752 3.777-38.06 2.832-9.814 7.701-18.474 14.379-25.746a79.757 79.757 0 0 1 5.996-5.85c2.321-2.042 5.499-4.917 8.565-2.77.271.19.53.42.663.723.135.306.127.656.082.987-.228 1.718-1.076 2.041-2.271 2.999-1.327 1.064-2.599 2.214-3.867 3.347-2.489 2.225-4.882 4.57-6.959 7.192zm73.545-28.458c-2.315.437-5.099 2.64-6.991 3.962-2.652 1.854-5.008 4.075-7.445 6.192-6.034 5.242-12.159 10.388-18.781 14.86-2.85 2.258-5.63 4.596-8.153 7.215-6.527 6.778-8.984 14.811-8.978 24.148.007 10.353 2.955 20.271 4.565 30.416 1.52 9.582 2.225 19.272 2.224 28.971-.003 19.638-2.77 56.25-5.479 75.658-2.108 15.106-4.078 30.232-6.143 45.343-.532 3.895-1.014 7.811-1.351 11.738-.322 3.739-.514 7.488-.487 11.237.044 6.192.419 13.213 4.352 18.308 1.333 1.728.234 3.432-1.389 4.034-1.233.458-2.769.279-3.77-1.018-7.445-9.647-5.47-25.36-4.275-36.584 1.565-14.684 3.859-29.368 5.834-44.003 2.81-20.819 6.204-58.758 6.677-79.803l.004-.319c.231-10.968-.318-21.98-2.095-32.814-1.618-9.862-4.35-19.529-4.618-29.58-.26-9.748 1.737-19.052 7.91-26.773a47.612 47.612 0 0 1 3.541-3.933c6.277-6.275 13.751-11.701 21.001-16.772.418-.292.872-.641.944-1.146.075-.532-.305-1.011-.674-1.402-1.991-2.109-4.427-3.596-6.765-5.221.25-4.293.485-8.588.713-12.883 10.317-.012 20.314-.008 29.866.015.277 3.247.185 6.704.38 10.074-.207.026-.414.042-.617.08zM1893.082 581.26v17.959l126.841-.003c30.123-.001 72.698.008 116.932-.01v-18.002c-83.132-.053-171.23.031-243.773.056z" class="svgShape color361c1c-130 selectable"></path><path fill="#6c4e4e" d="M2126.177 350.94h15.017v1153.728h-15.017z" class="svgShape color6c4e4e-131 selectable"></path><path fill="#99adbf" d="M2153.045 384.767v677.843l36.637 15.26V412.003z" class="svgShape color99adbf-132 selectable"></path><path fill="#c3ced9" d="M2178.802 477.008c3.61 5.835 7.241 11.656 10.88 17.472v-82.477l-36.637-27.235v49.767c8.437 14.246 17.045 28.392 25.757 42.473zM2185.246 600.633c-5.981-9.66-11.783-19.444-17.939-28.993-4.727-7.332-9.504-14.633-14.262-21.947v50.568a2349.358 2349.358 0 0 1 12.957 20.605c7.938 12.759 15.792 25.57 23.68 38.361v-51.476c-1.475-2.375-2.964-4.741-4.436-7.118zM2170.809 720.333a2069.724 2069.724 0 0 0 18.873 29.762v-35.682l-.825-1.301c-6.278-9.9-12.352-19.925-18.642-29.818-5.662-8.905-11.431-17.743-17.17-26.6v34.589c5.861 9.72 11.765 19.414 17.764 29.05zM2175.865 800.788c-7.54-13.422-15.127-26.819-22.82-40.154v61.093c3.376 5.494 6.71 11.013 10.024 16.548 8.894 14.854 17.729 29.743 26.613 44.602v-57.439c-4.604-8.218-9.204-16.438-13.817-24.65z" class="svgShape colorc3ced9-133 selectable"></path><path fill="#4a3333" d="M2141.195 1080.115v424.554h61.188v-404.433l-61.188-20.121z" class="svgShape color4a3333-134 selectable"></path></svg>