<svg xmlns="http://www.w3.org/2000/svg" fill-rule="evenodd" clip-rule="evenodd" image-rendering="optimizeQuality" shape-rendering="geometricPrecision" text-rendering="geometricPrecision" viewBox="0 0 25400 25400" width="1000" height="1000"><path fill="#66ccff" d="M23447.39 12584.12l0 0c0 276.7 226.39 503.09 503.09 503.09l0 0c-276.7 0-503.09 226.39-503.09 503.09l0 0c0-276.7-226.39-503.09-503.09-503.09l0 0c276.7 0 503.09-226.39 503.09-503.09zM1815.4 12194.96l.01 0c0 201.23 164.65 365.88 365.88 365.88l0 .01c-201.23 0-365.88 164.65-365.88 365.88l-.01 0c0-201.23-164.65-365.88-365.88-365.88l0-.01c201.23 0 365.88-164.65 365.88-365.88zM16444.49 2578.57l0 0c0 352.15 288.13 640.28 640.28 640.28l0 0c-352.15 0-640.28 288.13-640.28 640.28l0 0c0-352.15-288.13-640.28-640.28-640.28l0 0c352.15 0 640.28-288.13 640.28-640.28zM5769.25 3739.81l.01 0c0 201.23 164.65 365.88 365.88 365.88l0 .01c-201.23 0-365.88 164.65-365.88 365.88l-.01 0c0-201.23-164.65-365.88-365.88-365.88l0-.01c201.23 0 365.88-164.65 365.88-365.88zM883.37 22395.64l23633.26 0c117.09 0 212.89 95.8 212.89 212.89l0 .01c0 117.09-95.8 212.89-212.89 212.89l-23633.26 0c-117.09 0-212.89-95.8-212.89-212.89l0-.01c0-117.09 95.8-212.89 212.89-212.89z" class="svgShape color949dfc-4 selectable"></path><path fill="#04b1e3" d="M5577.29 12750.76l10572.2 0c548.19,0 999.1,448.5 1002.05,996.69l41.09 7658.81c2.94,548.17 -443.16,996.69 -991.34,996.69l-10572.21 0c-548.18,0 -999.1,-448.52 -1002.04,-996.69l-41.1 -7658.81c-2.94,-548.19 443.17,-996.69 991.35,-996.69z" class="svgShape color4553e7-5 selectable"></path><polygon fill="#ebf2ff" points="15021.15 7903.01 8615.2 7903.01 6277.89 10240.32 6277.89 17728.34 15021.15 17728.34" class="svgShape colorebf2ff-6 selectable"></polygon><polygon fill="#d9e8ff" points="8615.19 10240.33 6277.88 10240.33 8615.19 7903.02" class="svgShape colord9e8ff-7 selectable"></polygon><path fill="#66ccff" d="M3911.88 14438.8l10920.84 0c452.3,0 894.07,370.07 981.7,822.39l1224.24 6319.37c87.63,452.32 -210.75,822.39 -663.06,822.39l-10920.83 0c-452.31,0 -894.08,-370.07 -981.7,-822.39l-1224.25 -6319.37c-87.62,-452.32 210.76,-822.39 663.06,-822.39z" class="svgShape color8892fc-8 selectable"></path><path fill="#fe5a58" d="M9445.78 10198.16c108.11,-108.11 284.96,-108.09 393.05,0l810.69 810.69 810.69 -810.69c108.09,-108.09 284.94,-108.11 393.05,0 108.11,108.11 108.11,284.96 0.01,393.05l-810.69 810.7 810.69 810.69c108.1,108.1 108.11,284.94 0,393.05 -108.11,108.11 -284.95,108.11 -393.05,0.01l-810.7 -810.7 -810.7 810.7c-108.1,108.1 -284.94,108.1 -393.05,-0.01 -108.11,-108.11 -108.1,-284.95 0,-393.05l810.7 -810.69 -810.7 -810.7c-108.1,-108.09 -108.1,-284.94 0.01,-393.05z" class="svgShape colorfe5a58-9 selectable"></path><path fill="#080353" d="M20310.64 17263.6c-94.41 147.61-228.29 312.4-314.12 358.74-85.81 46.35-123.58-25.75-151.05-197.39-27.46-171.65-44.62-442.85-27.44-600.77 17.15-157.92 68.65-202.54 154.47-195.68 85.82 6.87 205.97 65.24 312.4 70.39 106.42 5.15 199.1-42.91 235.16-25.75 36.04 17.18 15.44 99.56-22.32 205.97-37.76 106.42-92.7 236.88-187.1 384.49zM21074.48 17936.45c34.33 157.91 82.38 439.42 92.68 588.75 10.3 149.34-17.16 166.49-240.31 197.38-223.14 30.91-641.95 75.53-865.08 90.97-223.15 15.47-250.62 1.72-264.34-29.17-13.74-30.89-13.74-78.95-13.74-135.61 0-56.63 0-121.85 68.65-161.33 68.66-39.48 205.98-53.21 291.81-82.4 85.82-29.18 120.14-73.8 147.6-178.51 27.48-104.7 48.07-269.47 61.8-374.19 13.73-104.7 20.6-149.31 75.53-139.01 54.94 10.29 157.91 75.5 245.46 70.36 87.54-5.16 159.62-80.67 211.12-104.72 51.49-24.02 82.38 3.45 108.13 34.34 25.74 30.91 46.35 65.22 80.69 223.14z" class="svgShape color080353-10 selectable"></path><path fill="#fe5a58" d="M20441.1 12610.26c-12.02,-97.83 -15.46,-176.78 -65.23,-238.58 -49.78,-61.79 -145.9,-106.4 -233.43,-149.32 -87.55,-42.91 -166.51,-84.11 -216.28,-94.41 -49.78,-10.3 -70.39,10.3 -168.22,181.94 -97.84,171.65 -272.93,494.33 -453.15,866.8 -180.23,372.48 -365.62,794.74 -449.71,1040.19 -84.1,245.45 -66.95,314.12 96.12,768.98 163.06,454.87 472.02,1295.93 638.53,1719.9 166.5,423.97 190.53,430.82 288.37,393.06 97.83,-37.77 269.47,-120.15 365.6,-181.95 96.12,-61.78 116.73,-102.99 125.32,-631.65 8.58,-528.66 5.13,-1544.82 24.02,-2183.35 18.88,-638.51 60.09,-899.42 70.38,-1088.23 10.3,-188.81 -10.31,-305.54 -22.32,-403.38z" class="svgShape colorfe5a58-11 selectable"></path><path fill="#fe5a58" d="M21977.33 12510.71c0,128.74 -10.29,331.29 -139.03,732.94 -128.73,401.66 -375.91,1002.4 -513.22,1311.36 -137.32,308.98 -164.79,326.14 -171.65,866.82 -6.86,540.69 6.86,1604.91 -8.59,2131.85 -15.44,526.96 -60.06,516.66 -202.52,502.92 -142.47,-13.73 -382.8,-30.89 -509.8,-39.48 -127.02,-8.58 -140.77,-8.58 -195.68,-315.83 -54.93,-307.23 -151.05,-921.74 -211.13,-1549.97 -60.08,-628.21 -84.11,-1270.17 -66.93,-1773.09 17.15,-502.93 75.5,-866.81 125.29,-1206.68 49.77,-339.85 90.97,-655.68 151.05,-780.99 60.07,-125.28 139.03,-60.07 283.21,-24.03 144.19,36.05 353.6,42.92 547.56,36.04 193.96,-6.85 372.46,-27.45 513.22,-54.91 140.75,-27.47 243.74,-61.79 300.39,-75.53 56.64,-13.73 66.94,-6.87 77.24,24.03 10.3,30.9 20.59,85.81 20.59,214.55z" class="svgShape colorfe5a58-12 selectable"></path><path fill="#ffccce" d="M20683.12 7895.15c6.86,89.26 48.06,178.52 85.83,240.31 37.75,61.8 72.09,96.11 94.4,125.29 22.3,29.19 32.61,53.22 -12.02,121.88 -44.63,68.65 -144.18,181.94 -205.96,274.64 -61.81,92.69 -85.85,164.77 -109.87,207.69 -24.03,42.9 -48.06,56.64 -102.98,17.16 -54.94,-39.48 -140.77,-132.16 -185.38,-185.37 -44.63,-53.21 -48.08,-66.95 -85.82,-75.55 -37.76,-8.57 -109.86,-11.99 -188.82,-68.65 -78.95,-56.63 -164.77,-166.5 -259.17,-303.81 -94.42,-137.31 -197.41,-302.1 -262.64,-434.27 -65.22,-132.16 -92.69,-231.72 -96.12,-308.97 -3.44,-77.23 17.17,-132.15 72.1,-151.03 54.91,-18.88 144.18,-1.73 231.72,13.72 87.54,15.46 173.36,29.19 279.78,-3.43 106.41,-32.6 233.44,-111.56 331.28,-145.9 97.83,-34.32 166.5,-24.02 221.43,36.05 54.92,60.07 96.12,169.93 133.89,240.29 37.75,70.39 72.08,101.29 75.5,161.36 3.44,60.08 -24.01,149.34 -17.15,238.59z" class="svgShape colorffccce-13 selectable"></path><path fill="#ffccce" d="M20383.56 8841.14c-48.66,-44.95 -103.66,-105.32 -136.42,-144.39 -17.68,-21.08 -28.88,-35.93 -38.33,-46.77 21.02,-9.33 43.57,-20.17 65.79,-33.92 72.09,-44.62 140.74,-120.14 199.1,-250.6 58.36,-130.44 106.43,-315.83 130.47,-322.7 24.03,-6.85 24.03,164.79 1.71,303.82 -22.32,139.04 -66.94,245.46 -113.28,334.71 -35.1,67.62 -71.23,125.36 -109.04,159.85z" class="svgShape colorffccce-14 selectable"></path><path fill="#2f99e9" d="M21704.41 9759.23c-149.32,-614.49 -272.91,-889.13 -369.04,-1059.07 -96.11,-169.93 -164.78,-235.13 -204.26,-276.34 -39.48,-41.19 -49.78,-58.35 -60.07,-97.83 -10.3,-39.49 -20.6,-101.27 -54.91,-130.46 -34.34,-29.18 -92.71,-25.74 -197.41,80.68 -104.72,106.42 -255.75,315.82 -365.59,423.97 -109.87,108.13 -178.54,114.99 -453.16,168.2 -274.64,53.21 -755.26,152.77 -1023.03,202.55 -267.76,49.78 -322.68,49.78 -580.16,-61.79 -257.47,-111.58 -717.49,-334.72 -969.81,-453.16 -252.32,-118.43 -296.94,-132.16 -362.17,-66.94 -65.22,65.23 -151.05,209.42 -197.38,329.56 -46.36,120.15 -53.21,216.28 -54.94,267.77 -1.72,51.5 1.73,58.37 281.51,197.4 279.77,139.03 835.92,410.25 1201.53,564.73 365.6,154.47 540.68,192.24 753.52,204.24 212.84,12.01 463.45,-1.7 595.61,-13.72 132.17,-12.03 145.9,-22.32 125.31,-8.59 -20.61,13.73 -75.52,51.5 -116.71,94.41 -41.21,42.91 -68.68,90.97 -94.42,111.57 -25.75,20.59 -49.78,13.73 -296.94,-3.43 -247.17,-17.17 -717.49,-44.64 -962.94,-58.37 -245.45,-13.73 -266.06,-13.73 -281.52,120.15 -15.44,133.89 -25.74,401.66 -30.89,532.1 -5.14,130.45 -5.14,123.6 274.65,144.19 279.78,20.6 839.34,68.66 1132.86,94.41 293.51,25.74 320.98,29.18 377.63,20.59 56.64,-8.57 142.46,-29.17 193.96,-51.49 51.49,-22.32 68.64,-46.34 54.92,61.79 -13.74,108.13 -58.36,348.46 -102.99,545.84 -44.63,197.39 -89.25,351.87 -111.56,437.7 -22.32,85.82 -22.32,102.99 142.47,171.64 164.78,68.66 494.33,188.82 798.15,254.03 303.81,65.23 581.88,75.53 815.32,44.64 233.44,-30.9 422.25,-102.99 521.81,-154.48 99.56,-51.49 109.86,-82.4 27.47,-575.02 -82.39,-492.63 -257.48,-1446.97 -406.82,-2061.47z" class="svgShape color8892fc-15 selectable"></path><path  fill="#2f99e9" d="M19771.87 10029.16l-1.91 1.26c-20.61,13.74 -75.52,51.51 -116.72,94.42 -41.2,42.91 -68.66,90.97 -94.41,111.57 -25.74,20.59 -49.78,13.74 -296.94,-3.43 -247.17,-17.17 -717.49,-44.63 -962.94,-58.37 -245.46,-13.73 -266.07,-13.73 -281.51,120.15 -15.45,133.89 -25.75,401.66 -30.9,532.1 -5.14,130.45 -5.14,123.6 274.64,144.19 279.79,20.6 839.35,68.66 1132.87,94.4 293.52,25.75 320.98,29.19 377.63,20.6 56.64,-8.58 142.46,-29.17 193.97,-51.49 6.98,-3.03 13.32,-6.07 19.05,-8.82 7.36,-34.59 13.67,-71.06 18.69,-109.62 30.9,-236.87 13.74,-552.7 5.17,-715.77 -8.59,-163.06 -8.59,-173.35 -49.78,-178.5 -32.3,-4.04 -89.92,-4.92 -186.91,7.31z" class="svgShape color8892fc-16 selectable"></path><path fill="#ffccce" d="M18020.77 10269.05c-98.43,-34.54 -200.08,-45.94 -306.76,-26.23 -147.26,27.22 -304.14,113.66 -393.77,182.48 -89.64,68.84 -112.04,120.05 -86.43,142.46 25.6,22.42 99.24,16.01 291.32,9.61 128.76,-4.29 310.78,-8.57 472.7,-9.5 5.21,-101.89 11.73,-204.88 19.61,-273.11 1.06,-9.19 2.15,-17.74 3.33,-25.71z" class="svgShape colorffccce-17 selectable"></path><path fill="#080353" d="M20748.34 8049.63c20.6,-72.09 48.06,-226.58 75.52,-360.46 27.47,-133.88 54.94,-247.15 48.08,-339.85 -6.87,-92.69 -48.08,-164.78 -85.84,-204.26 -37.76,-39.49 -72.08,-46.34 -92.68,-85.83 -20.61,-39.48 -27.46,-111.56 -75.53,-187.09 -48.05,-75.52 -137.32,-154.48 -286.65,-173.37 -149.33,-18.87 -358.74,22.33 -513.21,108.16 -154.48,85.82 -254.05,216.26 -336.44,271.19 -82.39,54.94 -147.61,34.33 -205.97,13.73 -58.36,-20.6 -109.87,-41.19 -104.71,-20.6 5.14,20.6 66.94,82.4 94.41,127.01 27.45,44.64 20.6,72.1 -32.61,85.83 -53.21,13.74 -152.77,13.74 -217.99,6.87 -65.23,-6.87 -96.14,-20.6 -96.14,25.75 0,46.33 30.91,152.77 68.68,228.29 37.76,75.53 82.38,120.15 120.14,140.74 37.76,20.61 68.67,17.17 92.71,37.76 24.02,20.61 41.17,65.24 72.08,109.86 30.89,44.64 75.51,89.26 116.71,111.57 41.19,22.32 78.96,22.32 99.56,24.02 20.59,1.73 24.03,5.17 12.02,-24.02 -12.02,-29.19 -39.5,-90.97 -48.07,-123.58 -8.59,-32.61 1.72,-36.06 72.1,-32.63 70.37,3.44 200.82,13.75 257.47,15.46 56.64,1.72 39.47,-5.15 -6.87,-15.44 -46.36,-10.3 -121.88,-24.05 -175.09,-66.96 -53.21,-42.91 -84.1,-115 -99.54,-157.9 -15.45,-42.91 -15.45,-56.66 17.16,-30.91 32.62,25.76 97.82,90.99 178.5,115 80.68,24.05 176.8,6.88 255.76,-12.01 78.96,-18.88 140.75,-39.47 171.66,-49.77 30.89,-10.3 30.89,-10.3 66.94,24.02 36.05,34.34 108.13,103 156.19,132.17 48.06,29.18 72.1,18.88 80.67,10.29 8.58,-8.57 1.72,-15.42 -12,-49.76 -13.74,-34.33 -34.35,-96.13 -25.76,-130.46 8.58,-34.32 46.34,-41.19 89.25,-24.04 42.91,17.18 90.97,58.37 116.73,94.42 25.74,36.04 29.18,66.94 13.72,97.84 -15.44,30.89 -49.76,61.8 -61.78,75.53 -12.02,13.74 -1.72,10.3 27.47,54.93 29.17,44.63 77.23,137.31 108.12,188.8 30.89,51.5 44.64,61.8 65.23,-10.3z" class="svgShape color080353-18 selectable"></path><g><polygon fill="#080353" points="18312.77 10717.41 20720.7 22402.95 21006.29 22402.95 18586.73 10660.97 18558.51 10523.98 18284.54 10580.43" class="svgShape color080353-20 selectable"></polygon><polygon fill="#080353" points="16828.69 10717.41 14420.76 22402.95 14135.16 22402.95 16554.72 10660.97 16582.95 10523.98 16856.91 10580.43" class="svgShape color080353-21 selectable"></polygon><path fill="#080353" d="M18673.7 10345.63l-2205.96 0c-76.79 0-139.61 62.82-139.61 139.62l0 390.93c0 76.78 62.82 139.6 139.61 139.6l2205.96 0c76.78 0 139.6-62.82 139.6-139.6l0-390.93c0-76.8-62.82-139.62-139.6-139.62zM19498.91 15943.96l-3856.36 0c-90.73 0-164.95 74.23-164.95 164.96l0 0c0 90.73 74.22 164.95 164.95 164.95l3856.36 0c90.72 0 164.96-74.22 164.96-164.95l0 0c0-90.73-74.24-164.96-164.96-164.96z" class="svgShape color080353-22 selectable"></path></g><path fill="#00c6ff" fill-rule="nonzero" d="M4029.86 7797.01c8.33 3.11 16.6 6.36 24.78 9.75 8.12 3.36 16.24 6.92 24.36 10.65l169.23-89.58 20.09 13.46c48.35 32.39 93.04 69.1 133.41 109.48 40.38 40.37 77.1 85.07 109.49 133.42l13.46 20.1-89.6 169.24c3.74 8.11 7.29 16.23 10.66 24.35 3.38 8.18 6.63 16.43 9.73 24.77l183.14 56.35 4.69 23.75c5.4 27.34 9.59 55.84 12.48 85.44 2.85 29.25 4.32 58.04 4.32 86.22 0 28.18-1.47 56.97-4.32 86.22-2.89 29.6-7.08 58.1-12.48 85.44l-4.69 23.75-183.13 56.34c-3.1 8.35-6.35 16.62-9.74 24.8-3.37 8.11-6.92 16.23-10.64 24.35l89.58 169.23-13.46 20.09c-32.39 48.35-69.1 93.04-109.47 133.41-40.38 40.38-85.08 77.09-133.43 109.49l-20.09 13.46-169.24-89.59c-8.13 3.74-16.27 7.3-24.4 10.67-8.16 3.39-16.42 6.63-24.73 9.73l-56.35 183.12-23.75 4.69c-27.33 5.4-55.84 9.58-85.45 12.47-29.25 2.86-58.03 4.33-86.21 4.33-28.17 0-56.95-1.47-86.2-4.33-29.6-2.89-58.12-7.07-85.46-12.47l-23.75-4.69-56.33-183.12c-8.35-3.1-16.62-6.35-24.8-9.74-8.12-3.36-16.24-6.92-24.36-10.66l-169.22 89.59-20.09-13.46c-48.35-32.39-93.03-69.09-133.41-109.46-40.38-40.39-77.1-85.08-109.5-133.45l-13.47-20.09 89.61-169.25c-3.73-8.12-7.28-16.24-10.65-24.35-3.38-8.17-6.63-16.43-9.73-24.76l-183.15-56.35-4.69-23.75c-5.39-27.34-9.58-55.85-12.47-85.45-2.86-29.25-4.33-58.03-4.33-86.21 0-28.18 1.47-56.95 4.33-86.19 2.89-29.61 7.08-58.12 12.48-85.47l4.69-23.75 183.12-56.34c3.1-8.35 6.35-16.62 9.75-24.81 3.36-8.11 6.92-16.23 10.64-24.34l-89.59-169.22 13.46-20.09c32.39-48.35 69.1-93.03 109.46-133.41 40.38-40.38 85.08-77.09 133.44-109.5l20.09-13.46 169.25 89.6c8.14-3.75 16.29-7.31 24.44-10.69 8.15-3.39 16.39-6.63 24.69-9.72l56.34-183.11 23.75-4.7c27.34-5.39 55.85-9.58 85.46-12.47 29.25-2.86 58.02-4.33 86.2-4.33 28.18 0 56.97 1.47 86.23 4.33 29.59 2.88 58.1 7.07 85.43 12.47l23.75 4.69 56.35 183.11zm-6.26 84.48c-12.92-5.36-26.07-10.32-39.38-14.83l-19.56-6.62-54.04-175.67c-18.11-3.05-36.09-5.46-53.89-7.19-24.97-2.44-51.19-3.7-78.63-3.7-27.43 0-53.64 1.26-78.6 3.7-17.81 1.73-35.8 4.14-53.92 7.2l-54.04 175.66-19.55 6.63c-13.28 4.5-26.39 9.44-39.29 14.8-13.31 5.51-26.17 11.35-38.55 17.47l-18.54 9.17-162.49-86.03c-35.89 25.66-69.8 54.47-101.36 86.03-31.55 31.55-60.34 65.45-85.99 101.33l86.02 162.48-9.16 18.53c-6.11 12.35-11.93 25.17-17.43 38.44-5.36 12.92-10.32 26.08-14.83 39.4l-6.63 19.55-175.67 54.05c-3.06 18.12-5.47 36.12-7.2 53.93-2.44 24.96-3.69 51.16-3.69 78.59 0 27.43 1.25 53.64 3.69 78.61 1.73 17.81 4.14 35.79 7.2 53.91l175.68 54.05 6.64 19.55c4.51 13.31 9.46 26.45 14.81 39.37 5.51 13.27 11.33 26.1 17.43 38.45l9.16 18.54-86.03 162.49c25.67 35.9 54.48 69.81 86.04 101.37 31.55 31.55 65.45 60.34 101.33 85.99l162.46-86.01 18.54 9.16c12.36 6.11 25.19 11.94 38.47 17.44 12.92 5.36 26.07 10.31 39.39 14.82l19.55 6.63 54.04 175.67c18.12 3.05 36.11 5.46 53.92 7.19 24.96 2.44 51.18 3.7 78.6 3.7 27.44 0 53.65-1.26 78.61-3.7 17.81-1.73 35.8-4.14 53.91-7.19l54.04-175.67 19.56-6.63c13.29-4.5 26.42-9.45 39.33-14.81 13.28-5.5 26.14-11.34 38.5-17.46l18.53-9.16 162.5 86.02c35.89-25.66 69.79-54.45 101.35-86.02 31.56-31.55 60.34-65.45 86-101.33l-86.01-162.47 9.16-18.54c6.1-12.34 11.92-25.18 17.42-38.45 5.37-12.93 10.33-26.08 14.84-39.4l6.62-19.55 175.68-54.05c3.05-18.11 5.47-36.09 7.2-53.9 2.43-24.97 3.69-51.18 3.69-78.62 0-27.43-1.26-53.66-3.69-78.62-1.73-17.81-4.15-35.79-7.19-53.9l-175.7-54.05-6.63-19.55c-4.51-13.32-9.47-26.46-14.82-39.37-5.5-13.28-11.32-26.11-17.43-38.46l-9.17-18.53 86.03-162.5c-25.66-35.88-54.45-69.79-86.01-101.35-31.56-31.56-65.47-60.35-101.34-86.01l-162.48 86.02-18.53-9.17c-12.35-6.1-25.2-11.92-38.47-17.43zm-245.5 189.23c111.47 0 212.4 45.18 285.46 118.24 73.05 73.06 118.24 173.98 118.24 285.45 0 111.47-45.19 212.39-118.24 285.45-73.06 73.05-173.99 118.24-285.46 118.24-111.46 0-212.39-45.19-285.44-118.24-73.06-73.06-118.25-173.98-118.25-285.45 0-111.47 45.19-212.39 118.24-285.45 73.06-73.06 173.99-118.24 285.45-118.24zm228.14 175.56c-58.37-58.38-139.04-94.49-228.14-94.49-89.09 0-169.76 36.11-228.13 94.49-58.38 58.37-94.49 139.03-94.49 228.13 0 89.09 36.12 169.75 94.49 228.13 58.38 58.37 139.04 94.49 228.13 94.49 89.1 0 169.77-36.12 228.14-94.49 58.38-58.38 94.49-139.04 94.49-228.13 0-89.1-36.11-169.76-94.49-228.13zM23809.36 7515.55c8.33 3.11 16.6 6.36 24.78 9.75 8.12 3.36 16.24 6.92 24.36 10.65l169.23-89.58 20.09 13.46c48.35 32.39 93.04 69.1 133.41 109.48 40.38 40.37 77.1 85.07 109.49 133.42l13.46 20.1-89.6 169.24c3.74 8.11 7.29 16.23 10.66 24.35 3.38 8.18 6.63 16.43 9.73 24.77l183.14 56.35 4.69 23.75c5.4 27.34 9.59 55.84 12.48 85.44 2.85 29.25 4.32 58.04 4.32 86.22 0 28.18-1.47 56.97-4.32 86.22-2.89 29.6-7.08 58.1-12.48 85.44l-4.69 23.75-183.13 56.34c-3.1 8.35-6.35 16.62-9.74 24.8-3.37 8.11-6.92 16.23-10.64 24.35l89.58 169.23-13.46 20.09c-32.39 48.35-69.1 93.04-109.47 133.41-40.38 40.38-85.08 77.09-133.43 109.49l-20.09 13.46-169.24-89.59c-8.13 3.74-16.27 7.3-24.4 10.67-8.16 3.39-16.42 6.63-24.73 9.73l-56.35 183.12-23.75 4.69c-27.33 5.4-55.84 9.58-85.45 12.47-29.25 2.86-58.03 4.33-86.21 4.33-28.17 0-56.95-1.47-86.2-4.33-29.6-2.89-58.12-7.07-85.46-12.47l-23.75-4.69-56.33-183.12c-8.35-3.1-16.62-6.35-24.8-9.74-8.12-3.36-16.24-6.92-24.36-10.66l-169.22 89.59-20.09-13.46c-48.35-32.39-93.03-69.09-133.41-109.46-40.38-40.39-77.1-85.08-109.5-133.45l-13.47-20.09 89.61-169.25c-3.73-8.12-7.28-16.24-10.65-24.35-3.38-8.17-6.63-16.43-9.73-24.76l-183.15-56.35-4.69-23.75c-5.39-27.34-9.58-55.85-12.47-85.45-2.86-29.25-4.33-58.03-4.33-86.21 0-28.18 1.47-56.95 4.33-86.19 2.89-29.61 7.08-58.12 12.48-85.47l4.69-23.75 183.12-56.34c3.1-8.35 6.35-16.62 9.75-24.81 3.36-8.11 6.92-16.23 10.64-24.34l-89.59-169.22 13.46-20.09c32.39-48.35 69.1-93.03 109.46-133.41 40.38-40.38 85.08-77.09 133.44-109.5l20.09-13.46 169.25 89.6c8.14-3.75 16.29-7.31 24.44-10.69 8.15-3.39 16.39-6.63 24.69-9.72l56.34-183.11 23.75-4.7c27.34-5.39 55.85-9.58 85.46-12.47 29.25-2.86 58.02-4.33 86.2-4.33 28.18 0 56.97 1.47 86.23 4.33 29.59 2.88 58.1 7.07 85.43 12.47l23.75 4.69 56.35 183.11zm-6.26 84.48c-12.92-5.36-26.07-10.32-39.38-14.83l-19.56-6.62-54.04-175.67c-18.11-3.05-36.09-5.46-53.89-7.19-24.97-2.44-51.19-3.7-78.63-3.7-27.43 0-53.64 1.26-78.6 3.7-17.81 1.73-35.8 4.14-53.92 7.2l-54.04 175.66-19.55 6.63c-13.28 4.5-26.39 9.44-39.29 14.8-13.31 5.51-26.17 11.35-38.55 17.47l-18.54 9.17-162.49-86.03c-35.89 25.66-69.8 54.47-101.36 86.03-31.55 31.55-60.34 65.45-85.99 101.33l86.02 162.48-9.16 18.53c-6.11 12.35-11.93 25.17-17.43 38.44-5.36 12.92-10.32 26.08-14.83 39.4l-6.63 19.55-175.67 54.05c-3.06 18.12-5.47 36.12-7.2 53.93-2.44 24.96-3.69 51.16-3.69 78.59 0 27.43 1.25 53.64 3.69 78.61 1.73 17.81 4.14 35.79 7.2 53.91l175.68 54.05 6.64 19.55c4.51 13.31 9.46 26.45 14.81 39.37 5.51 13.27 11.33 26.1 17.43 38.45l9.16 18.54-86.03 162.49c25.67 35.9 54.48 69.81 86.04 101.37 31.55 31.55 65.45 60.34 101.33 85.99l162.46-86.01 18.54 9.16c12.36 6.11 25.19 11.94 38.47 17.44 12.92 5.36 26.07 10.31 39.39 14.82l19.55 6.63 54.04 175.67c18.12 3.05 36.11 5.46 53.92 7.19 24.96 2.44 51.18 3.7 78.6 3.7 27.44 0 53.65-1.26 78.61-3.7 17.81-1.73 35.8-4.14 53.91-7.19l54.04-175.67 19.56-6.63c13.29-4.5 26.42-9.45 39.33-14.81 13.28-5.5 26.14-11.34 38.5-17.46l18.53-9.16 162.5 86.02c35.89-25.66 69.79-54.45 101.35-86.02 31.56-31.55 60.34-65.45 86-101.33l-86.01-162.47 9.16-18.54c6.1-12.34 11.92-25.18 17.42-38.45 5.37-12.93 10.33-26.08 14.84-39.4l6.62-19.55 175.68-54.05c3.05-18.11 5.47-36.09 7.2-53.9 2.43-24.97 3.69-51.18 3.69-78.62 0-27.43-1.26-53.66-3.69-78.62-1.73-17.81-4.15-35.79-7.19-53.9l-175.7-54.05-6.63-19.55c-4.51-13.32-9.47-26.46-14.82-39.37-5.5-13.28-11.32-26.11-17.43-38.46l-9.17-18.53 86.03-162.5c-25.66-35.88-54.45-69.79-86.01-101.35-31.56-31.56-65.47-60.35-101.34-86.01l-162.48 86.02-18.53-9.17c-12.35-6.1-25.2-11.92-38.47-17.43zm-245.5 189.23c111.47 0 212.4 45.18 285.46 118.24 73.05 73.06 118.24 173.98 118.24 285.45 0 111.47-45.19 212.39-118.24 285.45-73.06 73.05-173.99 118.24-285.46 118.24-111.46 0-212.39-45.19-285.44-118.24-73.06-73.06-118.25-173.98-118.25-285.45 0-111.47 45.19-212.39 118.24-285.45 73.06-73.06 173.99-118.24 285.45-118.24zm228.14 175.56c-58.37-58.38-139.04-94.49-228.14-94.49-89.09 0-169.76 36.11-228.13 94.49-58.38 58.37-94.49 139.03-94.49 228.13 0 89.09 36.12 169.75 94.49 228.13 58.38 58.37 139.04 94.49 228.13 94.49 89.1 0 169.77-36.12 228.14-94.49 58.38-58.38 94.49-139.04 94.49-228.13 0-89.1-36.11-169.76-94.49-228.13zM11552.51 2947.69c14.73 5.49 29.34 11.24 43.8 17.23 14.36 5.95 28.71 12.23 43.07 18.83l299.13-158.35 35.52 23.79c85.46 57.26 164.47 122.15 235.83 193.52 71.37 71.37 136.27 150.38 193.53 235.85l23.79 35.52-158.37 299.16c6.6 14.34 12.87 28.7 18.83 43.05 5.99 14.45 11.73 29.05 17.21 43.78l323.73 99.62 8.29 41.97c9.54 48.32 16.95 98.7 22.05 151.02 5.04 51.71 7.64 102.6 7.64 152.41 0 49.82-2.6 100.7-7.64 152.41-5.1 52.33-12.51 102.7-22.05 151.03l-8.29 41.99-323.71 99.59c-5.49 14.74-11.23 29.36-17.23 43.83-5.95 14.34-12.22 28.69-18.81 43.03l158.35 299.15-23.79 35.51c-57.26 85.47-122.14 164.47-193.5 235.83-71.38 71.38-150.39 136.26-235.86 193.53l-35.52 23.8-299.16-158.37c-14.36 6.61-28.75 12.9-43.12 18.87-14.43 5.99-29.02 11.72-43.72 17.19l-99.6 323.7-41.98 8.28c-48.32 9.54-98.71 16.94-151.04 22.05-51.71 5.05-102.58 7.65-152.39 7.65-49.8 0-100.68-2.6-152.37-7.65-52.33-5.11-102.74-12.51-151.07-22.05l-41.98-8.28-99.57-323.69c-14.76-5.48-29.38-11.22-43.84-17.22-14.35-5.95-28.71-12.24-43.06-18.84l-299.13 158.36-35.51-23.8c-85.46-57.25-164.44-122.12-235.81-193.49-71.38-71.38-136.29-150.39-193.57-235.88l-23.8-35.51 158.4-299.19c-6.59-14.34-12.88-28.7-18.82-43.03-5.99-14.45-11.73-29.05-17.2-43.77l-323.75-99.6-8.29-41.99c-9.54-48.33-16.94-98.72-22.05-151.05-5.05-51.71-7.65-102.58-7.65-152.39 0-49.8 2.6-100.66 7.65-152.34 5.11-52.34 12.51-102.75 22.06-151.09l8.3-41.97 323.69-99.61c5.47-14.75 11.23-29.37 17.23-43.84 5.94-14.35 12.22-28.69 18.82-43.02l-158.38-299.13 23.8-35.52c57.25-85.46 122.14-164.44 193.48-235.81 71.38-71.38 150.39-136.28 235.88-193.56l35.51-23.79 299.17 158.37c14.4-6.62 28.8-12.92 43.21-18.9 14.41-5.98 28.96-11.71 43.65-17.17l99.58-323.68 41.98-8.3c48.33-9.54 98.73-16.94 151.06-22.05 51.7-5.05 102.57-7.65 152.38-7.65 49.81 0 100.71 2.6 152.41 7.65 52.32 5.1 102.7 12.5 151.02 22.04l41.98 8.3 99.6 323.67zm-11.05 149.33c-22.85-9.48-46.08-18.23-69.62-26.21l-34.57-11.71-95.53-310.52c-32.01-5.39-63.79-9.66-95.26-12.71-44.13-4.31-90.49-6.53-138.98-6.53-48.49 0-94.82 2.22-138.95 6.53-31.48 3.06-63.27 7.33-95.3 12.72l-95.53 310.52-34.56 11.71c-23.47 7.95-46.64 16.69-69.45 26.16-23.53 9.75-46.26 20.08-68.13 30.89l-32.77 16.2-287.23-152.07c-63.45 45.37-123.39 96.28-179.18 152.07-55.77 55.78-106.65 115.69-152 179.12l152.05 287.2-16.19 32.76c-10.79 21.83-21.08 44.49-30.81 67.95-9.47 22.84-18.23 46.1-26.21 69.64l-11.72 34.56-310.53 95.55c-5.39 32.03-9.65 63.84-12.72 95.33-4.31 44.11-6.53 90.43-6.53 138.91 0 48.49 2.22 94.82 6.53 138.95 3.07 31.48 7.33 63.27 12.72 95.3l310.55 95.55 11.73 34.56c7.98 23.53 16.73 46.74 26.2 69.58 9.73 23.45 20.02 46.14 30.8 67.97l16.18 32.77-152.06 287.23c45.37 63.45 96.3 123.39 152.08 179.18 55.78 55.78 115.7 106.66 179.12 152.01l287.17-152.04 32.77 16.2c21.85 10.8 44.54 21.09 68 30.82 22.85 9.48 46.09 18.23 69.63 26.2l34.56 11.72 95.53 310.51c32.03 5.39 63.83 9.66 95.31 12.72 44.12 4.31 90.46 6.53 138.94 6.53 48.49 0 94.82-2.22 138.96-6.53 31.48-3.06 63.26-7.33 95.28-12.72l95.53-310.51 34.57-11.72c23.5-7.96 46.7-16.71 69.53-26.18 23.47-9.73 46.19-20.05 68.05-30.87l32.75-16.19 287.24 152.06c63.44-45.37 123.38-96.26 179.16-152.05 55.78-55.78 106.66-115.7 152.02-179.13l-152.04-287.19 16.2-32.77c10.78-21.81 21.07-44.5 30.79-67.97 9.48-22.85 18.25-46.09 26.22-69.64l11.71-34.56 310.54-95.54c5.4-32.01 9.66-63.8 12.72-95.28 4.3-44.13 6.52-90.47 6.52-138.97 0-48.49-2.22-94.84-6.52-138.97-3.06-31.47-7.32-63.26-12.71-95.27l-310.57-95.54-11.72-34.57c-7.97-23.53-16.73-46.76-26.19-69.59-9.73-23.46-20.02-46.15-30.81-67.98l-16.21-32.74 152.07-287.25c-45.36-63.44-96.26-123.36-152.05-179.15-55.78-55.79-115.71-106.68-179.13-152.04l-287.2 152.05-32.76-16.2c-21.83-10.79-44.53-21.09-67.99-30.82zm-433.96 334.49c197.04 0 375.45 79.87 504.58 209.01 129.14 129.14 209.02 307.53 209.02 504.57 0 197.04-79.88 375.44-209.02 504.57-129.13 129.14-307.54 209.02-504.58 209.02-197.03 0-375.43-79.88-504.57-209.02-129.13-129.13-209.02-307.53-209.02-504.57 0-197.04 79.88-375.43 209.01-504.57 129.14-129.14 307.55-209.01 504.58-209.01zm403.27 310.33c-103.19-103.19-245.78-167.02-403.27-167.02-157.48 0-300.07 63.83-403.26 167.02-103.19 103.18-167.02 245.77-167.02 403.25 0 157.49 63.84 300.07 167.03 403.26 103.19 103.18 245.77 167.02 403.25 167.02 157.49 0 300.08-63.84 403.27-167.02 103.19-103.19 167.01-245.77 167.01-403.26 0-157.48-63.82-300.07-167.01-403.25z" class="svgShape colord9e8ff-23 selectable"></path><g><path fill="#00c6ff" d="M14886.15 7941.37l0.01 -0.02c39.67,-81.86 139.11,-116.38 220.98,-76.71l632.61 306.58c81.87,39.67 116.39,139.11 76.71,220.97l0 0.02c-39.68,81.87 -139.12,116.39 -220.98,76.71l-632.62 -306.58c-81.86,-39.67 -116.38,-139.11 -76.71,-220.97z" class="svgShape color949dfc-25 selectable"></path><path fill="#00c6ff" d="M15520.19 8403.03l121.19-250.08c36.11-74.51 126.58-105.91 201.08-69.8l820.67 397.71c74.5 36.1 105.91 126.57 69.8 201.08l-121.19 250.08c-36.1 74.5-126.58 105.91-201.08 69.8l-820.67-397.71c-74.5-36.1-105.91-126.58-69.8-201.08zM13757.39 7394.34c185.92-383.63 647.62-543.91 1031.26-358 383.63 185.92 543.91 647.63 357.99 1031.26-185.91 383.63-647.62 543.91-1031.25 358-383.64-185.92-543.92-647.63-358-1031.26zm334.91 162.3c96.28-198.66 335.38-281.66 534.04-185.39 198.67 96.28 281.67 335.38 185.39 534.05-96.27 198.66-335.38 281.66-534.04 185.39-198.66-96.28-281.67-335.38-185.39-534.05z" class="svgShape color4553e7-26 selectable"></path></g><path fill="#ffccce" d="M16823.72 8975.27c-66.18,4.28 -135.2,1.43 -188.56,14.23 -80.04,19.21 -124.85,73.64 -176.08,112.05 -51.22,38.43 -108.84,60.82 -161.66,48.02 -52.83,-12.8 -100.84,-60.82 -126.45,-107.24 -25.62,-46.43 -28.82,-91.24 -67.23,-128.06 -38.42,-36.82 -112.06,-65.62 -145.66,-96.03 -33.62,-30.41 -27.22,-62.43 0,-91.25 27.2,-28.8 75.22,-54.42 107.24,-97.63 32.01,-43.22 48.01,-104.05 88.03,-160.08 40.02,-56.02 104.05,-107.24 196.89,-136.05 92.83,-28.81 214.49,-35.22 318.54,-6.4 104.04,28.81 190.47,92.83 280.11,136.04 34.29,16.55 69.05,30.04 101.51,41.47 -62.99,70.58 -139.98,202.76 -182.99,314.26 -22.67,58.78 -35.9,111.8 -43.69,156.67z" class="svgShape colorffccce-27 selectable"></path></svg>